<svg width="608" height="416" viewBox="0 0 608 416" fill="none" xmlns="http://www.w3.org/2000/svg">
<path opacity="0.2" d="M16.6137 322.618C22.0184 334.134 43.1671 377.849 92.7492 400.647C103.324 405.347 152.906 428.145 194.733 407.462C249.955 380.199 232.566 306.401 284.028 269.502C328.205 237.774 376.377 296.295 429.719 267.387C457.448 252.346 479.536 219.442 480.241 190.299C482.356 98.874 277.918 -54.5976 127.527 19.6704C18.0236 73.4913 -27.3287 230.723 16.6137 322.618Z" fill="#58B58B"/>
<path d="M423.375 384.43C406.456 384.43 389.537 381.845 373.323 376.439C316.221 357.167 272.514 300.526 255.83 225.083C243.14 167.031 250.425 112.74 274.394 90.178C290.608 74.6664 320.921 68.5557 344.889 75.6065C367.683 82.4222 377.318 100.284 386.952 117.441C396.116 134.363 404.811 150.11 425.02 153.4C447.578 157.16 466.612 147.759 484.706 138.828C505.385 128.722 524.654 119.086 548.622 127.077C570.711 134.598 589.51 155.985 601.024 186.773C607.839 204.87 613.009 234.249 599.849 271.148C578.231 331.549 500.685 384.43 423.375 384.43ZM323.506 75.1364C305.412 75.1364 287.083 81.2471 275.803 92.0583C252.54 114.151 245.49 167.501 257.945 224.848C274.394 299.351 317.631 355.287 373.793 374.324C463.557 404.877 571.651 343.065 597.265 270.913C610.189 234.484 605.019 205.811 598.439 188.184C587.16 157.865 569.066 137.183 547.447 129.662C524.654 121.906 505.62 131.307 485.411 141.179C466.847 150.345 447.578 159.981 424.315 155.985C403.166 152.46 394.237 136.008 384.602 118.851C375.438 101.929 365.803 84.5374 343.949 78.1917C337.605 76.0765 330.555 75.1364 323.506 75.1364Z" fill="#D7D7F4"/>
<path d="M171.94 94.8785L163.48 86.4176L166.77 82.6572C165.36 80.3069 164.185 77.7217 163.715 75.1364L158.78 74.6663V62.68L163.715 62.21C164.42 59.6247 165.36 57.0394 166.77 54.6892L163.48 50.9288L171.94 42.4679L175.699 45.7582C178.049 44.348 180.634 43.1729 183.219 42.7029L183.689 37.7673H195.673L196.143 42.7029C198.728 43.408 201.313 44.348 203.663 45.7582L207.422 42.4679L215.882 50.9288L212.827 54.6892C214.237 57.0394 215.412 59.6247 215.882 62.21L220.817 62.68V74.6663L215.882 75.1364C215.177 77.7217 214.237 80.3069 212.827 82.6572L216.117 86.4176L207.657 94.8785L203.898 91.5882C201.548 92.9983 198.963 94.1734 196.378 94.6435L195.908 99.579H183.924L183.454 94.6435C180.869 93.9384 178.284 92.9983 175.934 91.5882L171.94 94.8785ZM194.968 77.7217C195.673 77.2516 196.378 76.7816 197.083 76.0765C197.788 75.3714 198.258 74.6663 198.728 73.9613C200.608 70.6709 200.608 66.6755 198.728 63.3851C198.258 62.68 197.788 61.975 197.083 61.2699C196.378 60.5648 195.673 60.0948 194.968 59.6247C191.678 57.7445 187.684 57.7445 184.394 59.6247C183.689 60.0948 182.984 60.5648 182.279 61.2699C181.574 61.975 181.104 62.68 180.634 63.3851C178.754 66.6755 178.754 70.6709 180.634 73.9613C181.104 74.6663 181.574 75.3714 182.279 76.0765C182.984 76.7816 183.689 77.2516 184.394 77.7217C187.684 79.6019 191.678 79.6019 194.968 77.7217Z" fill="#44CC88"/>
<path opacity="0.4" d="M131.992 61.0348L129.407 55.1592L131.757 53.9841C131.522 52.5739 131.522 51.1638 131.757 49.7536L129.407 48.5785L131.757 42.7029L134.107 43.4079C135.047 42.2328 135.987 41.2927 137.162 40.3526L136.222 38.0024L142.096 35.4171L143.271 37.7673C144.681 37.5323 146.091 37.5323 147.501 37.7673L148.676 35.4171L154.551 37.7673L153.846 40.1176C155.021 41.0577 155.961 41.9978 156.901 43.1729L159.25 42.2328L161.835 48.1084L159.485 49.2836C159.72 50.6937 159.72 52.1039 159.485 53.514L161.835 54.6892L159.485 60.5648L157.136 59.8597C156.196 61.0348 155.256 61.975 154.081 62.9151L155.021 65.2653L149.146 67.8506L147.971 65.5003C146.561 65.7354 145.151 65.7354 143.741 65.5003L142.566 67.8506L136.692 65.5003L137.397 63.1501C136.222 62.21 135.282 61.2699 134.342 60.0948L131.992 61.0348ZM146.561 57.0394C147.031 57.0394 147.501 56.8044 147.971 56.5694C148.441 56.3343 148.911 56.0993 149.146 55.8643C150.791 54.6892 151.496 52.5739 151.261 50.6937C151.261 50.2237 151.026 49.7536 150.791 49.2836C150.556 48.8135 150.321 48.3435 150.086 48.1084C148.911 46.4633 146.796 45.7582 144.916 45.9932C144.446 45.9932 143.976 46.2282 143.506 46.4633C143.036 46.6983 142.566 46.9333 142.331 47.1684C140.687 48.3435 139.982 50.4587 140.217 52.3389C140.217 52.809 140.452 53.279 140.687 53.7491C140.922 54.2191 141.157 54.6892 141.392 54.9242C142.566 56.5694 144.681 57.2744 146.561 57.0394Z" fill="#46CCCC"/>
<path opacity="0.4" d="M331.025 29.5414C328.91 29.5414 327.03 27.8963 327.03 25.546C327.03 23.1958 328.675 21.5506 331.025 21.5506C333.375 21.5506 335.02 23.1958 335.02 25.546C335.02 27.8963 333.14 29.5414 331.025 29.5414Z" fill="#48CC90"/>
<path opacity="0.4" d="M62.2014 224.143C58.9116 224.143 56.0918 221.322 56.0918 218.032C56.0918 214.741 58.9116 211.921 62.2014 211.921C65.4912 211.921 68.3111 214.741 68.3111 218.032C68.3111 221.322 65.7262 224.143 62.2014 224.143ZM62.2014 214.271C60.0865 214.271 58.4417 215.917 58.4417 218.032C58.4417 220.147 60.0865 221.792 62.2014 221.792C64.3163 221.792 65.9612 220.147 65.9612 218.032C65.9612 215.917 64.3163 214.271 62.2014 214.271Z" fill="#46CCCC"/>
<path opacity="0.4" d="M319.511 39.4125V37.2973H321.626C322.566 37.2973 323.506 36.5922 323.506 35.4171C323.506 34.477 322.801 33.5369 321.626 33.5369H319.511V31.1866C319.511 30.2465 318.806 29.3064 317.631 29.3064C316.692 29.3064 315.752 30.0115 315.752 31.1866V33.5369H313.637C312.697 33.5369 311.757 34.2419 311.757 35.4171C311.757 36.3572 312.462 37.2973 313.637 37.2973H315.752V39.4125C315.752 40.3526 316.457 41.2927 317.631 41.2927C318.571 41.0577 319.511 40.3526 319.511 39.4125Z" fill="#46CCCC"/>
<path opacity="0.4" d="M55.3867 202.285C54.2118 202.285 53.5068 201.345 53.5068 200.405C53.5068 199.23 54.4468 198.525 55.3867 198.525C56.5617 198.525 57.2666 199.465 57.2666 200.405C57.2666 201.58 56.5617 202.285 55.3867 202.285Z" fill="#48CC90"/>
<path d="M517.134 321.208C517.604 328.494 511.965 334.839 504.68 335.31L364.628 343.535L351.704 344.24L343.009 344.711L330.085 345.416L309.406 346.591L292.487 347.531L285.203 348.001L268.284 348.941L133.872 356.697C126.587 357.167 120.243 351.526 119.773 344.24L105.438 98.874L502.565 75.6064L517.134 321.208Z" fill="#F0A744"/>
<path opacity="0.5" d="M327.5 328.494H162.775C156.43 328.494 151.261 323.323 151.261 316.978V133.423C151.261 127.077 156.43 121.906 162.775 121.906H327.5C333.845 121.906 339.015 127.077 339.015 133.423V316.978C339.015 323.323 333.845 328.494 327.5 328.494Z" fill="#D85243"/>
<path d="M502.801 75.8415L105.674 98.874L103.795 67.1455C103.56 64.0902 105.909 61.5049 108.964 61.2699L495.281 38.7074C498.336 38.4724 500.921 40.8227 501.156 43.878L502.801 75.8415Z" fill="#D3D3D3"/>
<path d="M494.36 56.2417L111.749 78.5347L112.46 90.7352L495.071 68.4423L494.36 56.2417Z" fill="#F2F2F2"/>
<path d="M117.466 67.6727L111.132 68.041L111.5 74.3759L117.834 74.0076L117.466 67.6727Z" fill="#F9F4EA"/>
<path d="M128.983 66.961L122.649 67.3305L123.019 73.6654L129.353 73.2959L128.983 66.961Z" fill="#F9F4EA"/>
<path d="M140.26 66.2612L133.926 66.6307L134.295 72.9656L140.629 72.5961L140.26 66.2612Z" fill="#F9F4EA"/>
<path d="M143.036 175.492C140.216 175.492 137.866 173.377 137.631 170.557L135.986 142.354C135.986 140.943 136.456 139.533 137.396 138.593C138.336 137.418 139.746 136.948 141.156 136.713L307.291 127.077C310.111 126.842 312.696 129.192 312.931 132.013L314.576 160.216C314.576 161.626 314.106 163.036 313.166 163.976C312.226 165.151 310.816 165.621 309.406 165.856L143.271 175.492C143.271 175.492 143.271 175.492 143.036 175.492ZM307.526 129.662L141.391 139.298C140.686 139.298 139.981 139.768 139.511 140.238C139.041 140.708 138.806 141.414 138.806 142.119L140.451 170.322C140.451 171.732 141.861 172.907 143.271 172.907L309.406 163.271C310.111 163.271 310.816 162.801 311.286 162.331C311.756 161.861 311.991 161.156 311.991 160.451L310.346 132.248C310.111 130.837 308.936 129.662 307.526 129.662Z" fill="#BBCEFF"/>
<path d="M145.857 223.202C143.037 223.202 140.687 221.087 140.452 218.267L138.807 190.064C138.572 187.008 140.922 184.658 143.742 184.423L309.877 174.787C312.697 174.552 315.282 176.902 315.517 179.723L317.162 207.926C317.397 210.981 315.047 213.331 312.227 213.566L146.092 223.202C146.092 223.202 146.092 223.202 145.857 223.202ZM310.347 177.372C310.347 177.372 310.112 177.372 310.347 177.372L144.212 187.008C142.802 187.008 141.627 188.419 141.627 189.829L143.272 218.032C143.272 219.442 144.682 220.617 146.092 220.617L312.227 210.981C313.637 210.981 314.812 209.571 314.812 208.161L313.167 179.958C312.932 178.548 311.757 177.372 310.347 177.372Z" fill="#BBCEFF"/>
<path d="M301.887 208.631L135.517 205.811C133.167 205.811 131.522 203.93 131.522 201.58L131.992 173.377C131.992 171.027 133.872 169.382 136.222 169.382L302.592 172.202C304.942 172.202 306.587 174.082 306.587 176.432L306.117 204.635C306.117 206.986 304.237 208.631 301.887 208.631Z" fill="#F6F3FF"/>
<path d="M148.677 270.913C147.267 270.913 146.092 270.442 145.152 269.502C143.977 268.562 143.507 267.152 143.272 265.742L141.627 237.539C141.627 236.129 142.097 234.719 143.037 233.779C143.977 232.603 145.387 232.133 146.797 231.898L312.932 222.262C315.752 222.027 318.337 224.377 318.572 227.198L320.216 255.401C320.451 258.456 318.102 260.806 315.282 261.041L149.147 270.677C148.912 270.912 148.677 270.913 148.677 270.913ZM313.167 225.083C313.167 225.083 312.932 225.083 313.167 225.083L147.032 234.719C146.327 234.719 145.622 235.189 145.152 235.659C144.682 236.129 144.447 236.834 144.447 237.539L146.092 265.742C146.092 267.152 147.502 268.327 148.912 268.327L315.047 258.691C316.457 258.691 317.632 257.281 317.632 255.871L315.987 227.668C315.752 226.258 314.577 225.083 313.167 225.083Z" fill="#BBCEFF"/>
<path opacity="0.4" d="M537.578 251.875L381.547 242.945C376.848 242.71 373.323 238.714 373.558 234.014L385.307 28.8364C385.542 24.1359 389.537 20.6105 394.237 20.8455L550.268 29.7765C554.967 30.0115 558.492 34.0069 558.257 38.7074L546.508 243.885C546.273 248.585 542.278 252.111 537.578 251.875Z" fill="#46CCCC"/>
<path d="M151.496 318.623C150.086 318.623 148.911 318.153 147.971 317.213C146.796 316.273 146.326 314.862 146.091 313.452L144.446 285.249C144.446 283.839 144.916 282.429 145.856 281.489C146.796 280.314 148.206 279.844 149.616 279.609L315.751 269.972C317.161 269.972 318.571 270.443 319.511 271.383C320.686 272.323 321.156 273.733 321.391 275.143L323.036 303.346C323.271 306.401 320.921 308.752 318.101 308.987L151.966 318.623C151.731 318.623 151.496 318.623 151.496 318.623ZM315.986 272.793C315.751 272.793 315.751 272.793 315.986 272.793L149.851 282.429C149.146 282.429 148.441 282.899 147.971 283.369C147.501 283.839 147.266 284.544 147.266 285.249L148.911 313.452C148.911 314.862 150.321 316.037 151.731 316.037L317.866 306.401C319.276 306.401 320.451 304.991 320.451 303.581L318.806 275.378C318.806 274.673 318.336 273.968 317.866 273.498C317.161 273.028 316.456 272.793 315.986 272.793Z" fill="#BBCEFF"/>
<g opacity="0.6">
<path opacity="0.6" d="M210.762 177.011L140.743 175.872L140.674 180.102L210.693 181.241L210.762 177.011Z" fill="#7BCAFF"/>
<path opacity="0.6" d="M210.763 184.299L140.744 183.16L140.675 187.39L210.694 188.529L210.763 184.299Z" fill="#7BCAFF"/>
<path opacity="0.6" d="M171.52 191.031L140.505 190.526L140.436 194.756L171.451 195.261L171.52 191.031Z" fill="#7BCAFF"/>
</g>
<path opacity="0.6" d="M271.985 178.008L252.953 177.698L252.643 196.733L271.675 197.043L271.985 178.008Z" fill="#7BCAFF"/>
<path opacity="0.6" d="M294.073 178.479L275.041 178.168L274.731 197.204L293.763 197.514L294.073 178.479Z" fill="#7BCAFF"/>
<path d="M500.225 184.932L499.339 291.399L501.924 291.42L502.81 184.954L500.225 184.932Z" fill="#44CC88"/>
<path d="M383.563 254.705L383.266 290.429L385.85 290.45L386.148 254.727L383.563 254.705Z" fill="#EDF4FC"/>
<path d="M441.993 215.773L441.367 290.746L443.952 290.767L444.578 215.794L441.993 215.773Z" fill="#EDF4FC"/>
<path d="M501.156 266.447C500.921 266.447 500.921 266.447 501.156 266.447C485.412 266.212 477.892 249.055 470.608 232.603C463.323 216.152 456.508 200.64 442.879 200.405C442.879 200.405 442.879 200.405 442.644 200.405C429.015 200.405 421.965 215.917 414.446 232.133C406.926 248.585 399.172 265.507 383.663 265.507C383.663 265.507 383.663 265.507 383.428 265.507V262.687C383.428 262.687 383.428 262.687 383.663 262.687C397.292 262.687 404.342 247.175 411.861 230.958C419.381 214.506 427.135 197.585 442.644 197.585C442.644 197.585 442.644 197.585 442.879 197.585C458.388 197.82 465.908 214.976 473.192 231.428C480.477 247.88 487.292 263.392 500.921 263.627C500.921 263.627 500.921 263.627 501.156 263.627C514.785 263.627 521.835 248.115 529.354 231.898C536.874 215.446 544.628 198.525 560.137 198.525C560.137 198.525 560.137 198.525 560.372 198.525V201.345C560.372 201.345 560.372 201.345 560.137 201.345C546.508 201.345 539.458 216.857 531.939 233.073C524.419 249.525 516.43 266.447 501.156 266.447Z" fill="#FFC550"/>
<path d="M488.329 183.193L488.981 171.695L466.224 170.403L465.572 181.901L488.329 183.193Z" fill="#A6EDC8"/>
<path d="M447.905 180.724L448.558 169.226L425.8 167.933L425.148 179.431L447.905 180.724Z" fill="#A6EDC8"/>
<path d="M407.233 178.476L407.886 166.978L385.129 165.685L384.476 177.183L407.233 178.476Z" fill="#A6EDC8"/>
<path opacity="0.5" d="M232.099 238.782L161.488 242.895L161.816 248.526L232.427 244.413L232.099 238.782Z" fill="#7BCAFF"/>
<path opacity="0.5" d="M209.802 250.018L162.181 252.794L162.509 258.425L210.13 255.649L209.802 250.018Z" fill="#7BCAFF"/>
<path opacity="0.5" d="M227.213 248.941L215.249 249.637L215.576 255.268L227.54 254.572L227.213 248.941Z" fill="#7BCAFF"/>
<path opacity="0.5" d="M226.698 144.532L156.087 148.646L156.415 154.277L227.025 150.163L226.698 144.532Z" fill="#7BCAFF"/>
<path opacity="0.5" d="M198.767 156.17L156.776 158.617L157.104 164.248L199.095 161.801L198.767 156.17Z" fill="#7BCAFF"/>
<path opacity="0.5" d="M248.818 153.279L204.246 155.875L204.574 161.506L249.145 158.91L248.818 153.279Z" fill="#7BCAFF"/>
<path opacity="0.5" d="M192.432 289.137L164.281 290.776L164.609 296.407L192.759 294.768L192.432 289.137Z" fill="#7BCAFF"/>
<path opacity="0.5" d="M226.024 287.015L197.874 288.654L198.202 294.285L226.352 292.646L226.024 287.015Z" fill="#7BCAFF"/>
<path opacity="0.5" d="M212.621 297.725L165 300.502L165.328 306.133L212.949 303.356L212.621 297.725Z" fill="#7BCAFF"/>
<path opacity="0.5" d="M265.023 294.691L218.105 297.424L218.433 303.055L265.351 300.322L265.023 294.691Z" fill="#7BCAFF"/>
<path opacity="0.4" d="M204.368 161.391C192.854 151.05 177.814 145.879 162.305 146.819C146.796 147.759 132.462 154.575 122.123 166.326C116.953 172.202 113.193 178.783 110.843 185.598C108.259 192.884 107.084 200.64 107.554 208.396C108.024 216.152 109.903 223.672 113.428 230.723C115.778 235.659 119.068 240.359 122.828 244.59L117.423 250.7L116.248 249.525L114.603 251.17L115.778 273.028L127.057 259.161L125.882 257.986L131.287 251.875C142.567 260.101 155.961 263.627 168.885 262.922C183.689 261.982 198.258 255.401 209.068 243.415C219.407 231.663 224.577 216.857 223.637 201.345C222.932 185.833 215.882 171.732 204.368 161.391ZM197.553 233.308C181.809 250.935 154.786 252.581 137.162 236.834C119.538 221.087 117.893 194.059 133.637 176.432C141.157 167.971 151.731 162.801 163.01 162.096C174.525 161.391 185.334 165.386 194.028 172.907C202.488 180.428 207.658 191.004 208.363 202.285C209.068 213.801 205.073 224.848 197.553 233.308Z" fill="#375E82"/>
<path d="M83.9669 227.415L92.3926 234.915L106.14 219.465L97.7142 211.966L83.9669 227.415Z" fill="#38464C"/>
<path d="M43.1675 281.724C47.3973 285.484 53.9769 285.014 57.5017 280.549L96.7444 232.368L85.7 222.497L42.4626 267.152C38.7028 271.383 38.9378 277.963 43.1675 281.724Z" fill="#676772"/>
<path opacity="0.6" d="M84.9951 181.133C86.64 209.101 110.609 230.253 138.337 228.608C150.321 227.903 161.131 222.967 169.355 215.682C172.175 213.096 174.995 210.041 177.11 206.751C178.52 204.87 179.694 202.755 180.869 200.405C184.159 194.059 185.804 186.773 186.039 179.018C186.039 177.607 186.039 176.432 186.039 175.022C184.394 147.054 160.426 125.902 132.697 127.547C131.287 127.547 130.112 127.782 128.702 128.017C121.183 128.957 114.133 131.778 108.259 135.538C106.144 136.948 104.264 138.358 102.384 140.003C99.3292 142.589 96.7444 145.644 94.3945 148.699C87.8149 157.865 84.2901 169.147 84.9951 181.133Z" fill="#BDE5F2"/>
<path opacity="0.3" d="M108.023 135.538L180.869 200.405C184.159 194.059 185.804 186.773 186.039 179.018L128.467 128.017C120.948 128.957 114.133 131.778 108.023 135.538Z" fill="#E3FBFF"/>
<path opacity="0.3" d="M94.3945 148.699L169.355 215.447C172.175 212.861 174.995 209.806 177.11 206.516L102.384 140.003C99.3292 142.589 96.7444 145.409 94.3945 148.699Z" fill="#E3FBFF"/>
<path d="M135.518 236.364C121.653 236.364 107.789 231.428 96.7449 221.557C72.7763 200.17 70.6614 163.271 92.0452 139.298C102.385 127.782 116.719 120.731 132.228 119.791C147.737 118.851 162.776 124.022 174.29 134.363C185.805 144.704 192.854 159.04 193.794 174.552C194.734 190.064 189.564 205.105 179.225 216.622C167.476 229.783 151.497 236.364 135.518 236.364ZM135.518 135.303C134.578 135.303 133.873 135.303 132.933 135.303C121.418 136.008 111.079 140.943 103.559 149.639C96.0399 158.1 92.0451 169.147 92.7501 180.663C93.455 192.179 98.3898 202.52 107.084 210.041C124.708 225.788 151.732 224.142 167.476 206.516C174.995 198.055 178.99 187.008 178.285 175.492C177.58 163.976 172.645 153.635 163.951 146.114C155.961 139.063 146.092 135.303 135.518 135.303Z" fill="#375E82"/>
<path d="M456.743 155.045C476.952 164.446 501.626 161.626 519.249 145.879C527.709 138.358 533.584 128.722 536.404 118.381L508.91 110.625C505.385 123.552 493.166 132.483 479.537 131.777C475.777 131.542 472.252 130.602 468.962 129.192L456.743 155.045Z" fill="#FFC550"/>
<path d="M437.944 141.179C438.414 141.649 438.884 142.119 439.354 142.589L460.033 122.847C454.628 117.206 451.573 109.685 452.043 101.224C452.983 85.2425 466.612 73.2562 482.591 73.9612C493.871 74.6663 503.27 81.7171 507.5 91.5881L533.818 80.3069C531.468 74.6663 528.179 69.2607 523.714 64.5602C502.565 40.8227 466.142 38.7074 442.409 59.8597C418.91 81.012 416.795 117.441 437.944 141.179Z" fill="#EDF4FC"/>
<path d="M509.849 104.515C509.614 106.63 509.379 108.745 508.909 110.625L536.403 118.381C539.927 105.925 539.223 92.5283 534.053 80.542L507.734 91.8232C509.144 95.5836 510.084 100.049 509.849 104.515Z" fill="#44CC88"/>
<path d="M439.354 142.589C444.523 147.994 450.398 151.99 456.743 155.045L468.962 128.957C465.672 127.547 462.852 125.197 460.267 122.612L439.354 142.589Z" fill="#D1D9FE"/>
<path d="M398.702 63.1501C402.462 61.975 406.692 62.9151 409.512 65.9704C410.921 67.3805 411.626 69.2607 411.861 71.1409L406.927 71.846C406.457 69.4958 404.577 67.6156 402.227 67.6156C401.522 67.6156 400.817 67.6156 400.347 67.8506L398.702 63.1501Z" fill="#EDF4FC"/>
<path d="M395.177 65.2653L395.412 65.0303L398.702 68.7907C397.762 69.7308 397.057 70.9059 396.822 72.3161C396.587 75.1364 398.702 77.4866 401.521 77.7217C403.401 77.7217 405.281 76.7816 406.221 75.1364L410.686 77.7217C410.216 78.6618 409.511 79.6019 408.571 80.3069C404.341 84.0674 397.997 83.5973 394.237 79.6019C390.712 75.3714 390.947 68.7907 395.177 65.2653Z" fill="#FFC550"/>
<path d="M406.927 73.0212C406.927 72.5511 406.927 72.3161 406.927 71.846L411.861 71.141C412.331 73.4912 411.861 75.6064 410.686 77.7217L406.222 75.1364C406.692 74.6663 406.927 73.7262 406.927 73.0212Z" fill="#FFC550"/>
<path d="M395.412 65.0303C396.352 64.0902 397.527 63.6202 398.702 63.1501L400.347 67.8506C399.642 68.0856 399.172 68.3207 398.702 68.7907L395.412 65.0303Z" fill="#44CC88"/>
<path d="M407.396 138.358C405.751 141.884 401.991 144.234 397.761 143.999C395.646 143.999 394.001 143.294 392.356 142.119L395.411 138.123C397.291 139.533 399.876 139.298 401.756 137.888C402.226 137.418 402.696 136.948 402.931 136.478L407.396 138.358Z" fill="#44CC88"/>
<path d="M408.571 134.363V134.598L403.636 134.128C403.871 132.718 403.401 131.307 402.461 130.367C400.581 128.252 397.291 128.017 395.411 129.897C394.001 131.307 393.296 133.188 394.001 135.068L389.067 136.478C388.832 135.538 388.597 134.363 388.832 133.188C389.067 127.547 394.001 123.317 399.406 123.552C404.576 124.022 408.806 128.722 408.571 134.363Z" fill="#D1D9FE"/>
<path d="M394.706 137.183C394.941 137.418 395.176 137.653 395.411 137.888L392.356 141.884C390.477 140.473 389.067 138.593 388.597 136.478L393.531 135.068C393.766 136.008 394.001 136.478 394.706 137.183Z" fill="#EDF4FC"/>
<path d="M408.571 134.833C408.571 136.008 408.101 137.418 407.631 138.358L403.166 136.008C403.401 135.538 403.636 134.833 403.636 134.128L408.571 134.833Z" fill="#FFC550"/>
<path d="M395.646 112.27C392.121 110.625 389.771 106.865 390.006 102.634C390.006 100.519 390.711 98.874 391.886 97.2288L395.881 100.284C394.471 102.164 394.706 104.75 396.116 106.63C396.586 107.1 397.056 107.57 397.526 107.805L395.646 112.27Z" fill="#D1D9FE"/>
<path d="M399.641 113.446H399.406L399.876 108.51C401.286 108.745 402.696 108.275 403.636 107.335C405.751 105.455 405.986 102.164 404.106 100.284C402.696 98.874 400.816 98.1689 398.936 98.874L397.526 93.9385C398.466 93.7034 399.641 93.4684 400.816 93.7034C406.456 93.9385 410.686 98.874 410.451 104.28C409.981 109.45 405.046 113.681 399.641 113.446Z" fill="#44CC88"/>
<path d="M396.821 99.579C396.586 99.8141 396.351 100.049 396.116 100.284L392.121 97.2288C393.531 95.3486 395.411 93.9384 397.526 93.4684L398.936 98.4039C397.996 98.6389 397.291 98.874 396.821 99.579Z" fill="#FFC550"/>
<path d="M399.17 113.211C397.995 113.211 396.585 112.74 395.646 112.27L397.995 107.805C398.465 108.04 399.17 108.275 399.875 108.275L399.17 113.211Z" fill="#EDF4FC"/>
<path opacity="0.5" d="M495.046 327.084L480.007 364.218C479.302 366.333 476.952 367.273 474.837 366.333L424.08 345.886C421.965 345.181 421.025 342.83 421.965 340.715L437.004 303.581C437.709 301.466 440.059 300.526 442.174 301.466L492.931 321.913C494.811 322.853 495.751 325.203 495.046 327.084Z" fill="#ABB2B7"/>
<path opacity="0.5" d="M497.63 322.853L484.706 360.692C484.001 362.807 481.886 363.748 479.771 363.043L428.074 345.181C425.96 344.476 425.02 342.36 425.725 340.245L438.649 302.406C439.354 300.291 441.469 299.351 443.584 300.056L495.281 317.918C497.16 318.623 498.335 320.738 497.63 322.853Z" fill="#CAD3DB"/>
<path d="M501.625 316.978L491.051 355.522C490.581 357.637 488.231 358.812 486.351 358.342L433.479 344.005C431.364 343.535 430.19 341.185 430.66 339.305L441.234 300.761C441.704 298.646 444.054 297.47 445.934 297.94L498.805 312.277C500.92 312.747 502.095 314.862 501.625 316.978Z" fill="#EDF4FC"/>
<path d="M501.625 316.978L499.275 325.438L438.884 308.987L441.234 300.526C441.704 298.411 444.053 297.235 445.933 297.705L498.805 312.042C500.92 312.747 502.095 314.862 501.625 316.978Z" fill="#44CC88"/>
<path d="M499.319 325.491L439.02 309.024L438.277 311.745L498.577 328.212L499.319 325.491Z" fill="white"/>
<path d="M459.563 306.401C458.858 308.987 456.274 310.397 453.924 309.692C451.339 308.987 449.929 306.401 450.634 304.051C451.339 301.466 453.924 300.056 456.274 300.761C458.858 301.466 460.268 304.051 459.563 306.401Z" fill="#32A066"/>
<path d="M491.756 315.332C491.051 317.918 488.466 319.328 486.116 318.623C483.531 317.918 482.121 315.332 482.826 312.982C483.531 310.397 486.116 308.987 488.466 309.692C491.051 310.162 492.461 312.747 491.756 315.332Z" fill="#32A066"/>
<path d="M455.098 308.517C454.863 308.517 454.628 308.517 454.158 308.517C452.513 308.047 451.339 306.401 451.809 304.521L453.688 297.94C454.158 296.295 456.038 295.12 457.683 295.59C459.328 296.06 460.503 297.705 460.033 299.586L458.153 306.166C457.918 307.577 456.508 308.517 455.098 308.517Z" fill="#FFC550"/>
<path d="M487.292 317.213C487.057 317.213 486.822 317.213 486.352 317.213C484.707 316.743 483.532 315.097 484.002 313.217L485.882 306.401C486.352 304.756 487.997 303.581 489.877 304.051C491.521 304.521 492.696 306.166 492.226 308.047L490.347 314.862C489.877 316.272 488.702 317.213 487.292 317.213Z" fill="#FFC550"/>
<path d="M449.571 320.204L443.677 318.594L442.315 323.582L448.209 325.192L449.571 320.204Z" fill="#72EDAD"/>
<path d="M490.253 331.288L484.359 329.678L482.997 334.666L488.891 336.276L490.253 331.288Z" fill="#72EDAD"/>
<path d="M480.137 328.465L474.243 326.855L472.881 331.843L478.775 333.453L480.137 328.465Z" fill="#72EDAD"/>
<path d="M470.044 325.656L464.15 324.047L462.789 329.035L468.683 330.644L470.044 325.656Z" fill="#72EDAD"/>
<path d="M459.89 323.074L453.996 321.465L452.634 326.453L458.528 328.062L459.89 323.074Z" fill="#72EDAD"/>
<path d="M447.483 328.225L441.589 326.615L440.227 331.603L446.121 333.213L447.483 328.225Z" fill="#72EDAD"/>
<path d="M488.081 339.521L482.187 337.912L480.825 342.9L486.719 344.509L488.081 339.521Z" fill="#72EDAD"/>
<path d="M477.988 336.713L472.094 335.103L470.732 340.091L476.626 341.701L477.988 336.713Z" fill="#72EDAD"/>
<path d="M467.691 333.857L461.797 332.247L460.435 337.235L466.329 338.845L467.691 333.857Z" fill="#72EDAD"/>
<path d="M457.576 331.034L451.682 329.424L450.32 334.412L456.214 336.022L457.576 331.034Z" fill="#72EDAD"/>
<path d="M445.355 336.487L439.461 334.877L438.099 339.865L443.993 341.475L445.355 336.487Z" fill="#72EDAD"/>
<path d="M485.766 347.481L479.872 345.871L478.51 350.859L484.404 352.469L485.766 347.481Z" fill="#72EDAD"/>
<path d="M475.69 344.694L469.796 343.084L468.434 348.072L474.328 349.682L475.69 344.694Z" fill="#72EDAD"/>
<path d="M465.58 341.863L459.687 340.254L458.325 345.242L464.219 346.851L465.58 341.863Z" fill="#72EDAD"/>
<path d="M455.425 339.282L449.531 337.672L448.17 342.66L454.064 344.27L455.425 339.282Z" fill="#72EDAD"/>
<path d="M78.8855 303.581L83.5852 328.259C84.0552 330.374 85.9351 331.549 88.0499 331.314L139.512 321.208C141.627 320.738 142.802 318.858 142.567 316.742L137.867 292.065C137.397 289.95 135.517 288.774 133.402 289.009L81.9403 299.116C79.8254 299.586 78.4155 301.701 78.8855 303.581Z" fill="#FFC550"/>
<path d="M78.8855 303.581L79.1205 304.991L107.319 315.802C110.374 316.978 113.663 316.272 116.013 314.157L138.102 293.475L137.867 292.065C137.397 289.95 135.517 288.774 133.402 289.009L81.9403 299.116C79.8254 299.586 78.4155 301.701 78.8855 303.581Z" fill="#FFE1AB"/>
<path d="M76.7704 332.489C77.7103 337.66 82.645 340.95 87.8147 340.01C92.9844 339.07 96.2742 334.134 95.3343 328.964C94.3944 323.793 89.4596 320.503 84.2899 321.443C79.1202 322.383 75.8304 327.319 76.7704 332.489Z" fill="#44CC88"/>
<path d="M210.948 370.798L195.673 386.075L180.399 370.798C171.94 362.337 171.94 348.471 180.399 340.01C188.859 331.549 202.723 331.549 211.182 340.01C219.407 348.471 219.407 362.337 210.948 370.798Z" fill="#44CC88"/>
<path d="M200.844 360.692C198.024 363.513 193.324 363.513 190.269 360.692C187.449 357.872 187.449 353.171 190.269 350.116C193.089 347.296 197.789 347.296 200.844 350.116C203.898 353.171 203.898 357.872 200.844 360.692Z" fill="#2AA866"/>
<g opacity="0.4">
<path opacity="0.4" d="M330.791 188.654C330.791 186.773 330.086 184.188 328.441 181.133C324.211 171.967 314.812 158.57 308.702 150.11C308.467 149.874 308.232 149.639 307.997 149.404C307.292 147.994 305.882 147.289 304.238 147.289H293.428C293.898 144.469 293.898 141.414 293.663 139.063C296.953 137.183 299.773 134.598 301.653 131.072C302.593 131.307 303.298 131.307 304.238 130.602C305.647 129.427 306.587 127.547 306.587 125.432C306.587 124.022 306.117 122.847 305.412 121.671C305.882 120.496 305.883 119.321 306.118 118.146C306.352 113.916 306.117 109.215 300.713 107.1C302.828 103.81 294.603 96.7587 287.789 99.109C272.044 104.515 271.81 98.6389 271.81 98.6389C264.995 100.754 264.29 106.865 267.345 109.685C265.465 112.035 265.465 115.091 265.7 117.911C265.7 118.381 265.935 119.086 265.935 120.026C265.935 120.731 265.7 121.436 265.7 122.141C265.7 131.542 272.514 139.298 281.679 140.708C281.679 143.059 281.679 145.409 281.209 147.054H268.99C267.58 147.054 266.405 147.759 265.7 148.699C265.23 148.934 264.76 149.404 264.525 149.639C257.945 157.63 242.436 176.667 241.261 183.483C240.321 188.654 246.431 201.815 252.306 213.331C251.836 213.801 251.131 214.271 250.661 214.271C248.076 215.212 246.666 218.032 247.606 220.617C248.311 222.732 250.191 223.907 252.306 223.907C252.776 223.907 253.481 223.907 253.951 223.672C255.83 222.967 257.475 222.027 258.885 220.852C258.65 225.318 258.65 227.903 258.65 227.903C258.65 227.903 258.18 241.299 259.12 254.931C259.355 260.336 261 301.231 263.35 316.978C264.525 324.028 266.405 336.25 268.05 348.236L284.969 347.296C283.089 335.074 280.974 321.678 280.034 314.392C277.919 300.526 276.274 263.627 275.804 255.401H283.324C283.559 262.217 285.439 301.701 287.554 316.978C288.493 323.558 290.373 335.31 292.253 346.826L309.172 345.886C307.292 333.899 305.412 321.443 304.238 314.392C301.888 298.881 300.008 254.226 300.008 253.756C300.008 253.521 300.008 253.286 300.008 252.816C301.418 248.82 303.063 240.594 300.948 227.668C300.713 225.788 300.713 223.672 300.713 221.322C302.123 222.262 303.768 223.437 305.412 223.907C305.882 224.143 306.587 224.143 307.057 224.143C309.172 224.143 311.052 222.732 311.757 220.852C312.697 218.267 311.287 215.447 308.702 214.506H308.467C311.287 211.921 313.637 209.571 315.987 207.456C330.556 194.059 330.791 190.064 330.791 188.654ZM260.06 205.811C255.83 197.115 251.836 188.184 251.601 185.598C252.306 183.248 257.005 176.432 262.645 168.912C261.47 180.193 260.53 194.294 260.06 205.811ZM301.653 208.396C302.593 194.294 304.708 177.372 306.587 164.681C313.637 174.787 319.747 184.893 320.452 188.184C319.042 191.239 310.347 200.17 301.653 208.396Z" fill="#375E82"/>
<path opacity="0.4" d="M381.313 241.534C380.843 241.299 379.668 240.829 378.493 240.124C382.253 234.484 388.832 221.792 386.952 207.221C385.777 196.88 369.563 178.783 367.683 176.667C366.978 175.727 365.804 175.492 364.864 175.492C364.394 175.257 363.924 175.257 363.454 175.257H350.059C350.059 173.377 350.059 171.732 350.294 170.087C360.634 169.617 368.858 161.391 368.858 151.05C368.858 151.05 374.263 136.008 354.759 129.192C354.054 128.957 353.349 128.722 352.644 128.487C352.174 127.077 351.234 125.667 349.355 124.022C341.835 117.206 327.736 121.201 324.681 131.307C321.861 140.708 325.386 144.234 328.911 150.58C327.971 151.755 327.501 152.93 327.501 154.575C327.501 156.455 328.441 158.1 329.616 159.276C329.851 159.511 330.086 159.511 330.086 159.511C329.146 164.916 325.856 170.087 325.856 170.087C325.856 170.087 331.966 169.617 337.84 166.326C339.485 167.501 341.13 168.441 343.01 169.147C342.775 170.792 342.775 172.907 342.775 175.492H334.785C333.61 175.492 332.67 175.962 331.966 176.667L331.731 176.902C331.731 176.902 331.731 176.902 331.496 177.137C331.496 177.137 331.496 177.372 331.261 177.372C331.026 177.843 329.851 179.488 328.441 181.603C324.446 187.949 317.161 199.7 316.221 207.221C316.221 207.691 316.221 208.161 315.986 208.866C315.046 223.202 325.621 235.424 331.496 241.064C330.791 241.534 330.086 241.769 329.616 242.004C327.736 242.71 326.796 244.825 327.501 246.705C327.971 248.115 329.381 249.055 331.026 249.055C331.496 249.055 331.965 249.055 332.435 248.82C332.67 248.82 332.905 248.585 333.61 248.35C329.381 268.562 336.195 300.056 336.195 300.056H336.9C336.43 307.106 335.96 313.452 335.49 317.683C334.55 324.028 332.2 335.074 329.851 345.886L342.775 345.181C344.89 335.075 346.77 325.438 347.71 319.563C348.415 314.862 348.885 307.812 349.355 300.056H357.344C356.874 307.106 356.169 313.452 355.464 317.683C354.524 323.793 352.879 334.134 351.234 344.711L364.159 344.005C365.569 334.369 366.978 325.203 367.918 319.563C368.623 314.862 369.328 307.812 369.798 300.056H370.973C372.148 294.65 373.323 262.922 373.793 246.705C375.908 247.88 378.023 248.82 378.258 248.82C378.728 249.055 379.198 249.055 379.668 249.055C381.078 249.055 382.488 248.115 383.192 246.705C384.132 244.355 383.193 242.239 381.313 241.534ZM338.075 236.364C333.375 232.133 322.096 220.382 323.741 207.691C324.211 202.99 328.441 195.469 332.2 189.124C335.255 204.4 339.015 222.027 338.075 236.364ZM370.033 191.004C374.733 197.35 379.198 204.165 379.668 207.926C380.843 218.032 377.318 227.198 374.028 232.838C373.558 224.848 372.148 205.576 370.033 191.004Z" fill="#375E82"/>
</g>
<path d="M229.981 412.163H386.952C389.067 412.163 390.712 410.518 390.712 408.402C390.712 406.287 389.067 404.642 386.952 404.642H229.981C227.867 404.642 226.222 406.287 226.222 408.402C226.222 410.518 227.867 412.163 229.981 412.163Z" fill="#E2E2E2"/>
<path d="M298.127 397.826L296.247 382.315L288.963 381.374L292.488 397.591L298.127 397.826Z" fill="#D6DDEA"/>
<path d="M291.078 395.476C290.608 395.476 290.138 395.711 289.903 395.946C287.318 398.061 284.498 400.647 280.034 401.822C276.039 402.997 277.684 404.877 281.678 404.877C287.553 404.877 289.903 404.642 292.488 404.642C295.073 404.642 293.428 404.877 299.772 404.877C302.827 404.877 301.652 399.001 300.242 395.711C299.772 394.771 299.068 394.301 297.893 394.536L291.078 395.476Z" fill="#44CC88"/>
<path d="M267.109 397.826L264.995 382.315L257.71 381.374L261.235 397.591L267.109 397.826Z" fill="#D6DDEA"/>
<path d="M259.825 395.476C259.355 395.476 258.885 395.711 258.65 395.946C256.065 398.061 248.546 401.822 244.551 402.292C240.321 402.997 240.086 404.877 245.961 404.877C251.836 404.877 256.065 404.407 258.885 404.407C261.47 404.407 260.765 404.877 267.345 404.877C272.28 404.877 270.635 398.531 268.99 395.711C268.52 394.771 267.815 394.301 266.64 394.536L259.825 395.476Z" fill="#44CC88"/>
<path d="M258.65 89.0029C262.879 88.2978 271.104 96.9938 260.999 109.92C253.715 119.086 249.955 107.335 249.485 102.164C249.25 96.7587 249.72 90.6481 258.65 89.0029Z" fill="#31AF6D"/>
<path d="M256.3 137.418C253.95 135.303 250.425 135.773 248.31 138.123C240.791 147.054 223.402 168.676 221.992 176.197C220.817 182.543 229.982 199.7 237.971 213.096L245.021 208.866C235.856 195.704 235.386 183.718 233.271 178.078C234.681 173.847 247.136 160.216 257.71 147.524C259.825 145.174 258.65 139.298 256.3 137.418Z" fill="#557FAF"/>
<path d="M233.741 222.967C231.157 222.027 229.747 220.617 228.807 218.502C226.222 211.921 230.217 213.801 233.272 212.861C234.681 212.391 236.796 208.866 237.736 207.926C239.851 205.576 242.906 205.105 245.256 206.986C247.606 209.101 247.136 212.156 245.961 214.977C245.256 216.622 244.081 220.147 239.616 222.497C237.266 223.437 236.091 223.672 233.741 222.967Z" fill="#FFAF84"/>
<path d="M281.208 128.722C281.208 133.658 280.503 139.533 277.919 143.764C274.394 149.169 273.689 150.345 273.689 150.58C272.514 152.695 270.164 153.87 267.814 153.87C266.639 153.87 265.464 153.635 264.289 152.93C261.235 151.05 260.06 147.054 261.94 143.764C261.94 143.764 262.409 142.824 266.404 136.713C267.109 135.773 267.344 133.658 267.579 131.542C267.814 128.487 267.579 124.962 267.344 122.612C266.874 118.851 269.224 115.561 272.984 115.091C276.744 114.621 280.033 116.971 280.503 120.731C280.738 121.671 281.208 124.962 281.208 128.722Z" fill="#FFAF84"/>
<path d="M297.658 140.708C294.368 159.746 287.788 207.456 289.198 226.728H241.496C241.496 226.728 244.316 155.985 249.016 138.593C249.486 136.478 251.365 135.068 253.48 135.068H292.958C295.778 135.068 298.128 137.653 297.658 140.708Z" fill="#557FAF"/>
<path d="M287.083 257.751C287.083 257.751 292.958 247.175 289.198 226.728H241.496C241.496 226.728 240.791 242.239 241.966 257.751H287.083Z" fill="#2E2947"/>
<path d="M292.487 324.498C289.902 307.106 290.607 254.931 289.432 249.055C288.492 243.885 280.503 244.12 275.098 244.355C269.929 244.59 264.994 251.64 265.229 256.811C265.229 258.926 271.573 308.752 274.393 327.319C276.508 340.715 285.203 375.734 288.492 391.246L300.477 389.835C298.127 374.324 294.367 337.895 292.487 324.498Z" fill="#2E2947"/>
<path d="M265.699 324.498C264.289 306.636 263.584 255.871 263.584 255.401C263.349 250.23 256.3 246.705 251.13 246.94C245.96 247.175 241.73 251.64 241.965 256.811C241.965 258.926 244.08 308.752 246.9 327.319C249.015 340.715 253.715 376.909 257.71 392.656L268.519 391.246C265.934 375.499 266.639 337.895 265.699 324.498Z" fill="#2E2947"/>
<path d="M297.893 138.358C296.013 135.773 292.488 135.303 289.903 137.183C287.318 139.063 286.613 143.999 288.493 146.584C298.598 160.451 309.172 176.902 310.347 181.603C300.243 189.829 304.942 195.234 285.438 208.396L290.373 214.742C318.102 191.474 322.331 183.718 322.331 181.603C322.801 173.847 307.057 151.05 297.893 138.358Z" fill="#557FAF"/>
<path d="M281.209 128.722C278.154 130.602 274.394 131.542 270.4 131.542C269.46 131.542 268.52 131.542 267.58 131.307C267.815 128.252 267.58 124.727 267.345 122.377C266.875 118.616 269.225 115.326 272.984 114.856C276.744 114.386 280.034 116.736 280.504 120.496C280.739 121.671 281.209 124.962 281.209 128.722Z" fill="#ED8C62"/>
<path d="M250.66 107.335C250.66 119.086 259.355 129.192 271.104 129.192C281.208 129.192 292.488 118.851 292.488 107.1C292.488 95.3486 282.853 85.7125 271.104 85.7125C259.355 85.4775 250.66 95.5836 250.66 107.335Z" fill="#FFAF84"/>
<path d="M295.308 222.732C293.898 222.732 292.488 222.262 290.843 221.087C288.258 219.442 286.378 218.032 284.733 215.447C282.853 212.861 283.323 209.571 285.673 207.691C288.023 205.575 291.548 206.046 293.663 208.396C294.603 209.571 296.248 212.156 297.892 212.626C302.357 213.801 304.237 215.212 302.592 217.797C300.947 219.912 297.657 222.732 295.308 222.732Z" fill="#FFAF84"/>
<path d="M285.909 89.0029C281.679 88.2978 272.514 98.4039 284.969 109.215C291.783 115.091 294.603 107.335 294.838 102.164C295.543 96.7587 295.073 90.6481 285.909 89.0029Z" fill="#44CC88"/>
<path d="M274.394 81.012C282.618 78.1917 292.723 87.1227 288.493 90.6481C286.613 92.0582 286.613 91.8232 281.913 93.2334C277.214 94.6435 257.475 96.0537 252.775 93.7034C248.075 91.3531 247.84 82.8922 256.535 80.3069C256.535 80.3069 256.535 87.1227 274.394 81.012Z" fill="#44CC88"/>
<path d="M295.543 110.39C295.543 112.74 294.368 114.856 292.723 116.266C290.843 117.911 287.788 116.501 287.788 113.916V106.865C287.788 104.28 290.843 102.869 292.723 104.515C294.603 105.925 295.543 108.04 295.543 110.39Z" fill="#FFAF84"/>
<path d="M279.094 163.506L268.519 151.755C267.814 150.815 266.404 150.815 265.464 151.52L252.54 163.506H257.945L257.005 173.847C256.77 175.022 257.945 176.197 259.12 176.197H270.399C271.574 176.197 272.279 175.492 272.514 174.317L273.454 163.506H279.094Z" fill="#EDF4FC"/>
<path d="M262.175 135.068C261 138.828 264.76 141.179 271.104 140.238C275.569 139.533 280.269 137.653 284.029 135.068H262.175Z" fill="#FFAF84"/>
<path d="M295.543 392.656C295.543 392.186 287.083 339.07 285.908 321.913C284.498 304.051 282.148 258.456 282.148 251.405V225.788H283.323V251.405C283.323 258.456 285.673 303.816 287.083 321.913C288.258 339.07 296.718 391.951 296.718 392.421L295.543 392.656Z" fill="#454068"/>
<path d="M264.994 225.788H263.819V257.986H264.994V225.788Z" fill="#454068"/>
<path d="M264.29 251.405C261 251.405 258.415 248.82 258.415 245.53V225.788H259.59V245.53C259.59 248.115 261.705 250.23 264.29 250.23V251.405Z" fill="#454068"/>
<path d="M361.81 108.745C353.35 101.224 337.371 105.69 334.081 116.971C330.791 128.252 335.491 132.013 339.486 140.003C343.481 148.229 335.491 160.451 335.491 160.451C335.491 160.451 360.4 158.805 360.165 136.948C360.165 123.317 372.149 117.911 361.81 108.745Z" fill="#4A709C"/>
<path d="M367.45 187.714C366.745 188.184 366.04 188.419 365.335 188.419C363.925 188.419 362.515 187.714 361.81 186.303C361.81 186.303 361.105 185.128 357.58 179.488C354.76 174.787 354.525 167.501 354.76 162.566C354.995 159.981 355.23 157.865 355.23 157.395C355.7 155.045 357.815 153.635 359.93 153.87C362.28 154.105 363.69 156.22 363.455 158.57C363.22 160.216 362.985 162.096 362.985 164.446C362.985 168.441 363.22 172.672 364.63 175.022C368.39 181.133 369.095 182.073 369.095 182.073C370.034 183.953 369.329 186.538 367.45 187.714Z" fill="#FFAF84"/>
<path d="M365.57 257.281C365.57 258.926 364.865 289.009 363.455 311.572C363.455 311.807 363.455 312.042 363.455 312.277C362.985 318.623 362.28 324.733 361.575 328.729C358.755 347.296 345.361 397.356 344.891 399.471L339.956 399.001C340.191 398.531 340.426 348.236 346.301 326.379C347.241 322.853 347.241 318.153 347.711 312.512C347.711 312.277 347.711 312.042 347.711 311.807C349.12 289.715 349.121 257.281 349.356 256.811C349.356 252.816 352.41 249.76 356.405 249.76C360.165 249.995 365.57 253.521 365.57 257.281Z" fill="#FFAF84"/>
<path d="M387.893 257.516C387.893 259.161 386.483 289.48 384.838 311.807V312.042C384.368 318.623 383.663 324.498 382.958 328.729C380.843 343.065 369.799 384.195 367.449 399.001L362.279 397.826C362.279 355.522 366.274 338.13 368.624 328.024C369.564 324.498 369.094 317.683 368.859 312.042C368.859 311.807 368.859 311.572 368.859 311.572C368.154 288.069 369.329 269.502 369.094 257.986C369.329 253.991 377.083 249.76 380.843 249.995C385.073 250.23 388.128 253.521 387.893 257.516Z" fill="#FFAF84"/>
<path d="M363.22 158.57C362.985 160.216 362.75 162.096 362.75 164.446C359.695 164.446 356.875 163.741 354.525 162.566C354.76 159.981 354.995 157.865 354.995 157.395C355.465 155.045 357.58 153.635 359.695 153.87C362.045 154.105 363.455 156.22 363.22 158.57Z" fill="#ED8C62"/>
<path d="M382.723 139.298C380.843 151.285 374.733 162.566 362.749 162.566C350.765 162.566 342.07 151.99 342.07 140.003C342.07 128.017 350.295 117.676 362.279 117.676C374.028 117.676 384.603 127.547 382.723 139.298Z" fill="#FFAF84"/>
<path d="M398.233 241.534C396.118 240.829 394.474 242.239 392.124 238.949C399.878 226.023 406.223 219.207 404.343 202.52C402.933 190.769 384.839 170.557 382.724 168.206C381.079 166.561 378.495 166.326 376.85 167.971C375.205 169.617 374.97 172.202 376.615 173.847C383.664 181.838 395.179 196.88 396.118 203.695C398.468 222.262 385.779 238.009 385.779 238.244C385.779 238.244 385.779 238.479 385.544 238.479C385.544 238.714 385.309 238.714 385.309 238.949C385.309 238.949 385.309 239.184 385.074 239.419C385.074 239.654 385.074 239.654 384.839 239.889C384.839 240.124 384.839 240.124 384.839 240.359C384.839 240.594 384.839 240.594 384.839 240.829C384.839 241.064 384.839 241.064 384.839 241.299C384.839 241.534 384.839 241.534 384.839 241.769C384.839 242.004 384.839 242.004 384.839 242.239C384.839 242.474 384.839 242.474 384.839 242.709C384.839 242.945 384.839 242.945 385.074 243.18C385.074 243.415 385.074 243.415 385.309 243.65L385.544 243.885C385.544 244.12 385.779 244.12 385.779 244.355L386.014 244.59L386.249 244.825C386.249 244.825 386.249 244.825 386.484 245.06C389.774 247.88 392.594 249.055 393.064 249.29C393.534 249.525 394.004 249.525 394.709 249.525C396.353 249.525 399.408 248.115 400.113 246.47C400.583 243.18 400.348 242.239 398.233 241.534Z" fill="#FFAF84"/>
<path d="M365.569 257.281C365.569 258.926 364.864 289.009 363.454 311.572C363.454 311.807 363.454 312.042 363.454 312.277L347.71 312.747C347.71 312.512 347.71 312.277 347.71 312.042C349.12 289.95 349.12 257.516 349.355 257.046C349.355 253.051 352.41 249.995 356.404 249.995C360.164 249.995 365.569 253.521 365.569 257.281Z" fill="#ED8C62"/>
<path d="M387.893 257.516C387.893 259.161 386.483 289.479 384.839 311.807L369.094 312.277C369.094 312.042 369.094 311.807 369.094 311.807C368.389 288.304 369.564 269.737 369.329 258.221C369.564 254.226 377.319 249.995 381.079 250.23C385.073 250.23 388.128 253.521 387.893 257.516Z" fill="#ED8C62"/>
<path d="M347.24 306.636C347.24 306.636 336.196 254.696 349.12 235.894H390.008C390.008 235.894 388.598 298.175 386.718 306.636H347.24Z" fill="#44CC88"/>
<path d="M389.774 233.544C389.774 234.954 390.009 235.894 390.009 235.894H349.121C349.121 235.189 349.121 234.249 349.356 233.544C349.356 233.309 349.356 233.073 349.356 232.838C349.356 230.018 349.356 226.963 349.121 224.143C349.121 223.907 349.121 223.437 349.121 223.202C349.121 222.027 348.886 220.852 348.886 219.912C348.886 219.677 348.886 219.207 348.886 218.972C348.651 216.152 348.181 213.331 347.711 210.511C347.711 210.276 347.711 210.041 347.711 209.806C347.476 208.631 347.241 207.456 347.241 206.281C347.241 206.046 347.241 205.811 347.241 205.575C346.772 202.52 346.302 199.7 345.597 196.644C345.362 195.234 345.127 194.059 344.892 192.649V192.414C344.422 189.594 343.717 186.773 343.247 184.188C343.247 183.718 343.012 183.483 343.012 183.013C342.777 182.073 342.777 181.133 342.542 180.428C342.542 179.958 342.307 179.253 342.307 178.783C341.837 176.667 341.602 174.552 341.132 172.672C341.132 172.437 341.132 172.437 341.132 172.202C341.132 171.262 341.367 170.087 341.837 169.382C342.777 167.971 344.187 167.031 346.067 167.031H378.495C380.14 167.031 381.784 167.971 382.724 169.382C382.959 169.617 383.194 170.087 383.194 170.557C383.429 171.027 383.429 171.732 383.664 172.437C384.134 174.082 384.369 175.727 384.839 177.842C385.544 178.077 386.484 178.548 387.189 179.018C387.894 179.488 388.834 180.193 389.304 180.898C390.009 181.603 390.479 182.308 390.714 183.248C390.949 183.718 391.184 184.188 391.184 184.658C391.419 185.363 391.419 186.068 391.419 186.773C391.419 188.889 390.714 191.004 389.539 192.649L389.304 192.884C388.834 193.589 388.129 194.294 387.424 194.764C387.424 195.469 387.659 196.174 387.659 196.88C387.659 196.88 387.659 196.88 387.659 197.115C387.894 199.935 388.364 202.99 388.599 205.811C388.599 206.046 388.599 206.281 388.599 206.516C388.599 207.691 388.834 208.866 388.834 209.806C388.834 210.041 388.834 210.511 388.834 210.746C389.069 213.566 389.304 216.387 389.539 218.972C389.539 219.442 389.539 219.912 389.539 220.147C389.539 221.087 389.774 222.262 389.774 223.202C389.774 223.672 389.774 224.143 389.774 224.613C390.009 227.903 390.244 230.723 390.244 232.838C389.774 232.838 389.774 233.309 389.774 233.544Z" fill="#2E2947"/>
<path d="M389.538 232.368C376.144 232.133 362.515 232.368 349.121 233.073C349.121 230.253 349.121 227.198 348.886 224.377C348.886 224.142 348.886 223.672 348.886 223.437C362.28 222.732 375.439 222.732 388.833 222.967C388.833 223.437 388.833 223.907 388.833 224.377C389.303 227.433 389.538 230.253 389.538 232.368Z" fill="#332F4F"/>
<path d="M388.598 218.502C375.204 218.267 362.045 218.267 348.651 218.737C348.416 215.917 347.946 213.096 347.476 210.276C347.476 210.041 347.476 209.806 347.476 209.571C360.87 209.101 374.264 208.866 387.893 209.336C387.893 209.571 387.893 210.041 387.893 210.276C388.128 213.096 388.363 215.917 388.598 218.502Z" fill="#332F4F"/>
<path d="M387.423 205.341C373.794 204.87 360.4 204.87 346.771 205.576C346.301 202.52 345.831 199.7 345.126 196.645C358.755 196.174 372.619 196.174 386.484 196.645C386.954 199.465 387.188 202.285 387.423 205.341Z" fill="#332F4F"/>
<path d="M390.478 186.538C390.478 188.654 389.773 190.769 388.598 192.414L388.363 192.649C373.794 192.179 359.225 192.179 344.656 192.649V192.414C344.186 189.594 343.481 186.773 343.011 184.188C358.755 183.718 374.734 183.718 390.478 184.423C390.478 184.893 390.478 185.598 390.478 186.538Z" fill="#332F4F"/>
<path d="M388.363 180.428C372.854 179.723 357.58 179.723 342.071 180.193C342.071 179.723 341.836 179.018 341.836 178.548C341.366 176.432 341.131 174.317 340.661 172.437C340.661 172.202 340.661 172.202 340.661 171.967C354.76 171.497 368.859 171.497 382.959 172.202C383.429 173.847 383.664 175.727 384.134 177.607C384.839 177.842 385.779 178.313 386.483 178.783C386.953 179.018 387.658 179.723 388.363 180.428Z" fill="#332F4F"/>
<path d="M352.645 242.474C352.645 242.239 352.88 242.239 352.88 242.004V241.769C352.88 241.534 352.88 241.534 352.88 241.299V241.064C352.88 240.829 352.88 240.594 352.88 240.594V240.359C352.88 240.124 352.88 239.889 352.645 239.889V239.654C352.645 239.419 352.41 239.419 352.41 239.184C352.41 239.184 352.41 238.949 352.175 238.949L351.94 238.714L351.705 238.479L351.47 238.244L351.235 238.009C351 237.774 332.436 222.027 332.906 203.695C333.141 195.704 344.185 179.488 348.18 174.082C349.59 172.202 349.12 169.617 347.24 168.206C345.36 166.796 342.776 167.266 341.366 169.147C339.721 171.262 326.092 191.239 324.682 202.755C322.567 219.677 339.486 233.309 346.3 239.889C343.48 242.475 341.601 241.534 339.956 241.769C337.606 242.004 337.606 243.885 338.076 246C338.311 247.645 338.781 248.35 339.486 249.055C340.896 250.935 343.011 249.995 343.716 249.76C345.595 248.82 348.415 247.41 351.705 244.59C351.705 244.59 351.94 244.59 351.94 244.355C352.175 244.12 352.175 244.12 352.41 243.885C352.175 243.18 352.41 242.945 352.645 242.474C352.41 242.71 352.41 242.71 352.645 242.474Z" fill="#FFAF84"/>
<path d="M351 129.192C359.695 134.128 380.139 132.953 383.898 139.298C383.898 139.298 390.008 122.377 368.154 114.621C347.945 107.335 338.781 122.376 351 129.192Z" fill="#557FAF"/>
<path d="M352.175 120.261C357.815 122.377 349.59 140.708 340.661 140.708C336.666 140.708 336.196 114.621 352.175 120.261Z" fill="#557FAF"/>
<path d="M338.312 143.059C338.312 145.174 339.251 147.054 340.661 148.464C342.306 149.875 345.126 148.699 345.126 146.349V140.003C345.126 137.653 342.306 136.243 340.661 137.888C339.251 139.063 338.312 140.944 338.312 143.059Z" fill="#FFAF84"/>
<path d="M353.585 301.466L352.41 300.996L382.723 246L383.898 246.47L353.585 301.466Z" fill="#35B773"/>
<path d="M368.625 301.466L367.685 300.996L383.899 253.286L385.074 253.521L368.625 301.466Z" fill="#35B773"/>
<path d="M349.825 166.561L350.06 167.031C351 168.441 352.41 169.852 354.055 171.027C357.345 173.612 361.34 175.022 364.629 175.022C366.509 175.022 367.919 174.552 368.859 173.612C370.504 171.967 370.504 169.382 368.859 166.561H349.825Z" fill="white"/>
<path d="M351.47 166.561C352.41 167.736 353.585 169.147 354.995 170.322C359.694 173.847 365.569 175.022 367.684 172.907C369.094 171.497 368.859 169.147 367.449 166.796H351.47V166.561Z" fill="#FFAF84"/>
<path d="M345.36 398.061C345.595 398.061 346.065 398.296 346.3 398.531C348.18 399.942 350.294 402.057 353.349 402.762C356.404 403.467 355.229 404.877 352.174 404.877C347.945 404.877 346.3 404.642 344.185 404.877C342.305 404.877 343.48 404.877 338.78 404.877C336.665 404.877 337.37 400.647 338.545 398.061C338.78 397.356 339.485 397.121 340.19 397.121L345.36 398.061Z" fill="#332F4F"/>
<path d="M367.92 398.061C368.155 398.061 368.624 398.296 368.859 398.531C370.739 399.941 376.144 402.762 378.964 403.232C382.019 403.702 382.254 405.112 377.789 405.112C373.559 405.112 370.504 404.642 368.39 404.877C366.51 404.877 366.98 405.112 362.28 405.112C358.755 405.112 359.695 400.647 361.105 398.296C361.575 397.591 362.045 397.356 362.75 397.356L367.92 398.061Z" fill="#332F4F"/>
</svg>
