<svg width="612" height="472" viewBox="0 0 612 472" fill="none" xmlns="http://www.w3.org/2000/svg">
<g clip-path="url(#clip0)">
<path opacity="0.2" d="M607 282.415C596.464 252.959 579.677 243.855 563.962 224.932C544.675 201.725 531.46 184.944 536.639 155.31C544.675 106.753 548.247 -14.4599 419.489 1.42815C373.415 7.14071 336.984 42.4871 310.376 77.6551C287.874 107.646 247.158 110.324 214.477 117.286C174.475 125.855 133.58 138.887 96.4345 157.988C20.0015 197.083 -2.85699 253.495 0.357488 325.616C1.2504 347.395 4.46487 381.67 41.2527 421.837C90.8985 475.927 163.046 483.247 250.015 458.433C269.837 452.72 288.767 443.794 308.233 437.011C328.591 430.048 349.664 425.407 371.093 423.443C420.918 418.623 472.706 427.371 520.566 412.375C545.925 404.52 569.141 390.061 587.356 370.959C610.036 346.859 618.251 313.655 607 282.415Z" fill="#58B58B"/>
<g opacity="0.4">
<path d="M41.0742 393.631C41.0742 400.772 131.437 406.484 242.872 406.484C354.307 406.484 444.669 400.772 444.669 393.631C444.669 386.49 354.307 380.778 242.872 380.778C131.437 380.778 41.0742 386.49 41.0742 393.631Z" fill="#58B58B"/>
</g>
<path opacity="0.34" d="M164.296 409.519C164.296 413.982 141.438 417.552 113.043 417.552C84.8271 417.552 61.79 413.982 61.79 409.519C61.79 405.056 84.6485 401.486 113.043 401.486C141.259 401.486 164.296 405.056 164.296 409.519Z" fill="#58B58B"/>
<path opacity="0.6" d="M505.03 417.552C552.47 417.552 590.928 414.675 590.928 411.126C590.928 407.576 552.47 404.699 505.03 404.699C457.59 404.699 419.132 407.576 419.132 411.126C419.132 414.675 457.59 417.552 505.03 417.552Z" fill="#58B58B"/>
<path d="M61.2534 305.086L57.8604 351.322H101.97L98.9342 304.908L61.2534 305.086Z" fill="#69CB9F"/>
<path d="M70.0039 309.192C70.0039 308.478 70.7182 307.943 71.4326 307.943C72.3255 307.943 72.8612 308.478 72.8612 309.192C72.8612 309.906 72.1469 310.442 71.4326 310.442C70.7182 310.442 70.0039 309.728 70.0039 309.192ZM71.4326 308.3C70.8968 308.3 70.3611 308.657 70.3611 309.014C70.3611 309.371 70.8968 309.728 71.4326 309.728C71.9683 309.728 72.504 309.371 72.504 309.014C72.504 308.657 72.1469 308.3 71.4326 308.3Z" fill="#EAE6FF"/>
<path d="M85.0049 309.014H85.1835H85.0049C85.0049 308.657 85.1835 308.478 85.362 308.121C85.7192 307.764 86.0764 307.585 86.4335 307.585C87.3265 307.585 87.8622 308.121 87.8622 308.835C87.8622 309.192 87.6836 309.549 87.3265 309.728C86.9693 309.906 86.6121 310.085 86.255 310.085C85.7192 310.263 85.0049 309.728 85.0049 309.014ZM86.6121 308.3C86.255 308.3 86.0764 308.478 85.7192 308.657C85.5406 308.835 85.5406 308.835 85.5406 309.192C85.5406 309.549 86.0764 309.906 86.6121 309.906C86.9693 309.906 87.1479 309.728 87.3265 309.728C87.505 309.549 87.6836 309.371 87.6836 309.192C87.505 308.657 87.1479 308.3 86.6121 308.3Z" fill="#EAE6FF"/>
<path d="M78.5763 318.475C78.7549 318.475 78.9335 318.475 78.9335 318.475C81.6122 318.297 83.7552 317.583 85.1839 315.797C87.5054 313.12 86.9697 309.192 86.9697 309.014C86.9697 308.835 86.6125 308.478 86.4339 308.657C86.2554 308.657 85.8982 309.014 86.0768 309.192C86.0768 309.192 86.6125 312.763 84.4695 315.262C83.2195 316.69 81.4336 317.404 78.9335 317.583C76.6119 317.583 74.8261 317.047 73.576 315.797C71.4331 313.477 71.9688 309.549 71.9688 309.371C71.9688 309.192 71.7902 308.835 71.6116 308.835C71.433 308.835 71.0759 309.014 71.0759 309.192C71.0759 309.371 70.5401 313.655 72.8617 316.333C74.1118 317.583 76.0762 318.475 78.5763 318.475Z" fill="#EAE6FF"/>
<path d="M81.9689 317.94L76.79 352.393L124.65 352.215L119.828 317.94H81.9689Z" fill="#58B58B"/>
<path d="M64.2889 375.958C58.9315 375.958 54.6455 380.242 54.6455 385.598C54.6455 390.953 58.9315 395.238 64.2889 395.238C69.6464 395.238 73.9324 390.953 73.9324 385.598C73.9324 380.242 69.6464 375.958 64.2889 375.958ZM64.2889 390.239C61.7888 390.239 59.8244 388.275 59.8244 385.776C59.8244 383.277 61.7888 381.313 64.2889 381.313C66.7891 381.313 68.7535 383.277 68.7535 385.776C68.7535 388.275 66.7891 390.239 64.2889 390.239Z" fill="#58B58B"/>
<path d="M62.6815 375.958C57.324 375.958 53.0381 380.242 53.0381 385.598C53.0381 390.953 57.324 395.238 62.6815 395.238C68.039 395.238 72.3249 390.953 72.3249 385.598C72.3249 380.242 68.039 375.958 62.6815 375.958ZM62.6815 390.239C60.1814 390.239 58.217 388.275 58.217 385.776C58.217 383.277 60.1814 381.313 62.6815 381.313C65.1816 381.313 67.146 383.277 67.146 385.776C67.146 388.275 65.1816 390.239 62.6815 390.239Z" fill="#3A966C"/>
<path d="M119.114 375.958C113.757 375.958 109.471 380.242 109.471 385.598C109.471 390.953 113.757 395.238 119.114 395.238C124.472 395.238 128.758 390.953 128.758 385.598C128.758 380.242 124.472 375.958 119.114 375.958ZM119.114 390.239C116.614 390.239 114.65 388.275 114.65 385.776C114.65 383.277 116.614 381.313 119.114 381.313C121.614 381.313 123.579 383.277 123.579 385.776C123.579 388.275 121.614 390.239 119.114 390.239Z" fill="#58B58B"/>
<path d="M117.507 375.958C112.149 375.958 107.863 380.242 107.863 385.598C107.863 390.953 112.149 395.238 117.507 395.238C122.864 395.238 127.15 390.953 127.15 385.598C127.15 380.242 122.864 375.958 117.507 375.958ZM117.507 390.239C115.007 390.239 113.042 388.275 113.042 385.776C113.042 383.277 115.007 381.313 117.507 381.313C120.007 381.313 121.971 383.277 121.971 385.776C121.971 388.275 120.007 390.239 117.507 390.239Z" fill="#3A966C"/>
<path d="M192.332 267.062H163.223C160.187 267.062 157.33 268.669 155.723 271.168L138.043 299.552" stroke="#3A966C" stroke-width="1.5" stroke-miterlimit="10"/>
<path d="M59.646 351.501H124.828C128.221 351.501 131.257 349.002 131.793 345.61L138.579 303.48C139.293 299.195 135.9 295.268 131.614 295.268H52.8599C48.5739 295.268 45.1809 299.195 45.8952 303.48L52.6813 345.61C53.2171 349.002 56.253 351.501 59.646 351.501Z" stroke="#3A966C" stroke-width="1.5" stroke-miterlimit="10"/>
<path d="M92.3262 295.446V351.501" stroke="#3A966C" stroke-width="1.5" stroke-miterlimit="10"/>
<path d="M135.364 323.474H49.1094" stroke="#3A966C" stroke-width="1.5" stroke-miterlimit="10"/>
<path d="M118.042 295.446L112.506 351.501" stroke="#3A966C" stroke-width="1.5" stroke-miterlimit="10"/>
<path d="M67.8613 295.446L72.8616 351.501" stroke="#3A966C" stroke-width="1.5" stroke-miterlimit="10"/>
<path d="M130.364 349.002L140.9 364.711C143.758 368.995 140.722 374.708 135.543 374.708H49.1094" stroke="#3A966C" stroke-width="1.5" stroke-miterlimit="10"/>
<path d="M357.343 356.499H267.873V380.599H357.343V356.499Z" fill="#3A966C"/>
<path d="M451.455 364.354H174.832C165.545 364.354 158.045 356.856 158.045 347.573V158.166C158.045 148.884 165.545 141.386 174.832 141.386H451.455C460.741 141.386 468.242 148.884 468.242 158.166V347.573C468.242 356.856 460.741 364.354 451.455 364.354Z" fill="#58B58B"/>
<path d="M448.24 342.932H176.974C171.259 342.932 166.616 338.29 166.616 332.578V159.773C166.616 154.061 171.259 149.419 176.974 149.419H448.24C453.954 149.419 458.597 154.061 458.597 159.773V332.578C458.597 338.29 453.954 342.932 448.24 342.932Z" fill="#B1DFCA"/>
<path d="M395.737 393.631H229.478V391.489C229.478 384.348 235.371 378.457 242.514 378.457H382.701C389.844 378.457 395.737 384.348 395.737 391.489V393.631Z" fill="#58B58B"/>
<g opacity="0.35">
<g opacity="0.35">
<g opacity="0.35">
<path opacity="0.35" d="M431.632 300.088H245.371C240.371 300.088 236.442 296.16 236.442 291.162V171.734C236.442 166.735 240.371 162.808 245.371 162.808H431.632C436.633 162.808 440.561 166.735 440.561 171.734V290.983C440.561 295.982 436.633 300.088 431.632 300.088Z" fill="white"/>
</g>
</g>
</g>
<g opacity="0.25">
<g opacity="0.25">
<g opacity="0.25">
<g opacity="0.25">
<g opacity="0.25">
<path opacity="0.25" d="M264.837 262.956H255.908V285.271H264.837V262.956Z" fill="#FCA70C"/>
</g>
</g>
</g>
<g opacity="0.25">
<g opacity="0.25">
<g opacity="0.25">
<path opacity="0.25" d="M284.838 243.498H275.909V285.449H284.838V243.498Z" fill="#B1AFFD"/>
</g>
</g>
</g>
<g opacity="0.25">
<g opacity="0.25">
<g opacity="0.25">
<path opacity="0.25" d="M304.839 247.782H295.91V285.449H304.839V247.782Z" fill="#FCA70C"/>
</g>
</g>
</g>
<g opacity="0.25">
<g opacity="0.25">
<g opacity="0.25">
<path opacity="0.25" d="M324.84 226.539H315.911V285.271H324.84V226.539Z" fill="#B1AFFD"/>
</g>
</g>
</g>
<g opacity="0.15">
<g opacity="0.15">
<g opacity="0.15">
<path opacity="0.26" d="M280.017 243.498H275.909V285.449H280.017V243.498Z" fill="black"/>
</g>
</g>
</g>
<g opacity="0.15">
<g opacity="0.15">
<g opacity="0.15">
<path opacity="0.26" d="M260.016 262.956H255.908V285.271H260.016V262.956Z" fill="black"/>
</g>
</g>
</g>
<g opacity="0.62">
<g opacity="0.62">
<g opacity="0.62">
<path opacity="0.26" d="M320.019 226.539H315.911V285.271H320.019V226.539Z" fill="black"/>
</g>
</g>
</g>
<g opacity="0.15">
<g opacity="0.15">
<g opacity="0.15">
<path opacity="0.26" d="M300.018 247.782H295.91V285.449H300.018V247.782Z" fill="black"/>
</g>
</g>
</g>
<g opacity="0.25">
<g opacity="0.25">
<g opacity="0.25">
<path opacity="0.25" d="M329.484 291.519H250.015V206.723H251.265V290.269H329.484V291.519Z" fill="#D5DBDA"/>
</g>
</g>
</g>
<g opacity="0.25">
<g opacity="0.25">
<g opacity="0.25">
<path opacity="0.25" d="M258.23 252.602L257.337 251.71L278.231 232.965L297.518 237.25L318.412 213.864L319.305 214.756L297.875 238.499L278.588 234.393L258.23 252.602Z" fill="#D5DBDA"/>
</g>
</g>
</g>
<g opacity="0.25">
<g opacity="0.25">
<g opacity="0.25">
<path opacity="0.25" d="M320.912 218.148L315.019 212.614L322.519 210.472L320.912 218.148Z" fill="#D5DBDA"/>
</g>
</g>
</g>
<g opacity="0.25">
<g opacity="0.25">
<g opacity="0.25">
<g opacity="0.25">
<path opacity="0.25" d="M343.234 261.528H337.162V267.598H343.234V261.528Z" fill="#B1AFFD"/>
</g>
</g>
</g>
<g opacity="0.25">
<g opacity="0.25">
<g opacity="0.25">
<path opacity="0.25" d="M343.234 272.239H337.162V278.309H343.234V272.239Z" fill="#FCA70C"/>
</g>
</g>
</g>
<g opacity="0.25">
<g opacity="0.25">
<g opacity="0.25">
<path opacity="0.25" d="M364.128 274.738H344.841V278.13H364.128V274.738Z" fill="#EFEFEF"/>
</g>
</g>
</g>
<g opacity="0.25">
<g opacity="0.25">
<g opacity="0.25">
<path opacity="0.25" d="M364.128 264.027H344.841V267.419H364.128V264.027Z" fill="#EFEFEF"/>
</g>
</g>
</g>
</g>
<g opacity="0.25">
<g opacity="0.25">
<g opacity="0.25">
<g opacity="0.25">
<path opacity="0.25" d="M379.129 261.528H373.058V267.598H379.129V261.528Z" fill="#B1AFFD"/>
</g>
</g>
</g>
<g opacity="0.25">
<g opacity="0.25">
<g opacity="0.25">
<path opacity="0.25" d="M379.129 272.239H373.058V278.309H379.129V272.239Z" fill="#FCA70C"/>
</g>
</g>
</g>
<g opacity="0.25">
<g opacity="0.25">
<g opacity="0.25">
<path opacity="0.25" d="M400.023 274.738H380.736V278.13H400.023V274.738Z" fill="#EFEFEF"/>
</g>
</g>
</g>
<g opacity="0.25">
<g opacity="0.25">
<g opacity="0.25">
<path opacity="0.25" d="M400.023 264.027H380.736V267.419H400.023V264.027Z" fill="#EFEFEF"/>
</g>
</g>
</g>
</g>
<g opacity="0.25">
<g opacity="0.25">
<g opacity="0.25">
<g opacity="0.25">
<path opacity="0.25" d="M411.453 261.528H405.381V267.598H411.453V261.528Z" fill="#B1AFFD"/>
</g>
</g>
</g>
<g opacity="0.25">
<g opacity="0.25">
<g opacity="0.25">
<path opacity="0.25" d="M411.453 272.239H405.381V278.309H411.453V272.239Z" fill="#FCA70C"/>
</g>
</g>
</g>
<g opacity="0.25">
<g opacity="0.25">
<g opacity="0.25">
<path opacity="0.25" d="M425.918 274.738H413.238V278.13H425.918V274.738Z" fill="#EFEFEF"/>
</g>
</g>
</g>
<g opacity="0.25">
<g opacity="0.25">
<g opacity="0.25">
<path opacity="0.25" d="M425.918 264.027H413.238V267.419H425.918V264.027Z" fill="#EFEFEF"/>
</g>
</g>
</g>
</g>
<g opacity="0.25">
<g opacity="0.25">
<g opacity="0.25">
<g opacity="0.25">
<path opacity="0.25" d="M425.918 203.153H338.234V204.759H425.918V203.153Z" fill="#EFEFEF"/>
</g>
</g>
</g>
<g opacity="0.25">
<g opacity="0.25">
<g opacity="0.25">
<path opacity="0.25" d="M425.918 183.516H250.015V187.086H425.918V183.516Z" fill="#EFEFEF"/>
</g>
</g>
</g>
<g opacity="0.25">
<g opacity="0.25">
<g opacity="0.25">
<path opacity="0.25" d="M425.918 208.151H338.056V209.758H425.918V208.151Z" fill="#EFEFEF"/>
</g>
</g>
</g>
<g opacity="0.25">
<g opacity="0.25">
<g opacity="0.25">
<path opacity="0.25" d="M425.918 198.154H338.056V199.761H425.918V198.154Z" fill="#EFEFEF"/>
</g>
</g>
</g>
<g opacity="0.25">
<g opacity="0.25">
<g opacity="0.25">
<path opacity="0.25" d="M425.918 212.971H338.056V214.578H425.918V212.971Z" fill="#EFEFEF"/>
</g>
</g>
</g>
<g opacity="0.25">
<g opacity="0.25">
<g opacity="0.25">
<path opacity="0.25" d="M425.918 217.97H338.056V219.576H425.918V217.97Z" fill="#EFEFEF"/>
</g>
</g>
</g>
<g opacity="0.25">
<g opacity="0.25">
<g opacity="0.25">
<path opacity="0.25" d="M425.918 222.968H338.056V224.575H425.918V222.968Z" fill="#EFEFEF"/>
</g>
</g>
</g>
<g opacity="0.25">
<g opacity="0.25">
<g opacity="0.25">
<path opacity="0.25" d="M425.918 227.967H338.056V229.573H425.918V227.967Z" fill="#EFEFEF"/>
</g>
</g>
</g>
<g opacity="0.25">
<g opacity="0.25">
<g opacity="0.25">
<path opacity="0.25" d="M425.918 232.787H338.056V234.393H425.918V232.787Z" fill="#EFEFEF"/>
</g>
</g>
</g>
<g opacity="0.25">
<g opacity="0.25">
<g opacity="0.25">
<path opacity="0.25" d="M425.918 237.785H338.056V239.392H425.918V237.785Z" fill="#EFEFEF"/>
</g>
</g>
</g>
<g opacity="0.25">
<g opacity="0.25">
<g opacity="0.25">
<path opacity="0.25" d="M425.918 242.784H348.771V244.39H425.918V242.784Z" fill="#EFEFEF"/>
</g>
</g>
</g>
</g>
</g>
<path opacity="0.45" d="M431.632 162.808H245.371C240.371 162.808 236.442 166.735 236.442 171.734V179.589H440.561V171.734C440.561 166.735 436.633 162.808 431.632 162.808Z" fill="#3A966C"/>
<path opacity="0.25" d="M414.31 171.555C414.31 172.983 413.238 174.054 411.81 174.054C410.381 174.054 409.31 172.983 409.31 171.555C409.31 170.127 410.381 169.056 411.81 169.056C413.238 168.877 414.31 170.127 414.31 171.555Z" fill="#CFCFFF"/>
<path opacity="0.25" d="M422.346 174.054C423.727 174.054 424.846 172.936 424.846 171.555C424.846 170.175 423.727 169.056 422.346 169.056C420.965 169.056 419.846 170.175 419.846 171.555C419.846 172.936 420.965 174.054 422.346 174.054Z" fill="#CFCFFF"/>
<path opacity="0.25" d="M432.883 174.054C434.264 174.054 435.383 172.936 435.383 171.555C435.383 170.175 434.264 169.056 432.883 169.056C431.502 169.056 430.383 170.175 430.383 171.555C430.383 172.936 431.502 174.054 432.883 174.054Z" fill="#CFCFFF"/>
</g>
<path opacity="0.55" d="M377.343 330.436H191.082C186.082 330.436 182.153 326.508 182.153 321.51V202.26C182.153 197.262 186.082 193.334 191.082 193.334H377.343C382.344 193.334 386.272 197.262 386.272 202.26V321.331C386.451 326.33 382.344 330.436 377.343 330.436Z" fill="#557FAF"/>
<path d="M381.629 325.08H195.369C190.368 325.08 186.439 321.153 186.439 316.154V196.905C186.439 191.906 190.368 187.979 195.369 187.979H381.629C386.63 187.979 390.558 191.906 390.558 196.905V316.154C390.558 320.974 386.451 325.08 381.629 325.08Z" fill="white"/>
<path d="M214.655 288.127H205.726V310.442H214.655V288.127Z" fill="#FCA70C"/>
<path d="M234.657 268.49H225.728V310.442H234.657V268.49Z" fill="#B1AFFD"/>
<path d="M254.836 272.775H245.907V310.442H254.836V272.775Z" fill="#FCA70C"/>
<path d="M274.837 251.531H265.908V310.263H274.837V251.531Z" fill="#B1AFFD"/>
<g opacity="0.15">
<g opacity="0.15">
<g opacity="0.15">
<path opacity="0.26" d="M229.835 268.49H225.728V310.442H229.835V268.49Z" fill="black"/>
</g>
</g>
</g>
<g opacity="0.15">
<g opacity="0.15">
<g opacity="0.15">
<path opacity="0.26" d="M209.833 288.127H205.726V310.442H209.833V288.127Z" fill="black"/>
</g>
</g>
</g>
<g opacity="0.62">
<g opacity="0.62">
<g opacity="0.62">
<path opacity="0.26" d="M270.016 251.531H265.908V310.263H270.016V251.531Z" fill="black"/>
</g>
</g>
</g>
<g opacity="0.15">
<g opacity="0.15">
<g opacity="0.15">
<path opacity="0.26" d="M250.015 272.775H245.907V310.442H250.015V272.775Z" fill="black"/>
</g>
</g>
</g>
<path d="M279.481 316.511H199.833V239.392H201.083V315.262H279.481V316.511Z" fill="#D5DBDA"/>
<path d="M208.048 277.595L207.155 276.702L228.049 257.958L247.336 262.242L268.23 238.856L269.123 239.749L247.693 263.492L228.407 259.386L208.048 277.595Z" fill="#D5DBDA"/>
<path d="M270.73 243.141L264.837 237.607L272.516 235.464L270.73 243.141Z" fill="#D5DBDA"/>
<path d="M293.052 286.52H286.98V292.59H293.052V286.52Z" fill="#B1AFFD"/>
<path d="M293.052 297.232H286.98V303.301H293.052V297.232Z" fill="#FCA70C"/>
<path d="M314.125 299.731H294.838V303.123H314.125V299.731Z" fill="#EFEFEF"/>
<path d="M314.125 289.02H294.838V292.412H314.125V289.02Z" fill="#EFEFEF"/>
<path d="M328.948 286.52H322.876V292.59H328.948V286.52Z" fill="#B1AFFD"/>
<path d="M328.948 297.232H322.876V303.301H328.948V297.232Z" fill="#FCA70C"/>
<path d="M350.02 299.731H330.733V303.123H350.02V299.731Z" fill="#EFEFEF"/>
<path d="M350.02 289.02H330.733V292.412H350.02V289.02Z" fill="#EFEFEF"/>
<path d="M361.271 286.52H355.199V292.59H361.271V286.52Z" fill="#B1AFFD"/>
<path d="M361.271 297.232H355.199V303.301H361.271V297.232Z" fill="#FCA70C"/>
<path d="M375.736 299.731H363.057V303.123H375.736V299.731Z" fill="#EFEFEF"/>
<path d="M375.736 289.02H363.057V292.412H375.736V289.02Z" fill="#EFEFEF"/>
<path d="M375.915 228.145H288.231V229.752H375.915V228.145Z" fill="#EFEFEF"/>
<path d="M375.736 208.508H199.833V212.079H375.736V208.508Z" fill="#EFEFEF"/>
<path d="M375.736 233.144H287.874V234.75H375.736V233.144Z" fill="#EFEFEF"/>
<path d="M375.736 223.147H287.874V224.753H375.736V223.147Z" fill="#EFEFEF"/>
<path d="M375.736 237.964H287.874V239.57H375.736V237.964Z" fill="#EFEFEF"/>
<path d="M375.736 242.962H287.874V244.569H375.736V242.962Z" fill="#EFEFEF"/>
<path d="M375.736 247.961H287.874V249.567H375.736V247.961Z" fill="#EFEFEF"/>
<path d="M375.736 252.959H287.874V254.566H375.736V252.959Z" fill="#EFEFEF"/>
<path d="M375.736 257.779H287.874V259.386H375.736V257.779Z" fill="#EFEFEF"/>
<path d="M375.736 262.778H287.874V264.384H375.736V262.778Z" fill="#EFEFEF"/>
<path d="M375.736 267.776H298.589V269.383H375.736V267.776Z" fill="#EFEFEF"/>
<path d="M381.629 187.8H195.369C190.368 187.8 186.439 191.728 186.439 196.726V204.581H390.558V196.726C390.558 191.906 386.451 187.8 381.629 187.8Z" fill="#557FAF"/>
<path d="M364.307 196.548C364.307 197.976 363.235 199.047 361.807 199.047C360.378 199.047 359.307 197.976 359.307 196.548C359.307 195.12 360.378 194.048 361.807 194.048C363.235 194.048 364.307 195.12 364.307 196.548Z" fill="#CFCFFF"/>
<path d="M374.843 196.548C374.843 197.976 373.772 199.047 372.343 199.047C370.914 199.047 369.843 197.976 369.843 196.548C369.843 195.12 370.914 194.048 372.343 194.048C373.593 193.87 374.843 195.12 374.843 196.548Z" fill="#CFCFFF"/>
<path d="M385.201 196.548C385.201 197.976 384.129 199.047 382.7 199.047C381.272 199.047 380.2 197.976 380.2 196.548C380.2 195.12 381.272 194.048 382.7 194.048C384.129 193.87 385.201 195.12 385.201 196.548Z" fill="#CFCFFF"/>
<path opacity="0.35" d="M450.562 141.564H402.702C403.059 157.095 403.238 172.626 403.416 187.979C403.416 190.3 403.416 192.799 402.523 194.941C401.809 194.941 402.166 195.12 401.988 196.191C400.023 199.404 396.273 201.011 392.523 201.903C392.523 202.082 392.523 202.26 392.523 202.439C392.166 202.796 391.987 203.331 392.166 203.867C392.344 204.402 395.202 205.117 398.952 204.759C400.023 204.581 402.166 204.045 403.059 203.688C403.595 203.331 404.131 202.974 404.666 202.617C405.202 202.617 405.559 202.439 406.095 202.26L406.274 202.439L410.56 200.654C410.56 200.654 410.024 197.976 409.667 196.548C409.667 196.191 409.488 196.012 409.31 195.834C412.881 186.194 415.739 176.197 417.703 166.021C416.989 178.696 412.345 204.224 411.988 205.117C411.453 206.545 409.488 208.687 406.631 208.865C405.559 208.865 400.559 208.687 401.095 211.008C401.273 211.543 403.774 212.793 407.524 212.971C408.595 212.971 410.738 212.793 411.81 212.614C413.238 212.257 414.488 211.186 414.488 211.186L415.024 211.9L419.489 210.829C419.489 210.829 419.489 209.579 419.489 208.151C419.489 206.723 418.596 205.474 418.596 205.474V202.974L421.096 202.617C421.096 202.617 426.096 186.372 428.596 180.66C429.668 178.339 430.739 176.197 431.275 173.697C431.989 170.841 432.168 167.985 432.347 164.95C432.704 159.595 433.775 154.418 435.204 149.241C435.383 148.884 435.383 148.527 435.561 148.348C435.918 147.991 436.633 147.812 437.168 147.812C443.597 147.277 446.455 148.348 450.562 147.098C455.919 145.492 456.455 142.992 456.634 142.992C455.027 141.921 452.884 141.564 450.562 141.564Z" fill="#3A966C"/>
<g opacity="0.35">
<path opacity="0.35" d="M468.242 248.496V192.977C460.027 203.867 451.812 213.507 443.598 224.396C440.026 229.038 425.918 244.569 435.561 250.817C438.062 252.424 442.348 252.424 444.312 252.424C451.991 252.959 459.491 250.817 466.992 248.675C467.349 248.675 467.706 248.675 468.242 248.496Z" fill="#3A966C"/>
</g>
<path opacity="0.35" d="M468.241 260.457L463.598 260.814V260.635L460.026 260.992L458.955 257.958C458.419 256.172 456.276 254.923 454.49 255.101C452.526 255.28 451.633 256.708 452.169 258.493C452.347 259.029 452.883 260.457 453.24 261.528L449.49 261.885V262.064L441.811 262.599C440.561 262.599 438.775 264.206 439.132 265.277V265.455C439.132 265.634 439.132 265.634 439.132 265.812L445.918 284.735L445.74 364.533H453.597L468.42 307.228V260.457H468.241ZM456.098 259.743C455.026 259.743 453.955 259.029 453.597 258.136C453.24 257.244 453.776 256.351 454.847 256.172C455.919 256.172 456.99 256.887 457.348 257.779C457.705 258.85 457.169 259.743 456.098 259.743Z" fill="#3A966C"/>
<path opacity="0.35" d="M177.51 227.431C175.725 229.395 173.76 233.501 172.867 235.107C171.974 236.893 171.081 237.785 168.581 239.035C165.188 240.641 161.438 242.07 158.045 243.498V252.602C165.188 248.318 171.617 244.39 171.796 244.212C177.332 246.354 181.796 241.713 183.225 238.499C183.939 237.071 182.868 236.357 182.868 235.821C182.868 235.464 183.225 233.322 183.225 233.144C182.868 231.18 177.689 232.965 178.046 232.073C178.225 231.359 178.939 229.752 180.189 228.859C182.689 227.074 184.654 225.289 184.654 224.575C184.654 223.147 178.225 226.896 177.51 227.431Z" fill="#5851BC"/>
<path d="M562.354 412.911H466.635C459.849 412.911 454.312 407.377 454.312 400.593V285.985C454.312 279.201 459.849 273.667 466.635 273.667H562.354C569.141 273.667 574.677 279.201 574.677 285.985V400.593C574.677 407.377 569.141 412.911 562.354 412.911Z" fill="#5B8873"/>
<path d="M564.14 316.69H468.598C466.812 316.69 465.384 315.262 465.384 313.477V291.162C465.384 289.377 466.812 287.949 468.598 287.949H564.14C565.925 287.949 567.354 289.377 567.354 291.162V313.477C567.354 315.262 565.925 316.69 564.14 316.69Z" fill="#58B58B"/>
<path d="M488.421 345.074H468.598C466.812 345.074 465.384 343.646 465.384 341.861V330.079C465.384 328.294 466.812 326.865 468.598 326.865H488.421C490.207 326.865 491.635 328.294 491.635 330.079V341.861C491.635 343.646 490.207 345.074 488.421 345.074Z" fill="#58B58B"/>
<path d="M526.28 345.074H506.458C504.672 345.074 503.243 343.646 503.243 341.861V330.079C503.243 328.294 504.672 326.865 506.458 326.865H526.28C528.066 326.865 529.495 328.294 529.495 330.079V341.861C529.495 343.646 528.066 345.074 526.28 345.074Z" fill="#58B58B"/>
<path d="M564.14 345.074H544.317C542.531 345.074 541.103 343.646 541.103 341.861V330.079C541.103 328.294 542.531 326.865 544.317 326.865H564.14C565.925 326.865 567.354 328.294 567.354 330.079V341.861C567.354 343.646 565.925 345.074 564.14 345.074Z" fill="#58B58B"/>
<path d="M488.421 374.351H468.598C466.812 374.351 465.384 372.923 465.384 371.138V359.356C465.384 357.57 466.812 356.142 468.598 356.142H488.421C490.207 356.142 491.635 357.57 491.635 359.356V371.138C491.635 372.923 490.207 374.351 488.421 374.351Z" fill="#58B58B"/>
<path d="M526.28 374.351H506.458C504.672 374.351 503.243 372.923 503.243 371.138V359.356C503.243 357.57 504.672 356.142 506.458 356.142H526.28C528.066 356.142 529.495 357.57 529.495 359.356V371.138C529.495 372.923 528.066 374.351 526.28 374.351Z" fill="#58B58B"/>
<path d="M488.421 403.449H468.598C466.812 403.449 465.384 402.021 465.384 400.236V388.454C465.384 386.669 466.812 385.241 468.598 385.241H488.421C490.207 385.241 491.635 386.669 491.635 388.454V400.236C491.635 402.021 490.207 403.449 488.421 403.449Z" fill="#58B58B"/>
<path d="M526.28 403.449H506.458C504.672 403.449 503.243 402.021 503.243 400.236V388.454C503.243 386.669 504.672 385.241 506.458 385.241H526.28C528.066 385.241 529.495 386.669 529.495 388.454V400.236C529.495 402.021 528.066 403.449 526.28 403.449Z" fill="#58B58B"/>
<path d="M564.14 403.449H544.317C542.531 403.449 541.103 402.021 541.103 400.236V359.177C541.103 357.392 542.531 355.964 544.317 355.964H564.14C565.925 355.964 567.354 357.392 567.354 359.177V400.236C567.354 402.021 565.925 403.449 564.14 403.449Z" fill="#58B58B"/>
<g opacity="0.45">
<path opacity="0.45" d="M463.42 289.377C463.42 287.592 464.849 286.163 466.634 286.163H562.176C563.961 286.163 565.39 287.592 565.39 289.377V311.691C565.39 313.477 563.961 314.905 562.176 314.905H466.634" fill="#E2DEFF"/>
<path opacity="0.45" d="M486.636 343.289H466.813C465.027 343.289 463.599 341.861 463.599 340.076V328.294C463.599 326.508 465.027 325.08 466.813 325.08H486.636C488.422 325.08 489.85 326.508 489.85 328.294V340.076C489.672 341.861 488.243 343.289 486.636 343.289Z" fill="#E2DEFF"/>
<path opacity="0.45" d="M524.495 343.289H504.673C502.887 343.289 501.458 341.861 501.458 340.076V328.294C501.458 326.508 502.887 325.08 504.673 325.08H524.495C526.281 325.08 527.71 326.508 527.71 328.294V340.076C527.531 341.861 526.102 343.289 524.495 343.289Z" fill="#E2DEFF"/>
<path opacity="0.45" d="M562.354 343.289H542.532C540.746 343.289 539.317 341.861 539.317 340.076V328.294C539.317 326.508 540.746 325.08 542.532 325.08H562.354C564.14 325.08 565.569 326.508 565.569 328.294V340.076C565.39 341.861 563.962 343.289 562.354 343.289Z" fill="#E2DEFF"/>
<path opacity="0.45" d="M486.636 372.387H466.813C465.027 372.387 463.599 370.959 463.599 369.174V357.392C463.599 355.607 465.027 354.179 466.813 354.179H486.636C488.422 354.179 489.85 355.607 489.85 357.392V369.174C489.672 370.959 488.243 372.387 486.636 372.387Z" fill="#E2DEFF"/>
<path opacity="0.45" d="M524.495 372.387H504.673C502.887 372.387 501.458 370.959 501.458 369.174V357.392C501.458 355.607 502.887 354.179 504.673 354.179H524.495C526.281 354.179 527.71 355.607 527.71 357.392V369.174C527.531 370.959 526.102 372.387 524.495 372.387Z" fill="#E2DEFF"/>
<path opacity="0.45" d="M486.636 401.664H466.813C465.027 401.664 463.599 400.236 463.599 398.451V386.669C463.599 384.884 465.027 383.455 466.813 383.455H486.636C488.422 383.455 489.85 384.884 489.85 386.669V398.451C489.672 400.236 488.243 401.664 486.636 401.664Z" fill="#E2DEFF"/>
<path opacity="0.45" d="M524.495 401.664H504.673C502.887 401.664 501.458 400.236 501.458 398.451V386.669C501.458 384.884 502.887 383.455 504.673 383.455H524.495C526.281 383.455 527.71 384.884 527.71 386.669V398.451C527.531 400.236 526.102 401.664 524.495 401.664Z" fill="#E2DEFF"/>
</g>
<path d="M562.354 401.664H542.532C540.746 401.664 539.317 400.236 539.317 398.451V357.392C539.317 355.607 540.746 354.179 542.532 354.179H562.354C564.14 354.179 565.569 355.607 565.569 357.392V398.451C565.39 400.236 563.962 401.664 562.354 401.664Z" fill="#FCA70C"/>
<path d="M541.103 400.236V359.177C541.103 357.392 542.532 355.964 544.318 355.964H564.14C564.497 355.964 564.854 355.964 565.212 356.142C564.676 354.893 563.604 354 562.176 354H542.353C540.567 354 539.139 355.428 539.139 357.213V398.272C539.139 399.7 540.032 400.772 541.282 401.307C541.103 401.129 541.103 400.772 541.103 400.236Z" fill="#F9C110"/>
<path opacity="0.35" d="M454.134 306.336L457.348 314.905H470.921C470.921 314.905 470.028 351.679 469.849 358.463C469.849 365.425 475.564 412.911 475.564 412.911H483.421L482.528 353.107L493.6 322.402C493.6 322.402 501.994 363.461 505.387 370.424C508.78 377.386 527.531 413.089 527.531 413.089H534.674L516.28 334.363L508.423 307.05L468.599 288.484L454.312 289.912" fill="#3A966C"/>
<path d="M184.297 336.862L178.047 402.2H239.836L233.943 336.862H184.297Z" fill="#FCA70C"/>
<path d="M195.012 342.932C195.012 341.861 196.083 340.968 197.333 340.968C198.583 340.968 199.655 341.861 199.655 342.932C199.655 344.003 198.583 344.896 197.333 344.896C196.083 344.896 195.012 344.003 195.012 342.932ZM197.333 341.682C196.44 341.682 195.726 342.218 195.726 342.932C195.726 343.646 196.44 344.182 197.333 344.182C198.226 344.182 198.941 343.646 198.941 342.932C198.941 342.218 198.226 341.682 197.333 341.682Z" fill="#D85243"/>
<path d="M218.049 342.753H218.406H218.049C218.049 342.218 218.227 341.861 218.585 341.504C218.942 341.147 219.656 340.79 220.37 340.79C221.62 340.79 222.692 341.682 222.692 342.753C222.692 343.289 222.513 343.825 221.978 344.182C221.62 344.539 220.906 344.717 220.37 344.717C219.12 344.717 218.049 343.825 218.049 342.753ZM220.37 341.682C219.835 341.682 219.477 341.861 219.12 342.218C218.942 342.396 218.763 342.575 218.763 342.932C218.763 343.646 219.477 344.182 220.37 344.182C220.728 344.182 221.263 344.003 221.442 343.825C221.799 343.646 221.799 343.289 221.799 342.932C221.978 342.218 221.263 341.682 220.37 341.682Z" fill="#D85243"/>
<path d="M208.227 357.213C208.406 357.213 208.584 357.213 208.941 357.213C213.227 357.035 216.442 355.785 218.585 353.107C222.156 348.823 221.263 342.932 221.263 342.753C221.263 342.396 220.906 342.039 220.371 342.039C220.013 342.039 219.656 342.396 219.656 342.932C219.656 342.932 220.371 348.466 217.335 352.036C215.549 354.179 212.692 355.428 208.763 355.607C205.013 355.785 202.334 354.714 200.548 352.75C197.155 349.002 198.048 343.11 198.048 342.932C198.048 342.575 197.869 342.218 197.333 342.039C196.976 342.039 196.619 342.218 196.441 342.753C196.441 343.11 195.548 349.537 199.298 353.822C201.441 355.964 204.477 357.213 208.227 357.213Z" fill="#D85243"/>
<path d="M123.401 189.943C125.722 194.048 123.758 199.761 126.079 203.867C126.972 205.474 128.758 206.902 129.115 208.687C129.472 210.294 128.937 212.079 127.687 212.971C126.437 214.042 124.651 214.042 123.222 213.328C122.865 213.15 122.686 212.971 122.329 212.793C121.079 212.436 120.008 213.507 119.115 214.221C117.865 215.113 116.257 215.471 114.829 214.935C113.043 214.399 111.793 212.436 111.257 210.651C109.471 205.474 110.721 199.761 112.329 194.584C113.043 191.906 114.293 189.05 116.793 188.157" fill="#3A966C"/>
<path d="M179.118 233.858C179.118 234.393 180.011 234.929 179.475 236.179C178.225 238.856 174.118 242.605 169.296 240.82C169.118 240.82 142.509 256.172 140.544 256.172C138.58 256.172 124.472 242.962 120.008 226.717C118.936 222.79 119.293 218.327 123.043 216.363C123.043 216.363 126.079 217.077 128.044 220.826C131.08 226.539 140.187 245.461 142.152 246.175C144.652 244.569 156.795 240.82 166.617 236.714C168.76 235.821 169.653 234.929 170.368 233.501C171.082 232.073 172.868 228.681 174.475 227.074C175.011 226.539 180.904 223.325 180.904 224.396C180.904 224.932 179.118 226.539 176.975 227.967C175.904 228.681 175.368 230.109 175.011 230.644C174.654 231.359 179.118 229.93 179.654 231.537C179.475 231.894 179.118 233.501 179.118 233.858Z" fill="#FFB9B0"/>
<path d="M121.794 215.828C125.187 216.72 128.044 218.862 129.652 221.897C130.009 222.611 130.366 223.504 130.723 224.396C132.152 227.967 134.116 231.18 135.545 234.929C133.58 236.536 131.259 237.25 129.294 237.964C127.509 238.678 125.366 238.856 123.401 238.678C123.044 238.678 122.687 238.678 122.508 238.499C122.151 238.321 121.794 237.964 121.437 237.607C120.901 236.893 120.187 236.179 119.651 235.464C119.115 234.929 118.758 234.215 118.401 233.501C118.044 232.43 118.401 231.359 118.758 230.287" fill="#CC8322"/>
<g opacity="0.35">
<path opacity="0.35" d="M125.186 225.646C125.008 225.468 125.008 225.289 124.651 225.289C124.293 225.11 123.936 225.468 123.758 225.646C123.579 226.003 123.579 226.36 123.579 226.717C123.579 228.145 123.758 229.573 124.293 231.002L123.758 238.678C125.544 238.856 127.508 238.499 129.115 237.964C130.008 237.607 130.901 237.428 131.794 236.893C130.901 232.787 128.044 229.038 125.186 225.646Z" fill="#7762EF"/>
</g>
<path d="M113.401 208.33C113.401 208.33 113.222 213.15 114.115 213.328C115.544 213.864 117.151 214.221 117.151 214.221V224.039L104.115 222.076L95.0068 217.077C95.0068 217.077 104.472 214.042 104.472 212.971C104.472 212.079 103.936 206.723 103.936 206.723" fill="#FFB9B0"/>
<path d="M93.2207 350.608C89.6491 367.567 91.2563 390.953 90.542 403.806C90.7206 403.806 95.3637 404.52 95.3637 404.52C95.3637 404.52 106.436 350.608 108.4 340.254C108.579 339.54 108.579 338.826 108.579 338.291C109.115 330.436 101.971 330.079 98.0424 336.505C97.3281 337.576 96.7924 338.648 96.2566 339.897C96.078 340.433 95.8994 340.968 95.5423 341.504C94.828 343.11 94.2922 345.074 93.7565 346.859V347.038C93.5779 347.573 93.3993 348.109 93.3993 348.645V348.823C93.5779 349.537 93.3993 350.073 93.2207 350.608Z" fill="#FFB9B0"/>
<path d="M114.293 289.555C114.115 290.983 113.401 297.589 112.508 305.622C111.793 312.227 110.9 319.725 110.186 325.616C109.65 330.079 109.293 333.649 109.115 335.256C109.115 336.327 108.936 337.219 108.757 338.112C107.15 345.967 101.614 346.324 98.3997 344.539C97.864 344.36 97.5068 344.003 97.1496 343.646C96.4353 342.932 95.8996 342.218 95.721 341.325C95.5424 339.719 95.3638 337.576 95.1852 334.899C94.8281 329.9 94.4709 323.295 94.1137 317.047C93.7566 309.192 93.578 301.873 93.3994 297.589C93.3994 297.41 93.3994 297.053 93.3994 296.874C93.3994 283.843 105.186 275.631 112.686 279.737C112.865 279.737 112.865 279.737 112.865 279.915C113.043 279.915 113.043 280.094 113.222 280.094C114.115 280.629 114.293 282.593 114.293 284.735C114.472 286.342 114.472 288.127 114.293 289.555Z" fill="#FFB9B0"/>
<path d="M96.2569 338.469L95.3639 335.077C95.3639 335.791 95.5425 341.325 94.2924 346.859V347.038C94.1139 347.573 94.1139 348.109 93.9353 348.645V348.823C93.7567 349.716 93.5781 350.251 93.5781 350.608C93.5781 352.215 96.7926 345.253 97.5069 343.646C97.6855 343.468 97.6855 343.289 97.6855 343.289L96.7926 339.719L96.2569 338.469Z" fill="#FFB9B0"/>
<path d="M121.794 353.821C121.437 371.673 126.973 392.56 128.401 405.591C128.58 405.591 132.866 405.056 132.866 405.056C132.866 405.056 133.759 350.43 133.759 339.719C133.759 339.005 133.759 338.29 133.58 337.576C132.687 329.722 126.258 331.15 123.937 338.469C123.58 339.719 123.222 340.968 122.865 342.396C122.687 342.932 122.687 343.467 122.508 344.182C122.151 345.967 121.972 347.93 121.794 350.073V350.251C121.794 350.787 121.794 351.501 121.615 352.036V352.215C121.794 352.572 121.794 353.286 121.794 353.821Z" fill="#FFB9B0"/>
<path d="M125.544 346.681C125.008 346.502 124.651 346.324 124.294 346.145C123.401 345.61 122.865 344.896 122.687 344.182C122.151 342.575 121.615 340.433 121.08 337.933C119.83 332.935 118.401 326.687 117.151 320.439C115.544 312.763 114.115 305.443 113.222 301.159C113.222 300.98 112.508 297.946 112.508 297.589C110.186 284.557 120.365 276.166 127.687 278.666C127.866 278.666 127.866 278.666 128.044 278.844C129.473 279.38 130.009 284.735 130.187 288.127C130.545 291.697 133.045 328.115 133.58 334.72C133.759 335.791 133.759 336.684 133.759 337.755C133.58 345.788 128.759 347.573 125.544 346.681Z" fill="#FFB9B0"/>
<path d="M122.33 340.968L120.901 337.755C121.08 338.469 121.973 344.003 121.973 349.894V350.073C121.973 350.608 121.973 351.322 121.794 351.858V352.036C121.794 352.929 121.794 353.643 121.794 353.822C121.973 355.428 123.759 347.752 124.294 345.967C124.294 345.788 124.294 345.61 124.294 345.61L122.866 342.218L122.33 340.968Z" fill="#FFB9B0"/>
<path d="M99.8277 264.563C99.8277 264.563 90.3628 276.702 91.2557 288.841C91.6129 293.84 92.3272 298.303 92.863 303.48C92.863 304.194 94.113 314.905 93.7559 314.905C93.7559 314.905 113.4 320.974 132.508 312.941C132.508 311.691 134.115 286.699 123.758 262.956C111.257 264.92 99.8277 264.563 99.8277 264.563Z" fill="#3A966C"/>
<path d="M129.651 236.536C129.651 239.927 127.687 242.07 125.008 245.104C124.651 245.64 123.937 253.316 123.579 258.493C123.401 261.171 124.651 262.778 123.579 263.135C119.829 266.526 106.078 269.204 99.6495 264.563C100.364 259.029 97.8637 246.711 96.0779 240.284C95.8993 239.392 95.5422 238.499 95.3636 237.964C93.7563 233.144 90.899 217.97 93.042 217.256C93.3992 217.077 94.1135 216.899 94.8278 216.72C98.0423 215.649 103.043 214.042 103.043 214.042C103.043 214.042 105.9 222.433 113.4 223.504C117.508 221.897 117.151 216.72 116.972 214.399C118.222 214.756 118.936 215.113 123.044 216.363C124.115 217.97 123.222 221.54 125.008 226.717C125.722 227.967 129.83 232.43 129.651 236.536Z" fill="#CC8322"/>
<path d="M122.865 188.871C122.865 188.871 123.579 197.976 121.972 202.796C120.722 206.366 116.079 209.758 111.971 209.579C101.078 209.579 99.1133 194.763 99.1133 194.048C99.1133 193.334 115.364 187.086 115.364 187.086L122.865 188.871Z" fill="#FFB9B0"/>
<path d="M143.759 410.769C139.83 411.483 135.723 410.412 133.937 410.59C132.508 410.769 128.937 411.84 127.508 410.59C126.079 409.34 126.437 405.056 127.865 404.52C127.865 404.52 128.222 404.699 128.937 404.699C129.83 404.877 131.616 404.877 133.58 404.342C136.616 405.592 136.616 406.127 140.009 406.841C141.438 407.198 143.223 407.555 144.295 408.091C145.902 408.805 146.081 410.412 143.759 410.769Z" fill="#3A966C"/>
<path d="M101.613 412.375C97.6846 411.661 95.1845 409.519 93.5773 409.34C92.1486 409.162 88.577 408.448 88.2198 407.02C87.8626 405.949 88.9341 401.486 90.7199 401.486C90.7199 401.486 91.0771 401.664 91.6129 402.021C92.5058 402.557 93.9344 403.092 96.0774 403.271C98.399 405.413 98.399 405.949 101.256 407.734C102.506 408.448 103.935 409.519 104.828 410.412C106.078 411.304 103.935 412.911 101.613 412.375Z" fill="#3A966C"/>
<path d="M44.6465 230.109L48.2181 225.824L70.1837 245.461C70.1837 245.461 80.8986 231.18 83.7559 226.717C86.9704 221.897 89.8277 217.613 94.6494 216.899C95.7209 217.613 94.2922 235.107 93.7565 235.643C87.149 240.641 74.2911 256.529 70.1837 257.422C65.5406 258.136 44.6465 230.109 44.6465 230.109Z" fill="#FFB9B0"/>
<path d="M96.2564 216.006C96.2564 216.006 91.7919 216.006 89.8275 217.613C87.8631 219.219 78.7554 233.858 78.7554 233.858C78.7554 233.858 78.5768 236.536 81.2555 238.856C84.1129 241.356 87.8631 241.713 87.8631 241.713C87.8631 241.713 92.5062 237.071 95.0063 235.107C96.6136 233.858 96.7922 237.071 96.7922 237.071L105.007 229.038L96.2564 216.006Z" fill="#CC8322"/>
<path d="M93.578 216.185C93.3994 216.006 93.0422 215.828 92.8636 215.828C91.6136 215.113 90.3635 214.221 90.0063 212.793C89.292 210.651 88.9348 207.616 90.0063 205.652C90.7207 204.224 92.1493 203.331 93.0422 202.26C94.2923 200.654 94.6495 198.333 94.828 196.191C95.0066 194.048 94.828 191.906 95.1852 189.943C95.8995 186.372 96.971 182.98 99.6497 180.838C103.936 177.268 112.865 174.947 117.508 179.053C118.401 179.767 118.579 180.303 119.651 180.481C121.258 180.66 122.151 180.838 123.58 181.731C125.187 182.623 126.973 183.873 126.794 186.015C126.616 187.443 125.008 189.764 123.758 190.3C123.223 190.657 122.687 190.657 122.151 190.657C120.365 190.657 118.758 189.407 116.972 189.764C116.079 189.943 115.186 190.3 114.651 191.014C113.936 191.906 114.115 192.977 113.401 193.691C112.15 194.941 110.186 194.762 108.757 195.655C108.579 195.834 108.222 196.012 108.043 196.191C107.865 196.369 107.865 196.726 107.865 196.905C107.865 197.619 107.865 198.511 107.865 199.225C107.15 198.868 107.15 197.797 106.436 197.44C105.9 196.905 105.007 197.083 104.293 197.619C103.757 198.154 103.4 198.868 103.221 199.582C103.043 200.475 103.4 201.368 103.579 202.26C104.114 203.867 105.364 205.295 106.436 204.224C107.15 205.295 106.436 207.259 106.257 208.687C106.257 209.758 106.257 211.722 107.15 212.436C108.043 213.15 109.472 212.614 109.472 214.221C109.472 215.649 108.043 216.899 106.614 217.077C105.186 217.256 103.757 216.72 102.328 216.363C100.9 216.006 99.2926 215.649 98.0425 216.185C97.1496 216.542 96.4353 217.077 95.5424 217.256C95.1852 216.899 94.2923 216.542 93.578 216.185Z" fill="#3A966C"/>
<path d="M53.7545 230.823C53.7545 230.823 48.5757 226.717 48.2185 225.646C47.8613 224.575 47.8613 223.325 47.3256 222.254C46.7898 220.647 45.3612 219.398 43.7539 218.684C42.5039 218.148 43.0396 217.791 41.7895 217.97C39.6466 218.327 38.7536 220.469 37.8607 222.076C34.2891 228.859 44.1111 230.109 44.4683 230.287C45.1826 230.287 48.7542 234.393 48.7542 234.393" fill="#FFB9B0"/>
<path d="M37.503 227.431L41.0747 229.752C41.6104 230.109 42.1462 229.93 42.5033 229.395L50.1823 216.363L45.5392 213.864L37.1459 226.003C36.9673 226.539 36.9673 227.074 37.503 227.431Z" fill="#3A966C"/>
<path d="M24.8243 199.94L26.0744 200.832L31.0747 193.691L29.8246 192.799C28.0388 191.549 25.5386 192.263 24.2886 194.227C22.8599 196.191 23.2171 198.69 24.8243 199.94Z" fill="#C4C4F7"/>
<path d="M20.3594 208.687L43.0393 212.079L48.2181 204.581L36.7889 184.766L20.3594 208.687Z" fill="#58B58B"/>
<path d="M21.7881 208.865L43.0393 212.079L45.0037 209.044L27.3241 201.011L21.7881 208.865Z" fill="#BBBBF2"/>
<path d="M52.3262 217.434C53.5763 218.327 55.3621 217.791 56.255 216.363L57.1479 215.113C58.0409 213.685 57.8623 211.9 56.6122 211.186C55.3621 210.293 53.5763 210.829 52.6834 212.257L51.7905 213.507C50.8976 214.935 51.0762 216.72 52.3262 217.434Z" fill="#C4C4F7"/>
<path d="M52.6834 212.257L51.7905 213.507C50.8976 214.935 51.0762 216.72 52.3262 217.434C53.5763 218.327 55.3621 217.791 56.255 216.363L57.1479 215.114C57.1479 214.935 57.3265 214.935 57.3265 214.756C56.4336 215.828 54.8264 216.185 53.5763 215.471C52.5048 214.756 52.1477 213.15 52.862 211.722C52.862 212.079 52.862 212.079 52.6834 212.257Z" fill="#BBBBF2"/>
<path d="M19.646 209.401C20.3603 209.936 21.4318 209.579 21.9676 208.865L37.5042 186.372C38.0399 185.48 37.8614 184.587 37.147 184.051C36.4327 183.516 35.3612 183.873 34.8255 184.587L19.4674 207.08C18.7531 207.794 18.9317 208.865 19.646 209.401Z" fill="#A4A4F7"/>
<path d="M37.5034 184.23L24.6455 202.974C24.1098 203.867 23.0383 204.045 22.324 203.51C22.1454 203.331 21.9668 203.331 21.9668 203.153L19.2881 206.902C18.7523 207.794 18.9309 208.687 19.6452 209.222C20.3596 209.758 21.4311 209.401 21.9668 208.687L37.5034 186.194C37.8606 185.658 37.8606 184.766 37.5034 184.23Z" fill="#8484EF"/>
<path d="M45.0041 216.006L46.4327 217.077C48.5757 218.505 51.7902 217.791 53.3974 215.292L54.8261 213.15C56.4333 210.651 56.0761 207.437 53.9331 206.009L52.5045 204.938C50.3615 203.51 47.147 204.224 45.5398 206.723L44.1111 208.865C42.5039 211.365 42.8611 214.578 45.0041 216.006Z" fill="#58B58B"/>
<path d="M44.2897 208.687L42.1467 211.9C41.611 212.614 41.7896 213.685 42.3253 214.221L49.1114 218.862C49.8257 219.398 50.7186 219.041 51.2544 218.327L53.3974 215.114C52.8616 215.828 51.7901 216.185 51.2544 215.649L44.4683 211.008C43.754 210.472 43.754 209.579 44.2897 208.687Z" fill="#3A966C"/>
<path d="M38.2176 224.218C37.8605 222.254 38.3962 220.291 39.4677 218.862C39.8249 218.327 40.3606 217.97 40.7178 217.434C40.8963 217.256 41.0749 217.077 41.4321 216.899C41.9678 216.72 42.5036 216.899 43.0393 217.256C43.5751 217.613 44.1108 217.97 44.468 218.684C44.8251 219.576 44.2894 220.29 43.3965 220.826L43.2179 221.005C43.2179 221.183 43.2179 221.362 43.3965 221.362C43.7537 221.897 43.9322 222.611 43.9322 223.147C43.9322 223.682 43.3965 224.218 42.6822 224.039C42.5036 224.039 42.1464 223.861 41.9678 224.039V224.218C41.9678 224.753 41.9678 225.289 41.6107 225.646C41.6107 225.825 41.4321 225.825 41.2535 225.825C41.0749 225.825 41.0749 225.825 40.8963 225.825C40.5392 225.646 40.0034 225.467 39.6463 225.289" fill="#FFB9B0"/>
<path d="M48.2176 225.825C48.039 225.11 47.8604 223.861 47.8604 222.968C47.8604 220.826 46.6104 218.862 44.8245 217.791C44.646 217.791 44.4674 217.613 44.2888 217.613C44.1102 217.613 43.9316 217.791 43.9316 218.148C43.9316 218.327 43.9316 218.505 44.1102 218.862C44.2888 219.576 45.1817 220.826 45.0031 221.362C44.646 222.433 44.2888 223.504 44.2888 224.575C44.2888 225.467 44.8245 227.074 45.896 227.253" fill="#FFB9B0"/>
<path d="M21.9668 173.876L26.6099 184.587" stroke="#C4C4F7" stroke-width="0.75" stroke-miterlimit="10" stroke-linecap="round" stroke-linejoin="round"/>
<path d="M12.501 183.337L21.7872 190.478" stroke="#C4C4F7" stroke-width="0.75" stroke-miterlimit="10" stroke-linecap="round" stroke-linejoin="round"/>
<path d="M6.6084 196.369L18.2162 197.44" stroke="#C4C4F7" stroke-width="0.75" stroke-miterlimit="10" stroke-linecap="round" stroke-linejoin="round"/>
<path d="M377.701 83.7247C377.701 83.7247 373.593 80.8684 373.415 79.6188C373.236 78.3691 370.379 73.3707 369.486 72.4781C368.593 71.407 363.593 69.8003 362.7 69.6218C361.628 69.4433 355.735 69.9788 356.45 70.8714C357.164 71.764 361.093 71.407 361.807 71.764C362.521 72.121 362.521 72.121 362.521 72.121C362.521 72.121 361.807 73.1921 362.164 73.7277C362.521 74.2632 360.914 75.3343 361.45 76.2269C361.986 77.298 361.271 77.1195 361.807 78.3691C362.7 80.1543 365.021 81.2254 365.557 80.6899C365.914 81.761 367.7 83.9032 369.307 83.7247C370.915 83.5461 374.843 87.295 374.843 87.295" fill="#FFB9B0"/>
<path d="M441.097 62.8381C441.276 65.6944 441.097 70.5144 441.812 71.2285C442.526 71.9425 445.205 71.764 445.205 71.764C445.205 71.764 435.918 83.3676 435.204 82.8321C434.311 82.118 423.418 73.3707 425.918 72.8351C428.418 72.2996 430.739 72.4781 430.739 71.2285C430.739 69.9788 430.561 68.7292 430.561 67.4796" fill="#FFB9B0"/>
<path d="M451.634 125.141C451.634 125.141 433.597 127.104 429.489 127.283C425.382 127.283 425.561 125.141 425.561 125.141C425.382 120.499 424.489 109.788 423.775 106.218C423.06 102.826 422.703 101.576 421.989 98.3631C420.382 91.2224 420.56 89.7942 418.953 80.8684L429.668 72.2995C429.668 72.2995 430.739 75.6914 435.204 75.6914C441.276 75.6914 443.062 71.5854 443.062 71.5854L457.705 81.4039L459.134 105.147L457.348 124.605" fill="#FCA70C"/>
<path d="M441.276 60.1604C440.919 61.5885 440.562 63.0166 440.026 64.2663C439.133 66.7655 437.705 67.6581 435.026 67.6581C433.24 67.6581 431.276 67.6581 429.49 67.8366C428.061 67.8366 426.276 67.8366 425.204 66.944C424.133 66.0514 424.133 64.2663 423.775 63.0166C423.418 61.2315 423.24 59.4463 423.061 57.8396C422.704 54.4478 422.525 50.8775 422.525 47.4856C422.525 46.9501 422.525 46.593 422.704 46.0575C422.704 45.879 422.883 45.7005 422.883 45.5219C423.061 45.3434 423.24 45.3434 423.597 45.3434C426.99 44.8079 430.562 44.6293 433.955 44.6293C436.455 44.6293 438.955 44.9864 440.919 46.4145C442.884 47.8427 443.777 50.3419 444.67 52.6626C444.848 53.0197 444.848 53.5552 444.491 53.7337" fill="#FFB9B0"/>
<path d="M400.916 189.407C400.916 189.407 401.452 192.977 401.988 194.227C402.523 195.477 406.452 194.405 406.809 193.513C406.988 192.799 405.559 186.908 405.559 186.908" fill="#ED9C80"/>
<path d="M408.238 194.405C408.596 195.655 408.953 198.333 408.953 198.333L405.024 200.118L404.31 199.582C404.31 199.582 403.238 200.832 402.167 201.368C401.274 201.725 399.309 202.26 398.238 202.439C394.666 202.796 392.166 202.082 391.987 201.725C391.095 199.761 395.738 199.225 396.631 198.868C399.309 198.154 400.738 195.834 401.095 194.405C401.274 193.334 401.095 193.156 401.631 193.156C401.631 193.156 402.167 193.156 402.702 193.691C403.417 194.405 404.488 194.763 405.56 194.405C406.095 194.227 406.631 193.691 406.988 193.156C406.81 192.977 407.881 193.156 408.238 194.405Z" fill="#31825D"/>
<path d="M418.596 142.457C412.346 143.707 404.488 143.707 398.059 142.992C398.952 145.492 401.095 148.705 401.988 152.454C404.667 164.236 405.738 180.124 406.453 189.943C406.453 189.943 405.202 192.442 400.917 190.478C394.666 174.947 383.594 143.528 383.773 136.566C383.951 127.819 405.56 125.855 421.453 123.713" fill="#3A966C"/>
<path d="M446.455 125.141C451.455 128.711 418.774 142.457 418.774 142.457C415.203 143.171 411.631 143.528 408.06 143.528C407.702 142.814 407.345 142.278 407.345 141.564C407.167 140.672 407.167 139.601 407.167 138.708C406.81 136.923 405.559 135.316 403.952 134.245C402.345 133.353 400.381 132.817 398.595 132.46C394.13 131.746 386.451 132.281 386.451 132.281C396.273 124.962 416.453 124.07 425.739 123.534C427.346 126.39 445.74 124.605 446.455 125.141Z" fill="#2E8D62"/>
<path d="M411.274 197.619C411.274 197.619 411.274 201.189 411.453 202.617C411.632 203.867 415.918 203.51 416.275 202.796C416.632 202.082 416.096 196.012 416.096 196.012" fill="#ED9C80"/>
<path d="M417.525 203.867C417.703 205.295 417.703 207.794 417.703 207.794L413.417 208.865L412.881 208.151C412.881 208.151 411.631 209.222 410.381 209.579C409.488 209.758 407.345 210.115 406.453 209.936C402.881 209.758 400.559 208.687 400.381 208.151C399.845 206.009 404.488 206.188 405.56 206.188C408.238 206.009 410.203 204.045 410.739 202.617C411.096 201.546 410.917 201.368 411.453 201.546C411.453 201.546 411.989 201.546 412.346 202.26C412.881 203.153 413.953 203.688 415.024 203.331C415.56 203.153 416.275 202.974 416.632 202.439C416.453 202.26 417.346 202.617 417.525 203.867Z" fill="#31825D"/>
<path d="M457.348 124.427C457.348 124.427 447.347 125.498 435.204 125.141C432.346 125.141 410.917 129.247 408.952 132.817C405.559 138.708 411.095 173.697 410.559 198.69C410.559 198.69 413.06 200.832 417.703 198.868C418.774 186.551 426.096 157.631 421.096 144.242C432.882 145.849 442.347 147.277 453.241 143.885C455.741 142.992 457.705 141.207 458.777 137.994C459.669 134.424 459.134 127.283 457.348 124.427Z" fill="#3A966C"/>
<path d="M429.49 72.2995C429.49 72.2995 426.99 72.4781 426.454 72.4781C424.311 72.6566 422.168 73.0136 420.025 73.7277C417.168 74.7988 415.025 77.4765 412.703 79.6188C410.382 81.5824 398.595 93.0076 396.274 93.3646C394.131 93.7216 374.665 80.5113 374.665 80.5113L369.844 85.3313C369.844 85.3313 390.916 104.79 397.167 104.79C400.203 104.79 416.989 96.0424 422.347 92.472L429.49 72.2995Z" fill="#FCA70C"/>
<path opacity="0.25" d="M397.346 100.862C393.06 101.041 373.237 86.0454 370.915 84.2602L370.022 85.1528C370.022 85.1528 391.095 104.611 397.346 104.611C399.846 104.611 411.989 98.5416 419.133 94.4357L420.918 93.3646L419.847 86.7595C419.847 86.938 401.989 100.684 397.346 100.862Z" fill="#CE4A30"/>
<path d="M377.165 128.354H425.382L416.81 100.148C416.274 98.5416 414.845 97.4705 413.238 97.4705H371.093C369.486 97.4705 368.236 99.0771 368.771 100.505L377.165 128.354Z" fill="#A4A4F7"/>
<path d="M376.629 128.354H424.132L415.56 100.148C415.024 98.5416 413.595 97.4705 411.988 97.4705H369.664C368.057 97.4705 366.807 99.0771 367.343 100.505L375.557 127.461C375.736 127.997 376.093 128.354 376.629 128.354Z" fill="#7A74D1"/>
<g opacity="0.25">
<path opacity="0.25" d="M450.74 85.8668C448.419 96.7564 447.883 105.147 447.169 113.001C438.775 116.215 435.382 121.213 426.989 124.784C426.989 124.784 420.56 123.713 419.846 126.212C419.488 127.64 427.525 128.711 427.525 128.711C435.204 128.711 455.383 123.177 456.633 122.82C458.062 122.463 461.991 96.7564 462.169 83.0106C462.169 81.0469 462.169 78.9047 460.919 77.298C460.205 76.4054 459.312 75.8699 458.419 75.5128C453.062 72.8351 449.133 71.9425 443.061 71.5854" fill="#CE4A30"/>
</g>
<path d="M428.239 126.39C427.346 125.319 425.739 125.141 424.31 125.141C423.239 125.141 422.167 125.319 421.096 125.319C420.56 125.319 420.024 125.498 420.024 126.033C420.024 126.569 422.346 126.033 423.596 126.39C421.096 126.569 418.596 126.747 416.096 126.569C415.738 126.569 415.56 126.569 415.203 126.569C414.846 126.747 414.667 126.926 414.667 127.283C414.667 127.461 414.846 127.64 415.024 127.818C415.738 128.354 416.631 128.711 417.524 128.89C421.275 129.604 425.382 129.425 428.775 127.818" fill="#FFB9B0"/>
<path d="M450.204 85.6883C450.026 97.292 449.133 102.647 449.49 114.251C443.597 115.501 435.561 122.106 427.346 125.676C427.346 125.676 426.81 127.283 427.703 128.711C428.417 128.89 455.562 122.284 457.705 120.321C459.669 118.536 462.169 96.7564 462.348 82.8321C462.348 80.8684 462.348 78.7262 461.098 77.1195C460.384 76.2269 459.491 75.6914 458.598 75.3343C453.24 72.6566 449.311 71.764 443.24 71.407" fill="#FCA70C"/>
<path opacity="0.45" d="M401.095 113.359C401.273 115.858 398.416 117.821 394.487 117.821C390.558 117.821 387.522 115.858 387.344 113.359C387.165 110.859 390.023 108.896 393.951 108.896C397.88 108.896 400.916 110.859 401.095 113.359Z" stroke="#A4A4F7" stroke-miterlimit="10"/>
<path d="M398.501 113.492C398.555 112.113 396.681 110.92 394.316 110.828C391.951 110.735 389.99 111.779 389.936 113.158C389.882 114.537 391.756 115.73 394.121 115.822C396.487 115.914 398.448 114.871 398.501 113.492Z" fill="#A4A4F7"/>
<path d="M432.883 52.8412C432.704 52.4841 431.811 52.3056 430.918 52.4841C430.025 52.6626 427.347 52.8412 426.811 53.3767C426.275 53.7337 426.275 54.0908 426.097 54.0908C425.739 54.0908 425.739 53.9123 425.204 53.5552C424.668 53.1982 423.061 53.5552 422.168 53.5552C421.275 53.7337 420.203 53.9123 420.382 54.2693C420.382 54.6263 420.561 55.5189 420.739 55.5189C420.918 55.6974 420.918 55.6974 421.632 57.3041C421.989 58.1967 422.704 58.9108 423.954 58.5537C425.561 58.1967 425.561 56.4115 425.739 55.6974C425.918 54.9834 425.918 54.8049 426.275 54.8049C426.454 54.8049 426.632 54.8049 426.99 55.5189C427.347 56.233 427.525 57.8396 429.133 58.0182C431.276 58.1967 432.168 57.4826 432.526 56.0545C432.883 54.2693 432.883 54.2693 433.061 54.0908L434.669 54.2693V53.7337C434.311 53.7337 432.883 53.0197 432.883 52.8412ZM425.025 56.59C425.025 57.4826 424.489 58.3752 423.418 58.5537C422.525 58.7322 421.989 58.1967 421.453 56.9471C420.918 55.876 420.918 54.9834 421.096 54.6263C421.275 54.2693 421.811 54.2693 423.061 54.2693C424.311 54.2693 424.668 54.0908 424.847 54.6263C425.025 54.8049 425.204 55.6974 425.025 56.59ZM431.99 55.5189C431.811 56.9471 431.276 57.4826 430.025 57.6611C428.061 57.8396 427.704 57.1256 427.525 56.233C427.168 55.3404 427.168 54.6263 427.168 54.4478C427.168 53.9123 427.704 53.7337 428.775 53.5552C430.025 53.3767 431.633 53.0197 431.811 53.3767C431.99 53.7337 432.168 54.4478 431.99 55.5189Z" fill="#31825D"/>
<path d="M445.741 49.8064C445.562 48.7353 445.384 47.8427 445.205 46.9501C444.491 44.4508 443.062 42.3086 440.74 41.059C437.883 39.4523 433.776 39.0953 430.74 39.9879C428.954 40.5235 428.24 41.416 427.347 41.416C426.632 41.416 425.74 40.8805 424.847 40.5235C417.703 37.8457 418.775 44.9864 419.668 46.9501C420.025 47.8427 421.632 48.3782 421.811 48.7353C421.989 49.0923 421.989 50.8775 422.168 51.5915C422.346 52.3056 423.061 52.6626 423.061 52.6626C423.061 52.6626 423.061 50.3419 423.061 50.1634C423.239 49.2708 423.418 48.5567 424.132 48.0212C424.847 47.4856 425.918 47.4856 426.811 47.3071C427.704 47.1286 431.811 48.0212 432.168 48.1997C433.597 49.2708 433.776 51.9486 434.311 53.5552C434.49 54.2693 434.669 54.8048 435.026 54.8048C435.204 52.6626 435.919 52.6626 437.347 53.3767C438.062 53.7337 438.419 55.1619 438.419 56.233C438.419 57.6611 437.705 59.0893 436.276 59.4463C435.74 59.6248 437.347 62.4811 438.062 63.1952C438.24 63.3737 438.597 63.7307 438.776 63.9092C438.955 64.0877 439.312 64.0878 439.669 64.2663C440.026 64.4448 440.383 64.4448 440.74 64.6233C441.276 64.8018 441.633 64.8018 442.169 64.8018C442.883 64.6233 443.419 63.7307 443.598 63.0166C444.133 61.767 444.848 60.6959 445.205 59.4463C445.741 56.59 446.098 53.0197 445.741 49.8064Z" fill="#31825D"/>
<path d="M575.57 156.738H484.314L495.208 148.705V109.074C495.208 105.861 497.887 103.183 501.101 103.183H575.391C578.606 103.183 581.284 105.861 581.284 109.074V150.669C581.642 154.061 578.963 156.738 575.57 156.738Z" fill="#81DFB5"/>
<path opacity="0.45" d="M573.784 110.859H531.996V114.787H573.784V110.859Z" fill="white"/>
<path opacity="0.45" d="M573.784 116.75H531.996V120.678H573.784V116.75Z" fill="white"/>
<path opacity="0.45" d="M573.784 122.82H531.996V126.747H573.784V122.82Z" fill="white"/>
<path opacity="0.45" d="M573.784 128.533H531.996V132.46H573.784V128.533Z" fill="white"/>
<path opacity="0.45" d="M561.105 135.495H531.996V139.422H561.105V135.495Z" fill="white"/>
<path d="M522.71 141.564H508.602C505.209 141.564 502.53 138.887 502.53 135.495V116.929C502.53 113.537 505.209 110.859 508.602 110.859H522.71C526.103 110.859 528.782 113.537 528.782 116.929V135.495C528.603 138.708 525.925 141.564 522.71 141.564Z" fill="#6CD1A4"/>
<path opacity="0.45" d="M528.782 145.313H502.53V148.526H528.782V145.313Z" fill="white"/>
<path d="M518.245 130.675H508.781C508.245 130.675 507.709 130.318 507.709 129.782L505.923 122.998C505.745 122.284 506.28 121.57 506.995 121.57H520.21C520.924 121.57 521.639 122.284 521.281 122.998L519.496 129.782C519.138 130.318 518.781 130.675 518.245 130.675Z" fill="white"/>
<path d="M519.853 132.281H508.424C508.245 132.281 508.245 132.103 508.245 132.103C508.245 131.924 508.424 131.924 508.424 131.924H519.674L523.603 118C523.603 117.821 523.782 117.821 523.782 117.821H526.282C526.46 117.821 526.46 118 526.46 118C526.46 118.179 526.282 118.179 526.282 118.179H523.96L520.032 132.103C520.032 132.281 520.032 132.281 519.853 132.281Z" fill="white"/>
<path d="M510.209 134.067C510.209 134.781 509.673 135.495 508.78 135.495C508.066 135.495 507.352 134.959 507.352 134.067C507.352 133.352 507.887 132.638 508.78 132.638C509.495 132.817 510.209 133.352 510.209 134.067Z" fill="white"/>
<path d="M518.781 135.495C519.57 135.495 520.21 134.855 520.21 134.067C520.21 133.278 519.57 132.638 518.781 132.638C517.992 132.638 517.353 133.278 517.353 134.067C517.353 134.855 517.992 135.495 518.781 135.495Z" fill="white"/>
<path d="M236.621 101.576H352.878L338.949 91.2224V27.6702C338.949 23.5643 335.556 19.994 331.27 19.994H236.443C232.335 19.994 228.764 23.3858 228.764 27.6702V93.9002C229.121 98.1846 232.514 101.576 236.621 101.576Z" fill="#81DFB5"/>
<g opacity="0.45">
<path opacity="0.45" d="M239.082 36.9215L292.3 36.9215V31.923L239.082 31.923V36.9215Z" fill="white"/>
<path opacity="0.45" d="M239.082 44.608L292.3 44.608V39.6095L239.082 39.6095V44.608Z" fill="white"/>
<path opacity="0.45" d="M239.082 52.1161L292.3 52.1161V47.1176L239.082 47.1176V52.1161Z" fill="white"/>
<path opacity="0.45" d="M239.082 59.592L292.3 59.592V54.5935L239.082 54.5935V59.592Z" fill="white"/>
<path opacity="0.45" d="M239.082 66.8894H292.3V61.8909L239.082 61.8909V66.8894Z" fill="white"/>
<path opacity="0.45" d="M239.082 80.3855H292.3V75.387H239.082V80.3855Z" fill="white"/>
<path opacity="0.45" d="M239.129 88.3618L329.849 88.3618V83.3634L239.129 83.3634V88.3618Z" fill="white"/>
</g>
<path d="M304.125 70.8714H322.162C326.448 70.8714 329.841 67.4796 329.841 63.1952V39.6309C329.841 35.3465 326.448 31.9546 322.162 31.9546H304.125C299.839 31.9546 296.446 35.3465 296.446 39.6309V63.1952C296.446 67.4796 299.839 70.8714 304.125 70.8714Z" fill="#6CD1A4"/>
<path opacity="0.45" d="M296.435 80.0285H329.83V75.9226H296.435V80.0285Z" fill="white"/>
<path d="M309.84 57.1256H321.984C322.698 57.1256 323.234 56.59 323.412 56.0545L325.734 47.4856C325.913 46.593 325.198 45.5219 324.305 45.5219H307.519C306.447 45.5219 305.733 46.4145 306.09 47.4856L308.412 56.0545C308.59 56.7685 309.126 57.1256 309.84 57.1256Z" fill="white"/>
<path d="M307.697 59.0893H322.341C322.519 59.0893 322.698 58.9108 322.698 58.7322C322.698 58.5537 322.519 58.3752 322.341 58.3752H308.054L303.054 40.702C303.054 40.5235 302.875 40.5235 302.697 40.5235H299.482C299.304 40.5235 299.125 40.702 299.125 40.8805C299.125 41.059 299.304 41.2375 299.482 41.2375H302.518L307.518 58.9107C307.518 59.0893 307.518 59.0893 307.697 59.0893Z" fill="white"/>
<path d="M320.02 61.5885C320.02 62.4811 320.734 63.3737 321.805 63.3737C322.698 63.3737 323.591 62.6596 323.591 61.5885C323.591 60.6959 322.877 59.8033 321.805 59.8033C320.912 59.8033 320.02 60.5174 320.02 61.5885Z" fill="white"/>
<path d="M307.161 61.5885C307.161 62.4811 307.875 63.3737 308.947 63.3737C309.84 63.3737 310.733 62.6596 310.733 61.5885C310.733 60.6959 310.018 59.8033 308.947 59.8033C308.054 59.8033 307.161 60.5174 307.161 61.5885Z" fill="white"/>
<path opacity="0.2" d="M505.565 436.297C533.871 436.297 556.818 433.899 556.818 430.941C556.818 427.983 533.871 425.586 505.565 425.586C477.258 425.586 454.312 427.983 454.312 430.941C454.312 433.899 477.258 436.297 505.565 436.297Z" fill="#58B58B"/>
<path d="M478.063 423.265C477.706 424.157 475.563 426.121 472.706 427.371C469.849 428.62 463.777 429.156 467.17 430.406C470.563 431.477 474.492 430.763 476.456 430.584C478.421 430.227 480.385 430.227 482.706 430.227C485.742 430.227 485.742 430.048 485.385 426.478C484.849 421.48 479.492 420.587 478.063 423.265Z" fill="#3A966C"/>
<path d="M533.96 421.48C533.782 422.372 535.21 425.407 532.71 427.549C530.21 429.691 524.674 432.012 528.424 432.012C532.174 432.012 535.746 431.298 537.532 430.227C539.496 429.334 537.889 427.906 540.21 427.192C543.246 426.3 542.711 423.979 541.103 422.551C538.96 417.909 534.496 418.445 533.96 421.48Z" fill="#3A966C"/>
<path d="M522.174 324.009C522.174 324.009 529.495 302.408 508.601 284.557C508.601 284.557 497.351 289.02 488.422 289.555C481.278 289.912 477.707 289.377 477.707 289.377C477.707 289.377 477.171 308.657 477.171 319.011L522.174 324.009Z" fill="#58B58B"/>
<path d="M475.564 359.891C475.207 350.251 485.564 351.501 489.493 358.641C497.529 373.637 486.457 407.912 485.029 424.336C483.6 424.871 480.921 425.407 479.493 424.693C478.421 424.157 477.885 422.908 477.885 422.908C478.242 402.914 476.099 370.245 475.564 359.891Z" fill="#58B58B"/>
<path d="M489.136 361.319C487.886 365.247 474.492 369.353 475.564 355.071C476.1 348.645 477.35 313.477 477.528 310.085C477.707 306.693 478.421 301.694 480.028 301.159C488.243 298.124 502.708 308.835 500.565 321.51C499.315 330.079 491.636 353.107 489.136 361.319Z" fill="#58B58B"/>
<path d="M510.208 366.853C506.994 357.749 517.53 356.142 523.423 361.676C537.353 374.887 537.889 405.77 541.282 421.837C539.317 423.086 536.281 423.622 535.21 423.622C534.138 423.622 533.603 422.729 533.603 422.729C528.067 403.628 513.78 376.672 510.208 366.853Z" fill="#58B58B"/>
<path d="M524.138 363.819C524.495 367.924 513.423 376.493 508.958 362.747C506.994 356.678 498.601 320.617 497.708 317.404C496.636 314.191 496.993 307.407 498.243 306.336C504.672 300.445 519.137 305.622 521.995 318.297C523.781 326.687 523.245 355.428 524.138 363.819Z" fill="#58B58B"/>
<path d="M466.635 206.366C466.992 206.009 467.349 205.652 467.706 205.117C470.385 201.725 470.742 198.69 473.242 194.763C473.599 194.227 474.135 192.62 475.028 191.371C475.921 189.943 478.421 188.514 478.957 188.157C480.028 187.622 479.135 190.121 479.135 190.121C479.135 190.121 480.028 188.693 481.1 188.871C481.457 188.871 481.457 191.014 481.457 191.371C481.457 194.405 480.743 197.262 479.493 199.94C479.136 200.475 478.778 201.189 478.778 201.903C479.671 201.903 480.386 201.368 481.1 200.832C481.814 200.297 482.707 199.761 483.6 200.118C483.421 200.475 483.243 200.832 483.064 201.189C481.993 203.153 480.921 205.295 478.778 206.188C477.528 206.723 476.278 206.902 475.028 207.437C472.885 208.508 471.814 211.186 469.671 212.257" fill="#F2A181"/>
<path d="M479.135 207.08L472.885 204.402C472.349 204.224 471.992 203.51 472.349 202.974L477.885 189.586C478.063 189.05 478.778 188.693 479.314 189.05L485.564 191.728C486.1 191.906 486.457 192.62 486.1 193.156L480.564 206.545C480.385 207.08 479.671 207.437 479.135 207.08Z" fill="#5E5DBB"/>
<path d="M485.871 192.711L478.786 189.749L472.997 203.584L480.082 206.546L485.871 192.711Z" fill="#B4B4DB"/>
<path d="M485.921 220.112C485.921 220.112 480.564 220.469 475.742 221.897C468.42 224.039 465.92 227.431 463.42 228.859C468.242 222.611 473.778 209.579 473.778 209.579C473.778 209.579 467.17 204.224 466.456 205.474C465.741 206.723 438.24 238.856 438.954 244.212C439.311 246.354 442.526 248.496 445.383 248.318C453.241 248.139 462.17 245.283 471.813 242.07C475.921 240.642 477.349 243.676 477.349 243.676" fill="#58B58B"/>
<path d="M463.42 228.681C463.42 228.681 460.027 235.643 458.955 236.179C457.884 236.714 461.455 234.75 463.42 232.787C465.384 230.823 468.063 225.468 468.063 225.468C466.991 225.825 463.42 228.681 463.42 228.681Z" fill="#3A966C"/>
<path d="M474.313 194.941C474.67 195.12 474.67 195.655 474.849 196.012C475.028 197.619 475.385 199.226 474.67 200.654C474.313 201.546 473.599 202.439 472.885 202.974C471.992 203.688 471.099 204.403 470.027 204.938" fill="#F2A181"/>
<path d="M486.1 183.337C484.314 183.873 483.242 186.194 482.707 187.8C481.992 189.764 481.635 191.906 481.278 193.87C481.099 195.298 480.921 196.905 481.635 198.154C481.992 198.868 482.349 199.404 482.885 199.94C483.064 200.297 483.421 200.654 483.778 200.832C484.135 201.011 484.492 201.189 485.028 201.011C485.564 200.832 485.742 200.118 485.921 199.583C486.993 195.655 488.064 191.906 490.386 188.514" fill="#2F7B59"/>
<path d="M483.956 195.477C483.956 194.227 482.706 193.513 481.456 194.762C480.563 195.834 480.206 197.797 480.206 199.225C480.206 201.011 481.456 201.368 482.706 201.546" fill="#F2A181"/>
<path d="M471.813 226.36C474.135 223.682 481.278 219.398 490.922 219.755C497.529 219.933 515.566 221.005 517.709 225.468C518.78 227.788 519.852 250.996 518.423 259.029C517.352 265.098 514.316 279.915 514.316 283.486C514.316 287.056 516.28 288.663 515.387 289.734C513.423 292.055 499.494 293.126 493.065 293.126C487.35 293.126 477.528 291.519 476.992 289.734C476.278 287.056 478.064 287.056 478.421 284.2C478.599 281.343 479.314 262.599 478.421 259.564C476.456 254.03 475.564 245.104 474.135 240.999C472.528 237.785 469.492 229.038 471.813 226.36Z" fill="#58B58B"/>
<path d="M513.066 245.283C513.78 246.711 518.423 254.209 518.423 254.209L518.602 255.101C518.423 256.708 518.245 257.958 518.066 259.029C516.995 265.098 513.959 279.915 513.959 283.486C513.959 287.056 515.745 288.484 515.03 289.734C513.423 291.876 487.35 296.696 488.6 290.805C488.779 290.269 510.387 273.667 510.566 273.132C511.637 268.312 512.53 264.92 512.887 261.528C514.137 252.959 512.352 243.676 513.066 245.283Z" fill="#3A966C"/>
<path d="M485.564 211.543C485.564 211.543 485.564 219.041 485.207 219.398C484.85 219.755 483.421 220.469 483.421 220.469C483.421 220.469 484.492 227.074 486.1 226.539C487.707 226.003 498.6 220.648 498.6 220.648C498.6 220.648 496.993 219.933 496.993 219.398C496.993 218.862 498.422 206.902 498.422 206.902" fill="#FFBE9D"/>
<path d="M493.243 184.051C491.636 184.409 487.528 183.694 486.278 185.301C485.207 187.086 484.135 191.192 483.6 192.263C482.707 194.584 482.171 197.083 481.635 199.404C480.742 202.439 479.492 208.151 482.528 210.651C483.421 211.365 483.778 211.722 484.85 211.9C486.278 212.079 487.707 212.436 489.136 212.793C491.279 213.15 493.779 213.685 495.922 212.971C498.779 212.079 500.386 207.973 501.279 205.295L505.565 189.586L493.243 184.051Z" fill="#FFBE9D"/>
<path d="M485.385 229.395C485.385 229.395 484.671 258.85 483.6 276.702L487.886 282.593L490.922 275.095C490.922 275.095 492.172 253.495 488.064 229.395H485.385Z" fill="#3A966C"/>
<path d="M484.313 226.896L484.492 227.253C484.671 227.967 485.028 228.681 485.385 229.395L488.064 229.573C488.064 229.573 489.849 228.681 490.028 227.61C490.207 226.539 486.992 224.932 486.992 224.932L486.635 225.111C485.742 225.468 485.028 226.003 484.313 226.896Z" fill="#3A966C"/>
<path d="M497.35 217.434C497.35 217.434 499.136 218.505 500.386 220.469C498.957 223.682 495.921 229.216 492.528 231.716C490.921 227.431 487.171 224.932 487.171 224.932C487.171 224.932 496.279 223.325 497.35 217.434Z" fill="white"/>
<path d="M487.171 224.932C487.171 224.932 483.778 226.182 481.813 229.93C481.813 229.93 481.099 224.932 482.528 220.648C482.528 220.648 484.671 217.791 485.385 217.791C485.206 221.362 487.171 224.932 487.171 224.932Z" fill="white"/>
<path d="M487.528 290.805C484.314 291.34 483.064 292.59 481.099 294.375C480.921 294.554 480.742 294.732 480.742 294.911C480.742 295.089 481.099 295.268 481.278 295.268C482.885 295.446 483.064 294.554 484.492 294.018C485.385 293.661 486.457 293.126 487.35 292.769" fill="#F2A181"/>
<path d="M476.278 266.705L487.885 304.194C488.243 305.265 487.707 305.979 486.635 306.157L462.348 308.3C461.455 308.3 460.562 307.585 460.384 306.693L447.883 269.918C447.526 268.847 448.955 267.419 450.026 267.419L474.313 265.277C475.206 265.098 476.099 265.812 476.278 266.705Z" fill="#E9E6FF"/>
<path d="M475.563 267.776L486.992 304.551C487.349 305.622 486.814 306.336 485.742 306.514L461.455 308.657C460.562 308.657 459.669 307.943 459.491 307.05L448.061 270.275C447.704 269.204 448.24 268.49 449.311 268.312L473.599 266.169C474.313 266.169 475.206 266.884 475.563 267.776Z" fill="#E0D9FF"/>
<path d="M456.098 266.527L456.991 269.74L468.241 268.669L467.348 265.455L456.098 266.527Z" fill="white"/>
<path d="M458.24 263.492C458.419 264.206 459.312 267.062 459.312 267.062L464.669 266.527L463.598 262.956C463.062 261.349 461.455 260.278 460.026 260.278C458.597 260.635 457.704 261.885 458.24 263.492ZM459.49 263.492C459.133 262.599 459.669 261.885 460.562 261.707C461.455 261.707 462.348 262.242 462.526 263.135C462.883 264.027 462.348 264.741 461.455 264.92C460.562 264.92 459.669 264.384 459.49 263.492Z" fill="white"/>
<path d="M496.814 288.127C494.314 288.663 487.528 290.626 486.814 290.983C485.921 291.34 483.063 293.483 482.528 294.197C480.028 296.696 481.278 297.946 480.206 301.516C480.206 301.694 480.206 301.873 480.206 302.051C480.206 302.409 480.742 302.766 481.278 302.409C481.456 302.944 482.349 302.587 482.706 302.051C482.706 302.409 483.242 302.587 483.956 302.23C484.313 302.051 484.313 302.051 485.206 301.159C485.921 300.623 486.635 300.088 488.064 299.552C488.957 299.195 490.028 298.838 490.742 298.303C491.814 297.589 493.6 297.41 494.493 294.554C494.671 293.84 495.386 293.483 495.921 293.126C497.35 292.233 498.779 291.34 500.029 290.448" fill="#FFBE9D"/>
<path d="M512.53 240.284C513.601 244.212 518.066 270.989 518.066 270.989L492.707 289.198L494.85 294.732C494.85 294.732 525.209 284.557 527.709 277.595C530.031 270.632 530.031 239.213 521.637 228.145C518.959 224.575 513.601 222.79 513.601 222.79" fill="#58B58B"/>
<path d="M486.456 297.767C485.742 298.481 485.028 299.017 484.492 299.731C483.956 300.445 483.42 301.159 482.706 301.694C483.063 300.802 483.599 300.088 484.313 299.374C484.67 299.017 485.028 298.66 485.385 298.481C485.563 298.124 486.099 297.946 486.456 297.767Z" fill="#F2A181"/>
<path d="M485.029 296.16C484.493 296.517 484.314 297.053 483.957 297.41C483.6 297.946 483.243 298.303 483.064 298.838C482.528 299.909 481.993 300.98 481.278 301.873C481.635 300.802 482.171 299.731 482.707 298.66C483.064 298.124 483.421 297.589 483.778 297.232C484.136 296.874 484.493 296.339 485.029 296.16Z" fill="#F2A181"/>
<path d="M483.421 294.732C483.064 295.268 482.706 295.625 482.349 296.16C481.992 296.517 481.813 297.053 481.635 297.589L480.385 300.623C480.385 299.552 480.742 298.303 481.278 297.41C481.456 296.875 481.813 296.339 482.171 295.982C482.706 295.446 483.064 295.089 483.421 294.732Z" fill="#F2A181"/>
<path d="M502.886 202.439C501.815 201.903 501.101 201.189 500.565 202.26C500.208 202.796 500.029 203.51 499.493 203.688C498.958 203.867 498.243 203.331 498.243 202.796C498.065 202.26 498.243 201.546 498.422 201.011C498.779 199.761 499.136 198.511 499.672 197.083C500.029 195.834 500.386 194.406 500.029 193.156C499.851 192.62 499.315 192.085 498.779 191.549C497.172 190.121 495.029 189.407 492.886 189.05C490.743 188.693 488.6 188.336 486.457 187.8C485.564 187.443 484.671 187.086 483.957 186.551C482.885 185.658 482.171 184.052 482.171 182.623C482.171 181.195 482.707 179.767 483.421 178.517C483.6 179.053 483.778 179.589 484.135 179.946C484.314 179.232 484.85 178.696 485.385 178.16C485.921 181.552 500.565 180.481 503.958 181.909C506.279 182.98 508.244 183.694 508.244 187.443C508.244 187.622 508.601 187.8 508.78 187.979C510.923 189.943 511.816 192.263 511.994 195.655C512.351 199.94 509.851 204.402 507.351 207.973C506.815 208.865 506.458 209.401 505.565 210.115C504.672 210.829 503.244 211.008 502.172 210.829C501.101 210.651 499.136 210.651 498.958 209.579C498.958 208.865 500.565 207.437 501.101 206.902" fill="#3A966C"/>
<path d="M498.957 206.545C498.957 206.545 498.779 207.259 499.314 207.794C499.672 208.33 500.565 208.151 501.1 207.973C502.707 207.437 503.779 206.009 503.958 204.402C504.315 202.617 503.243 200.654 501.636 201.189C500.743 201.546 500.029 202.617 500.029 203.688" fill="#FFBE9D"/>
<path d="M485.563 212.257L490.207 213.15C490.207 213.15 488.599 214.935 485.563 214.935" fill="#F2A181"/>
<g opacity="0.3">
<g opacity="0.3">
<g opacity="0.3">
<path opacity="0.3" d="M119.292 132.103L125.542 135.316L122.328 127.64" fill="#3939D3"/>
</g>
<path opacity="0.3" d="M99.8271 122.463C99.8271 129.425 105.72 134.959 113.042 134.959C120.364 134.959 126.257 129.425 126.257 122.463C126.257 115.501 120.364 109.967 113.042 109.967C105.72 109.967 99.8271 115.501 99.8271 122.463Z" fill="#3939D3"/>
</g>
<path opacity="0.3" d="M109.828 118.357V127.283C109.828 127.997 110.542 128.533 111.257 128.176L118.936 123.713C119.472 123.356 119.472 122.463 118.936 122.106L111.257 117.643C110.542 117.107 109.828 117.643 109.828 118.357Z" fill="#FEFEFE"/>
</g>
<g opacity="0.3">
<g opacity="0.3">
<g opacity="0.3">
<path opacity="0.3" d="M551.639 226.896L545.389 230.109L548.603 222.433" fill="#3939D3"/>
</g>
<path opacity="0.3" d="M571.105 217.256C571.105 224.218 565.212 229.752 557.89 229.752C550.568 229.752 544.675 224.218 544.675 217.256C544.675 210.294 550.568 204.759 557.89 204.759C565.212 204.759 571.105 210.294 571.105 217.256Z" fill="#3939D3"/>
</g>
<g opacity="0.3">
<g opacity="0.3">
<g opacity="0.3">
<path opacity="0.3" d="M555.569 223.147C558.426 223.147 561.283 223.147 563.962 222.968C564.855 222.968 565.569 221.719 564.498 221.183C564.855 221.005 565.391 220.826 565.569 220.29C565.748 219.933 565.569 219.219 565.033 219.219C566.105 219.398 566.462 217.97 565.569 217.434C565.926 217.077 566.284 216.72 566.462 216.185C566.462 215.649 566.283 215.113 565.926 214.935C565.569 214.756 565.212 214.756 564.855 214.756C563.605 214.756 562.533 214.756 561.283 214.756C561.64 212.971 561.64 211.008 560.747 209.579C560.39 209.044 559.676 208.508 559.14 208.865C558.605 209.222 558.783 210.115 558.783 210.651C558.962 212.793 557.533 215.113 555.569 216.185C555.39 216.006 555.569 220.826 555.569 223.147Z" fill="#FEFEFE"/>
</g>
</g>
<path opacity="0.3" d="M554.497 216.006H550.211V223.147H554.497V216.006Z" fill="#FEFEFE"/>
</g>
</g>
<g opacity="0.3">
<g opacity="0.3">
<g opacity="0.3">
<path opacity="0.3" d="M351.628 118.714L356.271 113.894L350.021 115.144" fill="#3939D3"/>
</g>
<path opacity="0.3" d="M334.841 119.964C334.841 124.962 339.127 129.068 344.484 129.068C349.842 129.068 354.128 124.962 354.128 119.964C354.128 114.965 349.842 110.859 344.484 110.859C339.127 110.859 334.841 114.965 334.841 119.964Z" fill="#3939D3"/>
</g>
<g opacity="0.3">
<g opacity="0.3">
<g opacity="0.3">
<path opacity="0.3" d="M342.52 124.248C344.484 124.248 346.27 124.248 348.056 124.248C348.591 124.248 349.127 123.356 348.413 122.999C348.77 122.82 348.948 122.641 349.127 122.463C349.306 122.106 349.127 121.749 348.77 121.57C349.484 121.749 349.663 120.678 349.127 120.321C349.484 120.142 349.663 119.785 349.663 119.428C349.663 119.071 349.663 118.714 349.306 118.536C349.127 118.357 348.77 118.357 348.591 118.357C347.877 118.357 346.984 118.357 346.27 118.357C346.448 117.107 346.627 115.679 345.913 114.608C345.734 114.251 345.198 113.894 344.841 114.073C344.484 114.251 344.484 114.965 344.663 115.322C344.663 116.929 343.948 118.536 342.52 119.25C342.52 119.071 342.52 122.463 342.52 124.248Z" fill="#FEFEFE"/>
</g>
</g>
<path opacity="0.3" d="M341.806 119.071H338.948V124.248H341.806V119.071Z" fill="#FEFEFE"/>
</g>
</g>
<g opacity="0.3">
<path opacity="0.3" d="M396.274 52.6626C398.238 50.1634 399.31 47.1286 399.31 43.9153C399.31 36.0605 393.059 29.8124 385.202 29.8124C377.344 29.8124 371.094 36.0605 371.094 43.9153C371.094 51.7701 377.344 58.0182 385.202 58.0182C388.059 58.0182 390.738 57.1256 393.059 55.6974L398.595 58.5537L396.274 52.6626Z" fill="#3939D3"/>
<path opacity="0.3" d="M379.309 39.9879C380.737 38.7383 382.88 38.7383 384.131 39.9879L385.023 40.8805L385.916 39.9879C387.345 38.5598 389.488 38.7383 390.738 39.9879C391.988 41.4161 391.988 43.5583 390.738 44.8079L387.345 48.1997C386.809 48.7353 386.095 49.0923 385.381 49.0923C384.309 49.2708 383.238 48.9138 382.345 48.0212L379.13 44.6294C377.88 43.5583 377.88 41.4161 379.309 39.9879Z" fill="white"/>
</g>
</g>
<defs>
<clipPath id="clip0">
<rect width="612" height="472" fill="white"/>
</clipPath>
</defs>
</svg>
