<svg width="557" height="412" viewBox="0 0 557 412" fill="none" xmlns="http://www.w3.org/2000/svg">
<path d="M156.008 118.029H209.336C209.336 118.029 208.158 106.27 195.046 103.037C181.935 99.9501 177.074 111.121 177.074 111.121C177.074 111.121 164.699 103.478 156.008 118.029Z" fill="white"/>
<path d="M546.834 236.206L474.06 329.394L471.998 334.686L474.355 335.568C474.355 335.568 474.502 335.127 474.944 334.392H475.092C474.944 334.539 559.503 249.287 546.834 236.206Z" fill="#BECCFD"/>
<path d="M464.633 333.657L468.316 334.245L488.203 214.452C470.673 218.567 464.633 333.657 464.633 333.657Z" fill="#BECCFD"/>
<path d="M488.056 269.865C494.833 242.232 498.663 216.069 489.971 214.452C489.529 214.305 489.087 214.452 488.645 214.452L468.758 334.245L469.2 334.392L469.936 333.951L473.619 329.1L519.287 209.748C510.448 207.984 498.221 238.557 488.056 269.865Z" fill="#BECCFD"/>
<path d="M546.393 235.765C538.143 229.738 517.225 257.518 499.694 284.711C515.015 251.492 530.041 213.57 520.024 209.895H519.876L474.65 328.218L546.688 235.912C546.54 235.912 546.393 235.912 546.393 235.765Z" fill="#BECCFD"/>
<path d="M488.204 214.599L468.316 334.392H468.611L488.499 214.599C488.499 214.452 488.351 214.452 488.204 214.599Z" fill="white"/>
<path d="M519.433 209.895L473.766 329.247L474.502 328.365L519.728 210.042C519.728 209.895 519.581 209.895 519.433 209.895Z" fill="white"/>
<path d="M546.688 236.059L474.651 328.365L474.209 329.541L546.983 236.352C546.836 236.206 546.688 236.059 546.688 236.059Z" fill="white"/>
<path d="M555.968 298.674C555.968 298.086 555.821 297.645 555.379 297.204C551.401 291.619 531.956 304.995 514.867 318.664C531.514 301.026 548.75 280.448 544.33 275.451L487.172 341.594L555.968 298.674Z" fill="white"/>
<path d="M544.184 275.157C544.184 275.157 544.036 275.157 544.184 275.157C539.027 271.041 524.296 288.385 510.89 306.611C521.055 290.296 529.305 274.422 524.001 271.482C524.001 271.482 524.001 271.482 523.854 271.482L486.73 341.594L544.184 275.157Z" fill="white"/>
<path d="M484.373 343.799L484.668 343.946L485.404 343.064L484.373 343.799Z" fill="white"/>
<path d="M523.411 271.335C511.626 267.219 482.016 342.476 482.016 342.476L483.931 343.505L485.846 342.329L523.411 271.335Z" fill="white"/>
<path d="M486.435 342.476L485.993 343.064L485.551 343.946L488.055 345.857C488.055 345.857 488.35 345.71 488.644 345.269C488.644 345.269 555.526 311.462 556.115 298.968L486.435 342.476Z" fill="white"/>
<path d="M486.434 342.476L555.967 298.968C555.967 298.821 555.967 298.674 555.967 298.527L487.171 341.447L544.329 275.304C544.182 275.157 544.182 275.157 544.034 275.01L486.581 341.447L523.705 271.335C523.558 271.335 523.558 271.188 523.41 271.188L485.845 342.476L483.93 343.652L484.224 343.799L485.256 343.211L484.666 343.946L484.814 344.093L485.403 343.946L485.845 343.064L486.434 342.476Z" fill="#BECCFD"/>
<path d="M99.4375 288.238L134.204 372.755L136.561 371.873C136.561 371.873 112.843 285.005 99.4375 288.238Z" fill="#BECCFD"/>
<path d="M98.9952 288.385C92.8079 290.884 99.8791 309.551 109.16 328.806C96.6381 307.052 82.4958 286.328 76.3086 289.855L133.762 373.049L133.909 372.902L98.9952 288.385Z" fill="#BECCFD"/>
<path d="M129.048 374.078C129.49 374.519 129.784 374.813 129.784 374.813L132.141 373.343L60.5459 313.667C54.3586 325.573 129.048 374.078 129.048 374.078Z" fill="#BECCFD"/>
<path d="M103.12 341.447C85.8843 324.25 66.144 307.199 60.988 312.932C60.8407 313.079 60.8407 313.226 60.6934 313.373L132.436 373.196L132.731 373.049L133.32 373.196L76.0142 290.002C69.8269 294.559 86.6209 319.693 103.12 341.447Z" fill="#BECCFD"/>
<path d="M60.6922 313.373L60.5449 313.667L131.993 373.343L132.288 373.196L60.6922 313.373Z" fill="white"/>
<path d="M76.161 289.855L76.0137 290.002L133.319 373.196L133.614 373.049L76.161 289.855C76.3083 289.708 76.161 289.855 76.161 289.855Z" fill="white"/>
<path d="M98.9961 288.385L133.763 373.049L134.057 372.902L99.2907 288.385C99.2907 288.238 99.1434 288.238 98.9961 288.385Z" fill="white"/>
<path d="M71.3003 219.008C49.6449 228.856 134.351 356.44 134.351 356.44H134.499C134.793 357.468 134.941 357.909 134.941 357.909L139.065 357.321L72.1842 218.714C71.8896 218.861 71.5949 218.861 71.3003 219.008Z" fill="white"/>
<path d="M116.526 289.855C102.089 253.697 84.1164 216.069 72.4785 218.567L139.507 357.174L140.686 357.028L141.569 357.762H142.306L109.602 193.874C96.7856 196.078 105.772 245.76 116.526 289.855Z" fill="white"/>
<path d="M145.106 206.661C133.91 206.367 132.437 239.439 134.057 274.569C129.343 233.56 121.683 192.992 110.045 194.021L142.749 357.909H143.927L145.401 206.808C145.401 206.661 145.253 206.661 145.106 206.661Z" fill="white"/>
<path d="M145.694 206.661L144.221 357.762H147.167C147.314 357.909 168.528 209.748 145.694 206.661Z" fill="white"/>
<path d="M109.749 193.874C109.749 193.874 109.602 193.874 109.749 193.874L142.453 357.762H142.748L110.044 193.874C109.896 193.874 109.749 193.874 109.749 193.874Z" fill="#BECCFD"/>
<path d="M72.1836 218.714L139.065 357.174H139.359L72.3309 218.567C72.3309 218.714 72.3309 218.714 72.1836 218.714Z" fill="#BECCFD"/>
<path d="M145.401 206.661L143.928 357.762H144.222L145.696 206.661C145.696 206.661 145.548 206.661 145.401 206.661Z" fill="#BECCFD"/>
<path d="M460.656 382.162L475.977 403.328L495.275 379.222L479.365 356.44L460.656 382.162Z" fill="#9FB5F4"/>
<path d="M451.67 370.403L469.937 368.786L489.53 341.741C488.204 343.211 486.878 344.828 485.405 346.592C487.909 343.505 490.266 340.271 492.476 337.184L462.866 342.77L451.67 370.403Z" fill="#9FB5F4"/>
<path d="M530.632 334.98L518.847 315.872C512.512 319.546 505.294 325.279 497.191 333.51L511.923 358.497L530.632 334.98Z" fill="#9FB5F4"/>
<path d="M495.423 379.075L511.627 358.644L496.896 333.657C495.128 335.421 493.36 337.331 491.592 339.242L479.365 355.999L495.423 379.075Z" fill="#9FB5F4"/>
<path d="M556.707 329.1C555.823 323.662 553.024 317.635 548.015 313.814L537.998 326.455L556.707 329.1Z" fill="#9FB5F4"/>
<path d="M556.706 329.394L537.702 326.748L521.203 347.326L552.139 353.206C555.528 345.269 557.001 338.36 557.001 333.069C557.001 331.893 556.853 330.717 556.706 329.394Z" fill="#9FB5F4"/>
<path d="M547.72 313.667C541.533 309.257 532.252 308.228 519.141 315.725L530.779 334.833L547.72 313.667Z" fill="#9FB5F4"/>
<path d="M494.245 265.015C488.795 263.398 481.724 264.133 473.032 267.954C469.349 269.571 465.961 271.923 462.867 274.863L481.724 295.735L494.245 265.015Z" fill="#9FB5F4"/>
<path d="M485.699 391.716L517.077 397.008C525.18 390.54 531.809 383.779 537.26 377.164L502.493 370.697L485.699 391.716Z" fill="#9FB5F4"/>
<path d="M456.385 357.615L434.877 335.715C431.636 349.384 429.279 363.348 427.658 375.401L444.305 387.159L456.385 357.615Z" fill="#9FB5F4"/>
<path d="M427.658 375.695C424.859 396.273 424.27 411.559 424.27 411.559H434.434L444.304 387.453L427.658 375.695Z" fill="#9FB5F4"/>
<path d="M451.522 370.697L434.729 411.706H438.853L469.642 369.227L451.522 370.697Z" fill="#9FB5F4"/>
<path d="M506.913 278.39C504.851 271.776 500.579 267.072 494.539 265.162L488.352 280.448L506.913 278.39Z" fill="#9FB5F4"/>
<path d="M481.575 296.029L462.571 275.01C455.942 281.477 450.344 290.59 445.777 301.32L469.053 326.749L481.575 296.029Z" fill="#9FB5F4"/>
<path d="M468.906 327.189L445.63 301.761C441.211 312.05 437.822 323.662 435.023 335.421L456.679 357.321L468.906 327.189Z" fill="#9FB5F4"/>
<path d="M463.014 342.329L492.771 336.744C499.548 326.455 504.115 315.872 506.619 305.877L475.977 310.727L463.014 342.329Z" fill="#9FB5F4"/>
<path d="M460.508 382.456L439.295 411.706H469.347L475.829 403.622L460.508 382.456Z" fill="#9FB5F4"/>
<path d="M469.791 411.706H495.277C503.379 407.296 510.45 402.446 516.785 397.448L485.554 392.157L469.791 411.706Z" fill="#9FB5F4"/>
<path d="M476.125 310.433L506.767 305.583C509.271 295.294 509.271 286.034 507.061 278.831L488.205 280.889L476.125 310.433Z" fill="#9FB5F4"/>
<path d="M502.789 370.403L537.555 376.871C544.185 368.786 548.899 360.702 551.992 353.5L520.909 347.62L502.789 370.403Z" fill="#9FB5F4"/>
<path d="M537.702 326.749L556.705 329.394C556.705 329.247 556.705 329.1 556.705 329.1L537.996 326.455L548.014 313.814C547.867 313.814 547.867 313.667 547.719 313.667L530.778 334.833L519.14 315.725C518.993 315.725 518.993 315.872 518.845 315.872L530.631 334.98L511.922 358.35L497.19 333.363C497.043 333.51 497.043 333.51 496.895 333.657L511.627 358.644L495.422 379.075L479.512 356.146L491.739 339.389C491.003 340.124 490.266 341.006 489.53 341.741L469.937 368.786L451.67 370.403L463.013 342.623L492.623 337.037L493.212 336.891L493.507 336.45L492.918 336.597L463.16 342.182L475.977 310.58L506.618 305.73C506.618 305.583 506.618 305.436 506.766 305.436L476.124 310.286L488.204 280.742H488.056V280.448H488.351L494.538 265.162C494.391 265.162 494.391 265.162 494.244 265.015L481.722 295.735L462.718 274.863C462.571 275.01 462.571 275.01 462.424 275.157L481.427 296.176L468.905 326.895L445.63 301.467C445.63 301.614 445.482 301.761 445.482 301.761L468.758 327.189L456.531 357.321L434.876 335.421C434.876 335.568 434.876 335.715 434.728 335.862L456.236 357.762L444.156 387.306L427.51 375.548C427.51 375.695 427.51 375.842 427.51 375.842L444.156 387.6L434.286 411.706H434.581L451.228 370.844L469.495 369.227L438.706 411.706H439.148L460.361 382.456L475.682 403.622L469.347 411.706H469.789L485.405 392.157L516.636 397.448C516.783 397.301 516.93 397.302 516.93 397.155L485.552 391.863L502.346 370.844L537.113 377.312C537.26 377.165 537.26 377.165 537.407 377.018L502.641 370.55L520.908 347.767L551.991 353.647C551.991 353.5 552.139 353.5 552.139 353.353L521.202 347.473L537.702 326.749ZM475.977 403.328L460.656 382.162L479.365 356.293L495.275 379.222L475.977 403.328Z" fill="#5B79C4"/>
<path d="M488.057 280.742L506.913 278.684C506.913 278.537 506.913 278.537 506.766 278.39L488.057 280.448V280.742Z" fill="#BECCFD"/>
<path d="M97.3762 380.839H51.1191C56.5698 394.068 64.3775 405.827 69.5336 411.706H117.411L97.3762 380.839Z" fill="#9FB5F4"/>
<path d="M74.9828 346.592L46.4036 344.681C43.31 355.411 46.109 368.492 50.9704 380.545H97.0802L74.9828 346.592Z" fill="#9FB5F4"/>
<path d="M172.506 411.706H193.425C192.836 408.766 191.215 399.065 188.269 387.012L170.002 405.974L172.506 411.706Z" fill="#9FB5F4"/>
<path d="M117.264 289.414C103.416 291.472 98.2603 299.409 97.8184 309.551L127.281 311.609L117.264 289.414Z" fill="#9FB5F4"/>
<path d="M169.412 405.533L161.457 387.894H133.762L148.346 411.706H172.211L169.412 405.533Z" fill="#9FB5F4"/>
<path d="M169.854 405.533L188.269 386.572C184.881 372.755 179.872 355.264 172.948 338.948L152.029 365.7L169.854 405.533Z" fill="#9FB5F4"/>
<path d="M108.277 396.861L117.853 411.706H147.905L123.304 371.726L108.277 396.861Z" fill="#9FB5F4"/>
<path d="M151.736 365.259L172.655 338.507C167.204 325.72 160.575 313.667 152.62 304.554L136.268 330.717L151.736 365.259Z" fill="#9FB5F4"/>
<path d="M127.428 312.05L97.8171 309.845C97.5225 319.987 101.795 332.187 106.656 342.77L141.717 343.946L127.428 312.05Z" fill="#9FB5F4"/>
<path d="M152.325 304.26C143.486 294.412 133.174 288.238 120.947 288.973C119.768 289.12 118.59 289.12 117.559 289.267L135.973 330.276L152.325 304.26Z" fill="#9FB5F4"/>
<path d="M107.983 396.567L123.156 371.285L107.983 346.445C104.005 341.153 99.1437 335.862 93.8403 331.746L85.4434 362.025L107.983 396.567Z" fill="#9FB5F4"/>
<path d="M161.311 387.6L141.866 344.387L106.805 343.211C107.541 344.828 108.278 346.298 109.014 347.767L133.469 387.6H161.311Z" fill="#9FB5F4"/>
<path d="M93.3991 331.746C84.5602 325.132 73.9535 321.751 62.4629 326.895L85.1495 361.584L93.3991 331.746Z" fill="#9FB5F4"/>
<path d="M62.1662 326.895C61.577 327.189 60.9877 327.483 60.3984 327.777C52.8853 331.746 48.4659 337.625 46.5508 344.387L74.688 346.298L62.1662 326.895Z" fill="#9FB5F4"/>
<path d="M172.507 411.706L170.003 405.827L169.855 405.974L172.507 411.706Z" fill="#A4B5FD"/>
<path d="M172.506 411.706L172.653 411.999L172.506 411.706Z" fill="#A4B5FD"/>
<path d="M117.41 411.706H117.852L108.277 397.008L123.45 371.726L148.052 411.706H148.494L133.91 388.041H161.605L170.002 405.974L188.416 387.013L188.269 386.572L169.855 405.533L151.882 365.7L172.801 338.948C172.801 338.801 172.654 338.654 172.654 338.654L151.735 365.259L136.267 330.717L152.619 304.554C152.471 304.407 152.471 304.407 152.324 304.26L135.972 330.276L117.558 289.267C117.41 289.267 117.263 289.267 117.263 289.267L127.281 311.462L97.8174 309.404C97.8174 309.551 97.8174 309.698 97.8174 309.698L127.428 311.903L141.865 343.946L106.804 342.77C106.804 342.917 106.951 343.064 106.951 343.064L142.012 344.24L161.458 387.453H133.468L109.013 347.62C109.161 347.914 109.455 348.355 109.603 348.649C109.013 347.914 108.424 347.179 107.835 346.298L123.008 371.138L107.835 396.42L85.4429 362.025L93.6926 332.04C93.5453 331.893 93.5453 331.893 93.398 331.746L85.1483 361.584L62.4617 326.749C62.3144 326.749 62.3144 326.895 62.1671 326.895L74.6889 346.151L46.5516 344.24C46.5516 344.387 46.5516 344.534 46.4043 344.534L74.9835 346.445L97.0808 380.398H51.1184C51.1184 380.545 51.2657 380.692 51.2657 380.692H97.3755L117.41 411.706Z" fill="#5B79C4"/>
<path d="M172.506 411.706L170.002 405.827L172.506 411.706Z" fill="#A4B5FD"/>
<path d="M172.653 411.999L172.506 411.706L172.653 411.999Z" fill="#A4B5FD"/>
<path d="M172.213 411.706L172.36 412H172.655L172.507 411.706H172.213Z" fill="#A4B5FD"/>
<path d="M169.854 405.974L161.457 387.894L169.412 405.533L172.211 411.706H172.506L169.854 405.974Z" fill="#A4B5FD"/>
<path d="M276.053 411.16H346.322V357.804H276.053V411.16Z" fill="#3A966C"/>
<path d="M470.083 372.902H152.176C148.493 372.902 145.547 369.962 145.547 366.288V174.913C145.547 171.238 148.493 168.298 152.176 168.298H469.936C473.619 168.298 476.565 171.238 476.565 174.913V366.435C476.712 369.962 473.619 372.902 470.083 372.902Z" fill="#58B58B"/>
<path d="M465.664 175.06H154.092V365.112H465.664V175.06Z" fill="white"/>
<path d="M268.113 411.706H353.704C353.704 407.737 350.463 404.651 346.632 404.651H275.184C271.354 404.504 268.113 407.737 268.113 411.706Z" fill="#58B58B"/>
<path d="M272.534 243.849L279.899 232.972L263.4 216.509L252.499 224.006C248.227 221.507 243.512 219.596 238.651 218.273L236.294 205.486H213.018L210.514 218.42C205.652 219.743 200.938 221.654 196.666 224.153L185.765 216.803L169.265 233.266L176.779 244.143C174.274 248.405 172.359 253.109 171.033 257.959L158.217 260.311V283.535L171.181 286.034C172.506 290.884 174.422 295.588 176.926 299.85L169.56 310.727L186.059 327.189L196.961 319.693C201.233 322.192 205.947 324.103 210.808 325.426L213.165 338.213H236.441L238.946 325.279C243.807 323.956 248.521 322.045 252.793 319.546L263.695 326.895L280.194 310.433L272.681 299.556C275.185 295.294 277.1 290.59 278.426 285.74L291.243 283.388V260.164L278.279 257.665C276.953 252.668 275.038 248.111 272.534 243.849ZM224.803 299.703C209.335 299.703 196.961 287.209 196.961 271.923C196.961 256.489 209.483 244.143 224.803 244.143C240.272 244.143 252.646 256.636 252.646 271.923C252.646 287.356 240.124 299.703 224.803 299.703Z" fill="#DFE5FF"/>
<path d="M460.803 281.771V262.222L449.901 260.164C448.87 256.049 447.102 252.227 445.04 248.552L451.227 239.439L437.38 225.623L428.246 231.943C424.71 229.885 420.733 228.268 416.608 227.239L414.546 216.362H394.953L392.89 227.239C388.765 228.268 384.935 230.032 381.252 232.09L372.119 225.917L358.271 239.733L364.606 248.846C362.543 252.374 360.923 256.343 359.892 260.458L348.99 262.516V282.065L359.892 284.123C360.923 288.238 362.691 292.06 364.753 295.735L358.566 304.848L372.413 318.664L381.547 312.344C385.083 314.402 389.06 316.019 393.185 317.047L395.247 327.924H414.84L416.903 317.047C421.028 316.019 424.858 314.255 428.541 312.197L437.674 318.37L451.522 304.554L445.187 295.441C447.25 291.913 448.87 287.944 449.901 283.829L460.803 281.771ZM404.97 295.441C392.006 295.441 381.547 285.005 381.547 272.07C381.547 259.135 392.006 248.699 404.97 248.699C417.934 248.699 428.393 259.135 428.393 272.07C428.393 285.005 417.934 295.441 404.97 295.441Z" fill="#DFE5FF"/>
<path d="M346.781 254.138L357.83 243.114L352.821 235.765C354.441 232.825 355.767 229.738 356.651 226.504L365.343 224.888V209.307L356.651 207.69C355.767 204.457 354.441 201.37 352.821 198.43L357.83 191.228L346.781 180.204L339.415 185.202C336.469 183.585 333.375 182.262 330.134 181.38L328.514 172.708H312.898L311.278 181.38C308.037 182.262 304.943 183.585 301.997 185.202L294.779 180.204L283.73 191.228L288.739 198.577C287.118 201.517 285.792 204.604 284.908 207.837L276.217 209.454V225.035L284.908 226.651C285.792 229.885 287.118 232.972 288.739 235.912L283.73 243.114L294.779 254.138L302.144 249.14C305.091 250.757 308.184 252.08 311.425 252.962L313.046 261.634H328.661L330.282 252.962C333.523 252.08 336.616 250.757 339.562 249.14L346.781 254.138ZM320.706 235.912C310.394 235.912 301.997 227.533 301.997 217.244C301.997 206.955 310.394 198.577 320.706 198.577C331.018 198.577 339.415 206.955 339.415 217.244C339.415 227.533 331.018 235.912 320.706 235.912Z" fill="#DFE5FF"/>
<path d="M224.508 310.286C203.442 310.286 186.354 293.236 186.354 272.217C186.354 251.198 203.442 234.148 224.508 234.148C245.574 234.148 262.663 251.198 262.663 272.217C262.663 293.236 245.574 310.286 224.508 310.286ZM224.508 235.177C204.031 235.177 187.385 251.786 187.385 272.217C187.385 292.648 204.031 309.257 224.508 309.257C244.985 309.257 261.632 292.648 261.632 272.217C261.632 251.786 244.985 235.177 224.508 235.177Z" fill="white"/>
<path d="M235.318 321.016C262.327 315.059 279.384 288.384 273.414 261.435C267.445 234.486 240.71 217.468 213.7 223.424C186.691 229.381 169.634 256.055 175.604 283.005C181.573 309.954 208.308 326.972 235.318 321.016Z" stroke="white" stroke-width="0.7063" stroke-miterlimit="10"/>
<path d="M404.677 304.26C386.999 304.26 372.562 289.855 372.562 272.217C372.562 254.579 386.999 240.174 404.677 240.174C422.355 240.174 436.792 254.579 436.792 272.217C436.792 290.002 422.502 304.26 404.677 304.26ZM404.677 241.203C387.441 241.203 373.446 255.167 373.446 272.364C373.446 289.561 387.441 303.525 404.677 303.525C421.913 303.525 435.908 289.561 435.908 272.364C435.908 255.167 421.913 241.203 404.677 241.203Z" fill="white"/>
<path d="M404.676 314.255C427.864 314.255 446.661 295.5 446.661 272.364C446.661 249.228 427.864 230.473 404.676 230.473C381.489 230.473 362.691 249.228 362.691 272.364C362.691 295.5 381.489 314.255 404.676 314.255Z" stroke="white" stroke-width="0.5935" stroke-miterlimit="10"/>
<path d="M320.559 242.967C306.416 242.967 294.926 231.502 294.926 217.391C294.926 203.281 306.416 191.816 320.559 191.816C334.701 191.816 346.192 203.281 346.192 217.391C346.192 231.502 334.701 242.967 320.559 242.967ZM320.559 192.551C306.858 192.551 295.662 203.722 295.662 217.391C295.662 231.061 306.858 242.232 320.559 242.232C334.259 242.232 345.455 231.061 345.455 217.391C345.455 203.722 334.259 192.551 320.559 192.551Z" fill="white"/>
<path d="M326.098 250.436C344.396 247.39 356.754 230.12 353.701 211.863C350.648 193.606 333.339 181.276 315.041 184.323C296.743 187.369 284.385 204.639 287.439 222.896C290.492 241.152 307.801 253.483 326.098 250.436Z" stroke="white" stroke-width="0.4739" stroke-miterlimit="10"/>
<path d="M338.603 321.824C339.044 307.868 328.062 296.199 314.075 295.759C300.088 295.32 288.393 306.277 287.952 320.232C287.511 334.188 298.493 345.857 312.48 346.297C326.467 346.736 338.163 335.78 338.603 321.824Z" fill="#FFD258"/>
<path d="M321.051 340.241C331.681 335.935 336.799 323.846 332.484 313.24C328.168 302.634 316.052 297.527 305.423 301.833C294.793 306.139 289.674 318.228 293.99 328.834C298.306 339.44 310.421 344.547 321.051 340.241Z" fill="#FFB936"/>
<path d="M313.505 314.105C313.505 313.368 313.245 312.746 312.723 312.241C312.21 311.736 311.34 311.279 310.113 310.87C308.405 310.349 307.158 309.671 306.372 308.837C305.595 307.995 305.206 306.929 305.206 305.638C305.206 304.322 305.587 303.244 306.348 302.402C307.118 301.56 308.173 301.059 309.512 300.898V298.264H311.304V300.91C312.651 301.095 313.698 301.66 314.443 302.606C315.197 303.553 315.574 304.848 315.574 306.492H313.361C313.361 305.361 313.092 304.463 312.555 303.797C312.018 303.132 311.292 302.799 310.378 302.799C309.424 302.799 308.694 303.047 308.189 303.545C307.684 304.034 307.431 304.719 307.431 305.601C307.431 306.419 307.696 307.073 308.225 307.562C308.762 308.043 309.64 308.484 310.859 308.885C312.086 309.278 313.04 309.715 313.722 310.196C314.411 310.669 314.917 311.223 315.237 311.856C315.566 312.49 315.73 313.231 315.73 314.081C315.73 315.437 315.321 316.527 314.504 317.353C313.694 318.179 312.555 318.668 311.088 318.821V321.118H309.307V318.821C307.816 318.684 306.645 318.155 305.795 317.233C304.953 316.303 304.532 315.044 304.532 313.456H306.757C306.757 314.571 307.05 315.429 307.635 316.03C308.221 316.631 309.051 316.932 310.125 316.932C311.176 316.932 312.002 316.68 312.603 316.174C313.204 315.669 313.505 314.98 313.505 314.105Z" fill="#FFD258"/>
<path d="M279.683 108.723L248.463 100.605L236.945 144.699L268.166 152.817L279.683 108.723Z" fill="white"/>
<path d="M275.266 112.151L250.461 105.701L250.127 106.981L274.932 113.431L275.266 112.151Z" fill="#DFE5FF"/>
<path d="M274.229 116.433L249.424 109.983L249.089 111.263L273.894 117.714L274.229 116.433Z" fill="#DFE5FF"/>
<path d="M273.049 120.678L248.244 114.228L247.91 115.508L272.715 121.959L273.049 120.678Z" fill="#DFE5FF"/>
<path d="M272.012 124.961L247.207 118.511L246.873 119.791L271.678 126.241L272.012 124.961Z" fill="#DFE5FF"/>
<path d="M270.83 129.207L246.025 122.757L245.691 124.037L270.496 130.487L270.83 129.207Z" fill="#DFE5FF"/>
<path d="M269.793 133.489L244.988 127.039L244.654 128.319L269.459 134.769L269.793 133.489Z" fill="#DFE5FF"/>
<path d="M268.614 137.734L243.809 131.284L243.474 132.564L268.279 139.014L268.614 137.734Z" fill="#DFE5FF"/>
<path d="M267.434 141.979L242.629 135.529L242.295 136.809L267.099 143.259L267.434 141.979Z" fill="#DFE5FF"/>
<path d="M266.397 146.261L241.592 139.811L241.257 141.091L266.062 147.541L266.397 146.261Z" fill="#DFE5FF"/>
<path d="M354.004 90.2059L323.188 99.7276L336.696 143.252L367.513 133.73L354.004 90.2059Z" fill="#BECCFD"/>
<path d="M352.336 95.5895L327.852 103.155L328.244 104.418L352.728 96.8531L352.336 95.5895Z" fill="white"/>
<path d="M353.496 99.7449L329.012 107.31L329.404 108.574L353.888 101.008L353.496 99.7449Z" fill="white"/>
<path d="M354.842 103.997L330.357 111.562L330.75 112.826L355.234 105.261L354.842 103.997Z" fill="white"/>
<path d="M356.143 108.109L331.658 115.674L332.05 116.938L356.535 109.373L356.143 108.109Z" fill="white"/>
<path d="M357.488 112.361L333.004 119.927L333.396 121.19L357.881 113.625L357.488 112.361Z" fill="white"/>
<path d="M358.789 116.473L334.305 124.038L334.697 125.302L359.181 117.737L358.789 116.473Z" fill="white"/>
<path d="M360.135 120.725L335.65 128.291L336.043 129.554L360.527 121.989L360.135 120.725Z" fill="white"/>
<path d="M361.295 124.883L336.811 132.448L337.203 133.712L361.687 126.146L361.295 124.883Z" fill="white"/>
<path d="M362.639 129.135L338.154 136.7L338.546 137.964L363.031 130.399L362.639 129.135Z" fill="white"/>
<path d="M268.476 142.907L307.012 131.423L299.296 105.649L260.76 117.133L268.476 142.907Z" fill="#64B5F6"/>
<path d="M305.384 130.816L283.139 121.703L269.586 141.546" fill="#64B5F6"/>
<path d="M283.14 121.557H283.287L305.532 130.67C305.679 130.67 305.679 130.817 305.679 130.964C305.679 131.111 305.532 131.111 305.385 131.111L283.287 122.145L269.882 141.694C269.734 141.841 269.587 141.841 269.587 141.694C269.44 141.547 269.44 141.4 269.587 141.4L283.14 121.557C282.993 121.557 282.993 121.557 283.14 121.557Z" fill="#2C417C"/>
<path d="M262.369 117.588L284.614 126.701L298.167 106.858" fill="#64B5F6"/>
<path d="M262.369 117.294H262.516L284.614 126.26L298.019 106.711C298.167 106.564 298.314 106.564 298.314 106.711C298.461 106.858 298.461 107.005 298.314 107.005L284.761 126.701C284.761 126.848 284.614 126.848 284.466 126.848L262.222 117.735C262.074 117.735 262.074 117.588 262.074 117.441C262.222 117.441 262.222 117.294 262.369 117.294Z" fill="#2C417C"/>
<path d="M318.053 117.735C313.339 102.449 285.938 110.092 300.817 129.788C313.044 145.957 327.334 147.573 327.334 147.573C327.334 147.573 338.235 138.166 339.119 118.029C340.151 93.3357 313.339 102.449 318.053 117.735Z" fill="#CE4B59"/>
<path d="M355.35 98.3091L341.918 123.144L382.106 144.783L395.538 119.948L355.35 98.3091Z" fill="#64B5F6"/>
<path d="M394.216 120.234L381.694 143.458L343.245 122.733L355.766 99.5091L394.216 120.234ZM396.72 119.499L395.1 118.617L356.65 97.8923L355.03 97.0103L354.146 98.6272L341.624 121.851L340.74 123.468L342.361 124.35L380.81 145.075L382.431 145.956L383.314 144.34L395.836 121.116L396.72 119.499Z" fill="white"/>
<path d="M343.244 122.733L365.194 116.265L369.908 131.699L377.274 129.494L381.546 143.605L343.244 122.733Z" fill="#1A1947"/>
<path d="M374.917 117.441C373.885 119.205 374.622 121.41 376.39 122.439C378.158 123.468 380.367 122.733 381.399 120.969C382.43 119.205 381.693 117 379.925 115.971C378.158 115.09 375.948 115.677 374.917 117.441Z" fill="#FDD540"/>
<path d="M400.846 132.581L225.688 132.728L298.314 223.712V288.532C308.037 288.679 317.907 288.532 327.63 288.532V223.712L400.846 132.581Z" fill="#3A966C"/>
<path d="M431.927 59.97C431.927 59.97 436.199 59.0881 436.199 64.5266C436.199 69.9651 432.958 74.3746 429.57 73.0518C426.329 71.7289 431.927 59.97 431.927 59.97Z" fill="#1A1947"/>
<path d="M404.675 85.6925C404.675 85.6925 401.287 84.9576 400.845 85.5455C400.55 85.9865 402.76 86.2804 402.76 86.2804C402.76 86.2804 400.698 86.7214 399.814 86.8684C398.783 87.0153 398.93 88.3382 400.845 88.6322C402.76 88.9262 404.675 87.4563 404.675 87.4563V85.6925Z" fill="#F3A9B8"/>
<path d="M423.383 80.989L418.816 86.4274L403.938 85.5455V87.4563C403.938 87.4563 412.334 90.837 418.669 90.837C422.057 90.837 425.446 88.4852 427.95 86.4274C429.865 84.8106 429.718 81.4299 427.508 80.107C426.329 79.3721 424.562 79.6661 423.383 80.989Z" fill="#F3A9B8"/>
<path d="M439.589 108.769L445.039 165.653H441.357L430.013 116.559L423.089 165.653H419.701L420.585 108.769H439.589Z" fill="#F3A9B8"/>
<path d="M433.696 67.1723C433.696 67.1723 435.022 67.0253 435.022 68.4952C435.022 69.965 433.254 70.112 433.254 70.112L433.696 67.1723Z" fill="#F3A9B8"/>
<path d="M429.572 79.0781C431.045 79.0781 432.223 77.9023 432.223 76.4324V72.0228H427.067V76.4324C426.92 77.9023 428.098 79.0781 429.572 79.0781Z" fill="#E87D91"/>
<path d="M429.571 73.9337C431.928 73.9337 433.843 72.0228 433.843 69.6711V66.2904C433.843 63.9386 431.928 62.0278 429.571 62.0278C427.214 62.0278 425.299 63.9386 425.299 66.2904V69.6711C425.299 72.0228 427.214 73.9337 429.571 73.9337Z" fill="#F3A9B8"/>
<path d="M428.539 70.847C428.539 70.847 429.128 70.406 429.57 70.9939C430.012 70.406 430.602 70.9939 430.602 70.9939C430.602 70.9939 430.307 71.7289 429.57 71.7289C428.686 71.7289 428.539 70.847 428.539 70.847Z" fill="#CE4B59"/>
<path d="M431.632 68.2012C431.632 68.4952 431.485 68.7892 431.338 68.7892C431.19 68.7892 431.043 68.4952 431.043 68.2012C431.043 67.9073 431.19 67.6133 431.338 67.6133C431.485 67.6133 431.632 67.9073 431.632 68.2012Z" fill="#1A1947"/>
<path d="M428.097 68.2012C428.097 68.4952 427.95 68.7892 427.802 68.7892C427.655 68.7892 427.508 68.4952 427.508 68.2012C427.508 67.9073 427.655 67.6133 427.802 67.6133C427.95 67.6133 428.097 67.9073 428.097 68.2012Z" fill="#1A1947"/>
<path d="M431.044 70.7C431.044 70.7 430.602 71.1409 429.571 71.1409C428.54 71.1409 428.098 70.7 428.098 70.7" stroke="#1A1947" stroke-width="0.094429" stroke-miterlimit="10"/>
<path d="M429.718 70.259V68.2012C429.718 68.2012 428.098 70.259 429.718 70.259Z" fill="#E87D91"/>
<path d="M438.116 99.9501C437.232 97.3043 438.41 94.3646 438.705 91.5719C439 88.6322 439 85.5455 438.558 82.6058C437.379 76.1384 432.223 75.5505 432.223 75.5505C432.223 75.5505 430.013 76.5794 427.067 75.8445C422.5 79.3721 419.849 84.3696 422.5 95.9815C423.09 98.4802 421.911 100.979 421.174 103.331C420.438 105.829 419.849 108.328 419.407 110.827C418.228 116.559 417.492 122.439 416.902 128.318C416.902 128.318 431.045 131.846 445.187 128.024C445.629 127.877 444.892 121.41 444.892 120.822C444.598 118.323 444.303 115.678 443.714 113.179C443.125 110.68 442.388 108.181 441.357 105.829C440.62 104.066 439.589 102.449 438.705 100.832C438.41 100.685 438.263 100.391 438.116 99.9501Z" fill="#CE4B59"/>
<path d="M431.93 67.3193C431.93 67.3193 431.635 66.8784 430.898 67.0253" stroke="#1A1947" stroke-width="0.094429" stroke-miterlimit="10"/>
<path d="M427.215 67.3193C427.215 67.3193 427.509 66.8784 428.246 67.0253" stroke="#1A1947" stroke-width="0.094429" stroke-miterlimit="10"/>
<path d="M395.983 60.9989C384.345 60.9989 375.064 70.406 375.064 81.8709C375.064 93.3357 384.345 102.89 395.983 102.89C407.621 102.89 416.902 93.4827 416.902 81.8709C416.902 70.259 407.474 60.9989 395.983 60.9989ZM395.983 99.3621C386.26 99.3621 378.453 91.5719 378.453 81.8709C378.453 72.1698 386.26 64.3796 395.983 64.3796C405.706 64.3796 413.514 72.1698 413.514 81.8709C413.514 91.5719 405.559 99.3621 395.983 99.3621Z" fill="white"/>
<path d="M395.984 64.5266C386.261 64.5266 378.453 72.3168 378.453 82.0178C378.453 91.7189 386.261 99.5091 395.984 99.5091C405.707 99.5091 413.514 91.7189 413.514 82.0178C413.514 72.3168 405.559 64.5266 395.984 64.5266ZM395.984 95.8345C388.323 95.8345 381.989 89.5141 381.989 81.8709C381.989 74.2276 388.323 67.9072 395.984 67.9072C403.644 67.9072 409.979 74.2276 409.979 81.8709C409.979 89.6611 403.644 95.8345 395.984 95.8345Z" fill="#CE4B59"/>
<path d="M395.983 67.9073C388.323 67.9073 381.988 74.2276 381.988 81.8709C381.988 89.5141 388.323 95.8345 395.983 95.8345C403.644 95.8345 409.978 89.5141 409.978 81.8709C409.978 74.2276 403.644 67.9073 395.983 67.9073ZM395.983 92.3068C390.238 92.3068 385.524 87.6033 385.524 81.8709C385.524 76.1384 390.238 71.4349 395.983 71.4349C401.729 71.4349 406.443 76.1384 406.443 81.8709C406.443 87.7503 401.729 92.3068 395.983 92.3068Z" fill="white"/>
<path d="M395.983 71.4349C390.238 71.4349 385.523 76.1384 385.523 81.8709C385.523 87.6033 390.238 92.3068 395.983 92.3068C401.728 92.3068 406.442 87.6033 406.442 81.8709C406.442 76.1384 401.728 71.4349 395.983 71.4349ZM395.983 88.9262C392.153 88.9262 389.059 85.8395 389.059 82.0178C389.059 78.1962 392.153 75.1095 395.983 75.1095C399.813 75.1095 402.907 78.1962 402.907 82.0178C402.907 85.8395 399.813 88.9262 395.983 88.9262Z" fill="#CE4B59"/>
<path d="M395.982 74.9625C392.152 74.9625 389.059 78.0492 389.059 81.8709C389.059 85.6925 392.152 88.7792 395.982 88.7792C399.813 88.7792 402.906 85.6925 402.906 81.8709C402.906 78.0492 399.813 74.9625 395.982 74.9625ZM395.982 85.3985C394.067 85.3985 392.447 83.7817 392.447 81.8709C392.447 79.96 394.067 78.3432 395.982 78.3432C397.898 78.3432 399.518 79.96 399.518 81.8709C399.518 83.7817 397.898 85.3985 395.982 85.3985Z" fill="white"/>
<path d="M395.983 78.3432C394.068 78.3432 392.447 79.9601 392.447 81.8709C392.447 83.7817 394.068 85.3985 395.983 85.3985C397.898 85.3985 399.518 83.7817 399.518 81.8709C399.518 79.9601 397.898 78.3432 395.983 78.3432Z" fill="#CE4B59"/>
<path d="M412.777 65.1145V61.2929L409.389 64.6736L408.357 68.6422L395.541 81.4299L396.425 82.3118L409.241 69.5241L413.219 68.4952L416.607 65.1145H412.777Z" fill="#1A1947"/>
<path d="M433.548 69.8181C433.548 70.553 432.959 70.9939 432.37 70.9939C431.633 70.9939 431.191 70.406 431.191 69.8181C431.191 69.0831 431.781 68.6422 432.37 68.6422C432.959 68.6422 433.548 69.2301 433.548 69.8181Z" fill="#E87D91"/>
<path d="M427.951 69.8181C427.951 70.553 427.362 70.9939 426.772 70.9939C426.036 70.9939 425.594 70.406 425.594 69.8181C425.594 69.0831 426.183 68.6422 426.772 68.6422C427.509 68.6422 427.951 69.2301 427.951 69.8181Z" fill="#E87D91"/>
<path d="M413.367 93.0417C413.367 93.0417 409.684 93.9237 409.536 94.5116C409.536 95.0995 411.746 94.3646 411.746 94.3646C411.746 94.3646 409.978 95.6875 408.947 96.2754C407.916 96.8634 408.652 98.0392 410.715 97.4513C412.777 96.8634 414.103 94.8056 414.103 94.8056L413.367 93.0417Z" fill="#F3A9B8"/>
<path d="M430.455 80.548L428.098 87.4563L412.777 93.1888L413.514 94.9526C413.514 94.9526 423.384 94.3646 429.719 91.5719C433.107 90.1021 435.759 86.5744 437.379 83.4877C438.705 81.1359 437.084 78.1962 434.433 77.9023C432.665 77.7553 431.044 78.9312 430.455 80.548Z" fill="#F3A9B8"/>
<path d="M431.928 59.97C431.928 59.97 433.843 57.4713 436.347 59.5291C438.852 61.5869 437.82 65.1145 435.316 64.2326" fill="#1A1947"/>
<path d="M432.223 59.8231L434.58 65.8495C434.58 65.8495 434.727 67.7603 433.401 68.2012C432.812 65.4085 428.834 67.7603 426.772 63.9387C425.741 67.0254 424.857 67.6133 424.857 67.6133C424.857 67.6133 422.205 59.8231 432.223 59.8231Z" fill="#1A1947"/>
<path d="M445.04 160.214L445.629 165.653C445.629 165.653 447.986 165.359 450.343 168.298C443.567 168.298 441.357 168.298 441.357 168.298L439.736 160.214H445.04Z" fill="#1A1947"/>
<path d="M414.104 168.298C416.461 165.359 418.818 165.653 418.818 165.653H418.965L419.554 160.214H424.71L423.09 168.298C423.09 168.298 420.88 168.298 414.104 168.298Z" fill="#1A1947"/>
<path d="M403.646 305.436C401.583 303.966 398.195 304.113 396.722 306.024C395.101 308.228 391.86 308.816 392.744 311.756C393.628 314.696 389.503 315.725 392.597 319.105C395.691 322.486 404.824 322.78 407.034 320.428C409.096 318.076 408.507 312.785 406.297 310.874C404.382 309.551 406.15 307.199 403.646 305.436Z" fill="#64B5F6"/>
<path d="M404.529 321.751C404.529 321.751 409.537 321.898 415.135 334.686L422.059 326.308H424.858C424.858 326.308 418.229 339.536 414.693 339.536C411.158 339.536 404.234 331.305 404.529 321.751Z" fill="#E87D91"/>
<path d="M388.177 409.06C388.177 409.06 385.82 408.766 383.463 411.559C390.239 411.559 392.302 411.559 392.302 411.559L392.449 409.06H388.177Z" fill="#1A1947"/>
<path d="M411.305 409.06C411.305 409.06 413.662 408.766 416.019 411.559C409.243 411.559 407.181 411.559 407.181 411.559L407.033 409.06H411.305Z" fill="#1A1947"/>
<path d="M390.535 352.912L388.914 409.06H392.597L400.11 360.555L406.887 409.06H410.422L409.538 352.912H390.535Z" fill="#F3A9B8"/>
<path d="M407.033 340.565C407.18 339.977 407.18 339.536 407.327 338.948C410.863 326.161 408.064 320.428 398.488 320.428C388.913 320.428 391.417 333.657 392.743 338.507C392.89 339.095 393.038 339.683 393.038 340.418C393.038 341.741 390.386 349.825 390.533 352.912H409.537C409.537 349.237 407.327 344.093 407.033 340.565Z" fill="#1A1947"/>
<path d="M457.859 303.819C457.564 301.614 455.649 300.144 453.439 300.438C455.944 300.144 457.711 297.498 456.68 295C455.944 293.383 454.176 292.354 452.408 292.648L438.855 294.265C443.864 274.569 433.257 266.191 433.404 279.125V279.272C433.404 286.034 430.311 292.501 425.007 296.91C420.441 300.732 414.401 306.024 411.602 309.551L413.959 329.1L433.846 326.749L441.949 325.72L456.091 323.956C457.859 323.809 459.479 322.339 459.626 320.575C460.068 317.929 457.711 315.725 455.207 316.019C457.417 315.725 458.89 313.814 458.743 311.609C458.448 309.404 456.533 307.934 454.323 308.228C456.533 307.934 458.153 305.877 457.859 303.819Z" fill="#CE4B59"/>
<path d="M419.851 329.982L411.159 331.011L407.918 304.701L416.61 303.672L419.851 329.982Z" fill="#1A1947"/>
<path d="M411.012 326.748C411.012 326.748 412.485 323.221 413.221 323.221C413.811 323.221 412.632 325.279 412.632 325.279C412.632 325.279 414.253 323.809 414.989 322.927C415.726 322.045 416.757 322.927 415.873 324.838C414.989 326.748 412.632 327.63 412.632 327.63L411.012 326.748Z" fill="#F3A9B8"/>
<path d="M400.552 323.515C399.079 323.515 397.9 322.339 397.9 320.869V316.607H403.056V320.869C403.056 322.486 402.025 323.515 400.552 323.515Z" fill="#E87D91"/>
<path d="M397.164 323.221C398.637 325.279 403.203 333.51 403.203 333.51L411.306 326.161L414.105 326.602C414.105 326.602 405.561 339.095 402.025 339.095C400.404 339.095 392.597 333.51 393.186 324.397C393.333 321.751 395.69 321.016 397.164 323.221Z" fill="#F3A9B8"/>
<path d="M396.427 311.903C396.427 311.903 395.102 311.756 395.102 313.226C395.102 314.696 396.869 314.843 396.869 314.843L396.427 311.903Z" fill="#F3A9B8"/>
<path d="M404.676 311.903C404.676 311.903 406.002 311.756 406.002 313.226C406.002 314.696 404.234 314.843 404.234 314.843L404.676 311.903Z" fill="#F3A9B8"/>
<path d="M400.551 318.664C398.194 318.664 396.279 316.753 396.279 314.402V311.168C396.279 308.816 398.194 306.905 400.551 306.905C402.909 306.905 404.824 308.816 404.824 311.168V314.402C404.824 316.753 402.909 318.664 400.551 318.664Z" fill="#F3A9B8"/>
<path d="M399.373 315.578C399.373 315.578 399.962 315.137 400.552 315.725C401.141 315.284 401.73 315.725 401.73 315.725C401.73 315.725 401.435 316.313 400.699 316.313C399.52 316.313 399.373 315.578 399.373 315.578Z" fill="#CE4B59"/>
<path d="M398.342 312.932C398.342 313.226 398.489 313.52 398.636 313.52C398.784 313.52 398.931 313.226 398.931 312.932C398.931 312.638 398.784 312.344 398.636 312.344C398.489 312.344 398.342 312.638 398.342 312.932Z" fill="#1A1947"/>
<path d="M402.32 313.52C402.483 313.52 402.615 313.257 402.615 312.932C402.615 312.607 402.483 312.344 402.32 312.344C402.157 312.344 402.025 312.607 402.025 312.932C402.025 313.257 402.157 313.52 402.32 313.52Z" fill="#1A1947"/>
<path d="M399.078 315.284C399.078 315.284 399.52 315.725 400.551 315.725C401.582 315.725 402.024 315.284 402.024 315.284" stroke="#1A1947" stroke-width="0.093644" stroke-miterlimit="10"/>
<path d="M400.552 314.99V312.932C400.552 312.932 398.932 314.99 400.552 314.99Z" fill="#E87D91"/>
<path d="M398.195 312.05C398.195 312.05 398.49 311.609 399.227 311.756" stroke="#1A1947" stroke-width="0.093644" stroke-miterlimit="10"/>
<path d="M402.762 312.05C402.762 312.05 402.467 311.609 401.73 311.756" stroke="#1A1947" stroke-width="0.093644" stroke-miterlimit="10"/>
<path d="M397.753 315.725C398.404 315.725 398.931 315.198 398.931 314.549C398.931 313.899 398.404 313.373 397.753 313.373C397.102 313.373 396.574 313.899 396.574 314.549C396.574 315.198 397.102 315.725 397.753 315.725Z" fill="#E87D91"/>
<path d="M402.025 314.549C402.025 315.284 402.615 315.725 403.204 315.725C403.941 315.725 404.382 315.137 404.382 314.549C404.382 313.814 403.793 313.373 403.204 313.373C402.615 313.373 402.025 313.814 402.025 314.549Z" fill="#E87D91"/>
<path d="M395.837 310.727C395.837 310.727 400.404 312.05 403.203 307.052C397.899 304.407 395.395 308.522 395.837 310.727Z" fill="#64B5F6"/>
<path d="M390.976 349.531C390.976 349.531 399.815 352.177 409.096 349.531C409.096 349.531 411.158 354.382 411.158 366.288C408.065 368.933 402.025 367.904 400.552 367.316L400.11 360.555L399.668 367.316C399.078 366.876 393.038 369.962 388.914 365.847C388.472 356.146 390.976 349.531 390.976 349.531Z" fill="#CE4B59"/>
<path d="M222.887 86.2804C222.887 72.6108 216.11 74.6686 209.187 74.6686C202.263 74.6686 202.705 86.2804 202.705 86.2804L201.379 109.504H223.624L222.887 86.2804Z" fill="#E87D91"/>
<path d="M201.38 109.651L198.139 165.653H203.147L212.576 118.764L218.174 165.653H223.182L223.624 109.651H201.38Z" fill="#CE4B59"/>
<path d="M223.626 165.653C223.626 165.653 226.572 165.359 229.518 168.151C221.121 168.151 218.47 168.151 218.47 168.151L218.322 165.653H223.626Z" fill="#1A1947"/>
<path d="M197.697 165.653C197.697 165.653 194.751 165.359 191.805 168.151C200.202 168.151 202.853 168.151 202.853 168.151L203.001 165.653H197.697Z" fill="#1A1947"/>
<path d="M208.01 65.1145C208.01 65.1145 206.537 64.9675 206.537 66.5844C206.537 68.2012 208.452 68.3482 208.452 68.3482L208.01 65.1145Z" fill="#F3A9B8"/>
<path d="M217.143 65.1145C217.143 65.1145 218.616 64.9675 218.616 66.5844C218.616 68.2012 216.701 68.3482 216.701 68.3482L217.143 65.1145Z" fill="#F3A9B8"/>
<path d="M212.575 78.3432C210.955 78.3432 209.629 77.0203 209.629 75.4035V70.553H215.374V75.4035C215.521 77.0203 214.196 78.3432 212.575 78.3432Z" fill="#E87D91"/>
<path d="M212.575 72.7577C209.924 72.7577 207.861 70.7 207.861 68.0542V64.3796C207.861 61.7339 209.924 59.6761 212.575 59.6761C215.227 59.6761 217.29 61.7339 217.29 64.3796V68.0542C217.29 70.553 215.227 72.7577 212.575 72.7577Z" fill="#F3A9B8"/>
<path d="M201.233 49.0931C201.233 49.0931 201.97 44.8305 201.381 44.3896C200.792 44.0956 200.497 46.7413 200.497 46.7413C200.497 46.7413 199.908 44.2426 199.76 43.0667C199.613 41.7438 198.14 42.0378 197.698 44.3896C197.256 46.7414 199.024 49.0931 199.024 49.0931H201.233Z" fill="#F3A9B8"/>
<path d="M210.219 66.2904C210.219 66.5844 210.366 66.8783 210.661 66.8783C210.808 66.8783 211.103 66.5844 211.103 66.2904C211.103 65.9964 210.955 65.7025 210.661 65.7025C210.366 65.7025 210.219 65.9964 210.219 66.2904Z" fill="#1A1947"/>
<path d="M214.195 66.2904C214.195 66.5844 214.343 66.8783 214.637 66.8783C214.785 66.8783 215.079 66.5844 215.079 66.2904C215.079 65.9964 214.932 65.7025 214.637 65.7025C214.343 65.7025 214.195 65.9964 214.195 66.2904Z" fill="#1A1947"/>
<path d="M210.955 69.0831C210.955 69.0831 211.397 69.5241 212.576 69.5241C213.754 69.5241 214.196 69.0831 214.196 69.0831" stroke="#1A1947" stroke-width="0.1046" stroke-miterlimit="10"/>
<path d="M212.577 68.6422V66.4374C212.577 66.2904 210.809 68.6422 212.577 68.6422Z" fill="#E87D91"/>
<path d="M210.072 65.2615C210.072 65.2615 210.514 64.8206 211.103 64.9675" stroke="#1A1947" stroke-width="0.1046" stroke-miterlimit="10"/>
<path d="M215.082 65.2615C215.082 65.2615 214.64 64.8206 214.051 64.9675" stroke="#1A1947" stroke-width="0.1046" stroke-miterlimit="10"/>
<path d="M208.156 68.2012C208.156 68.9361 208.746 69.5241 209.482 69.5241C210.219 69.5241 210.808 68.9361 210.808 68.2012C210.808 67.4663 210.219 66.8783 209.482 66.8783C208.746 66.7314 208.156 67.4663 208.156 68.2012Z" fill="#E87D91"/>
<path d="M214.344 68.2012C214.344 68.9361 214.933 69.5241 215.67 69.5241C216.406 69.5241 216.995 68.9361 216.995 68.2012C216.995 67.4663 216.406 66.8783 215.67 66.8783C214.933 66.7314 214.344 67.4663 214.344 68.2012Z" fill="#E87D91"/>
<path d="M209.189 74.6686L201.381 67.4663V48.3582H199.171C199.171 48.3582 195.488 58.7941 195.488 66.7314C195.488 74.5216 204.769 82.7528 204.769 82.7528L209.189 74.6686Z" fill="#F3A9B8"/>
<path d="M223.919 49.0931C223.919 49.0931 223.182 44.8305 223.771 44.3896C224.361 44.0956 224.655 46.7413 224.655 46.7413C224.655 46.7413 225.245 44.2426 225.392 43.0667C225.539 41.7438 227.012 42.0378 227.454 44.3896C227.896 46.7414 226.129 49.0931 226.129 49.0931H223.919Z" fill="#F3A9B8"/>
<path d="M215.965 74.6686L224.362 66.7314L223.92 48.3582H226.13C226.13 48.3582 229.812 58.7941 229.812 66.7314C229.812 74.5216 220.532 82.7528 220.532 82.7528L215.965 74.6686Z" fill="#F3A9B8"/>
<path d="M226.865 75.2565C224.361 70.553 220.825 70.112 220.825 70.112L215.375 74.6686C215.375 75.2565 215.227 75.8445 215.08 76.2854C214.049 78.3432 210.955 78.3432 209.924 76.2854C209.777 75.8445 209.629 75.2565 209.629 74.6686L204.179 70.112C204.179 70.112 200.643 70.553 198.139 75.2565C199.906 79.5191 202.116 82.1648 202.116 82.1648L200.348 112.738C209.187 114.502 215.817 114.502 224.655 112.738L222.888 82.1648C222.888 82.1648 225.097 79.6661 226.865 75.2565Z" fill="#1A1947"/>
<path d="M213.754 0C193.866 0 191.509 20.7249 199.906 29.1031C208.303 37.4813 209.335 43.9486 209.335 43.9486H213.901H218.468C218.468 43.9486 219.499 37.4813 227.896 29.1031C235.999 20.7249 233.642 0 213.754 0Z" fill="#FFD258"/>
<path d="M209.04 44.6836H218.469C219.352 44.6836 220.089 43.9486 220.089 43.0667C220.089 42.1848 219.352 41.4499 218.469 41.4499H209.04C208.156 41.4499 207.42 42.1848 207.42 43.0667C207.42 43.9486 208.156 44.6836 209.04 44.6836Z" fill="#1A1947"/>
<path d="M209.04 47.9172H218.469C219.352 47.9172 220.089 47.1823 220.089 46.3004C220.089 45.4185 219.352 44.6836 218.469 44.6836H209.04C208.156 44.6836 207.42 45.4185 207.42 46.3004C207.42 47.1823 208.156 47.9172 209.04 47.9172Z" fill="#1A1947"/>
<path d="M209.04 51.2979H218.469C219.352 51.2979 220.089 50.563 220.089 49.6811C220.089 48.7992 219.352 48.0642 218.469 48.0642H209.04C208.156 48.0642 207.42 48.7992 207.42 49.6811C207.42 50.563 208.156 51.2979 209.04 51.2979Z" fill="#1A1947"/>
<path d="M209.039 51.2979C209.039 51.2979 209.628 54.5316 213.753 54.5316C217.878 54.5316 218.467 51.2979 218.467 51.2979H209.039Z" fill="#1A1947"/>
<path d="M215.522 41.5969C215.522 41.1559 215.522 33.6597 216.848 27.7802C214.933 28.0742 212.428 28.0742 210.366 27.7802C211.839 33.6597 211.692 41.1559 211.692 41.5969H210.955C210.955 41.4499 210.955 33.5127 209.482 27.6333C205.946 26.7513 203.589 24.9875 202.853 23.2237C202.411 22.3418 202.558 21.6069 203 21.0189C203.295 20.7249 204.179 20.137 205.946 20.7249C207.862 21.3129 209.187 23.8116 210.071 26.8983C211.102 27.0453 212.281 27.1923 213.459 27.1923C214.785 27.1923 215.817 27.0453 216.848 26.8983C217.732 23.8116 218.91 21.3129 220.973 20.7249C222.74 20.137 223.624 20.7249 223.919 21.0189C224.361 21.4599 224.361 22.3418 224.066 23.2237C223.33 24.9875 220.973 26.7513 217.437 27.6333C215.964 33.5127 215.964 41.4499 215.964 41.5969H215.522ZM222.74 21.3129C222.446 21.3129 222.004 21.4599 221.415 21.6069C219.794 22.1948 218.616 24.2526 217.879 27.0453C221.12 26.1634 223.035 24.3996 223.624 23.0767C223.919 22.4888 223.919 21.9008 223.624 21.7538C223.477 21.3129 223.182 21.3129 222.74 21.3129ZM204.768 21.3129C204.326 21.3129 204.031 21.4599 203.884 21.6069C203.589 21.9008 203.589 22.3418 203.884 22.9297C204.473 24.2526 206.388 26.0164 209.629 26.8983C208.893 24.2526 207.714 22.0478 206.094 21.4599C205.504 21.3129 205.063 21.3129 204.768 21.3129Z" fill="#1A1947"/>
<path d="M212.576 58.7941C212.576 58.7941 207.125 58.9411 207.125 63.6447C207.125 65.2615 208.156 66.2904 208.156 66.2904C208.156 66.2904 211.397 65.1145 212.428 61.5869C213.165 64.0856 215.669 64.6736 215.669 64.6736C215.669 64.6736 216.259 65.9964 217.142 65.9964C218.91 64.3796 217.879 58.7941 212.576 58.7941Z" fill="#1A1947"/>
<path d="M213.901 318.076C213.901 318.076 201.821 318.37 200.79 332.775C198.139 321.604 197.255 318.076 197.255 318.076H194.014C194.014 318.076 193.719 342.476 200.348 342.476C207.125 342.476 213.901 318.076 213.901 318.076Z" fill="#F990A1"/>
<path d="M220.531 318.223C220.531 318.223 230.107 317.635 234.379 337.184C238.651 356.734 238.209 361.878 238.209 361.878H235.999C235.852 361.878 222.741 329.247 220.531 318.223Z" fill="#F990A1"/>
<path d="M206.242 329.835C206.242 316.166 213.755 318.223 220.532 318.223C227.308 318.223 227.014 329.835 227.014 329.835L228.34 353.059H206.242V329.835Z" fill="#E87D91"/>
<path d="M228.487 353.059L231.728 409.06H226.572L217.144 362.172L211.693 409.06H206.537L206.242 353.059H228.487Z" fill="#CE4B59"/>
<path d="M206.242 409.06C206.242 409.06 203.296 408.766 200.35 411.559C208.747 411.559 211.398 411.559 211.398 411.559L211.546 409.06H206.242Z" fill="#1A1947"/>
<path d="M232.022 409.06C232.022 409.06 234.968 408.766 237.915 411.559C229.518 411.559 226.866 411.559 226.866 411.559L226.719 409.06H232.022Z" fill="#1A1947"/>
<path d="M196.961 307.493H194.898V311.903H196.961C198.139 311.903 199.171 310.874 199.171 309.698C199.171 308.522 198.139 307.493 196.961 307.493Z" fill="#1A1947"/>
<path d="M194.309 312.05L181.787 314.99V304.554L194.309 307.493V312.05Z" fill="#1A1947"/>
<path d="M222.151 308.669C222.151 308.669 223.624 308.522 223.624 310.139C223.624 311.756 221.709 311.903 221.709 311.903L222.151 308.669Z" fill="#F990A1"/>
<path d="M212.87 308.669C212.87 308.669 211.396 308.522 211.396 310.139C211.396 311.756 213.312 311.903 213.312 311.903L212.87 308.669Z" fill="#F990A1"/>
<path d="M195.34 307.493H194.309V311.903H195.34V307.493Z" fill="#CE4B59"/>
<path d="M195.34 311.903H194.309V316.313H195.34V311.903Z" fill="#CE4B59"/>
<path d="M217.438 321.751C219.058 321.751 220.384 320.428 220.384 318.811V313.961H214.639V318.811C214.639 320.575 215.965 321.751 217.438 321.751Z" fill="#E87D91"/>
<path d="M194.015 318.076C194.015 318.076 191.068 314.99 194.015 313.961C196.961 312.932 197.255 318.076 197.255 318.076H194.015Z" fill="#F990A1"/>
<path d="M217.437 316.313C219.941 316.313 222.151 314.255 222.151 311.609V307.934C222.151 305.436 220.088 303.231 217.437 303.231C214.932 303.231 212.723 305.289 212.723 307.934V311.609C212.87 314.108 214.932 316.313 217.437 316.313Z" fill="#F990A1"/>
<path d="M222.152 311.021C222.152 311.021 221.121 308.816 221.121 305.289C218.175 307.199 213.608 305.289 213.608 305.289C213.608 305.289 213.755 309.11 212.724 311.021C211.103 307.64 211.693 301.908 217.438 301.908C223.183 302.055 223.773 307.64 222.152 311.021Z" fill="#CE4B59"/>
<path d="M235.852 361.437C235.852 361.437 235.116 365.7 235.705 366.141C236.294 366.435 236.589 363.789 236.589 363.789C236.589 363.789 237.178 366.288 237.326 367.463C237.473 368.786 238.946 368.492 239.388 366.141C239.83 363.789 238.062 361.437 238.062 361.437H235.852Z" fill="#F990A1"/>
<path d="M220.531 313.079C221.263 313.079 221.857 312.487 221.857 311.756C221.857 311.025 221.263 310.433 220.531 310.433C219.799 310.433 219.205 311.025 219.205 311.756C219.205 312.487 219.799 313.079 220.531 313.079Z" fill="#E87D91"/>
<path d="M215.818 311.756C215.818 312.491 215.228 313.079 214.492 313.079C213.755 313.079 213.166 312.491 213.166 311.756C213.166 311.021 213.755 310.433 214.492 310.433C215.228 310.286 215.818 310.874 215.818 311.756Z" fill="#E87D91"/>
<path d="M219.501 310.433C219.745 310.433 219.942 310.17 219.942 309.845C219.942 309.52 219.745 309.257 219.501 309.257C219.256 309.257 219.059 309.52 219.059 309.845C219.059 310.17 219.256 310.433 219.501 310.433Z" fill="#1A1947"/>
<path d="M215.522 310.433C215.766 310.433 215.964 310.17 215.964 309.845C215.964 309.52 215.766 309.257 215.522 309.257C215.278 309.257 215.08 309.52 215.08 309.845C215.08 310.17 215.278 310.433 215.522 310.433Z" fill="#1A1947"/>
<path d="M213.313 309.845C213.313 309.845 214.787 312.491 217.586 312.491C220.385 312.491 221.858 309.845 221.858 309.845H222.594C222.594 309.845 223.626 317.047 217.438 317.047C211.251 317.047 212.43 309.992 212.43 309.992L213.313 309.845Z" fill="#CE4B59"/>
<path d="M219.057 312.638C219.057 312.638 218.615 313.079 217.437 313.079C216.258 313.079 215.816 312.638 215.816 312.638" stroke="#1A1947" stroke-width="0.1044" stroke-miterlimit="10"/>
<path d="M217.584 312.197V309.992C217.584 309.845 219.204 312.197 217.584 312.197Z" fill="#E87D91"/>
<path d="M220.09 308.816C220.09 308.816 219.648 308.375 219.059 308.522" stroke="#1A1947" stroke-width="0.1044" stroke-miterlimit="10"/>
<path d="M214.934 308.816C214.934 308.816 215.376 308.375 215.965 308.522" stroke="#1A1947" stroke-width="0.1044" stroke-miterlimit="10"/>
<path d="M214.638 317.341C214.638 317.341 203.442 318.223 200.643 329.541C203.294 332.187 206.241 334.245 206.241 334.245L205.651 356.44C205.651 356.44 214.343 357.321 229.516 356.44C228.927 347.473 227.454 334.392 227.454 334.392L233.052 328.806C233.052 328.806 229.958 317.341 220.53 317.341C220.53 317.341 220.53 321.016 217.584 321.016C214.638 321.016 214.638 317.341 214.638 317.341Z" fill="#64B5F6"/>
<path d="M486.435 177.117L486.583 172.561L485.109 177.117H486.435Z" fill="#BECCFD"/>
<path d="M482.606 155.217H522.971C522.971 155.217 521.056 148.161 510.007 150.66C504.262 139.489 491.445 141.4 489.825 151.836C481.723 149.925 482.606 155.217 482.606 155.217Z" fill="white"/>
<path d="M338.236 41.4499H386.408C386.408 41.4499 384.198 33.0717 370.94 35.8644C364.163 22.6358 348.695 24.6935 346.78 37.1873C337.204 34.9825 338.236 41.4499 338.236 41.4499Z" fill="white"/>
<path d="M110.928 103.184H170.001C170.001 103.184 166.466 94.6586 156.301 97.1573C150.85 75.9914 129.637 84.8106 129.637 92.7478C119.472 90.543 110.928 96.7164 110.928 103.184Z" fill="white"/>
<path d="M0 270.747H45.2259C45.2259 270.747 44.1947 260.752 33.146 258.106C22.0973 255.461 17.9725 265.015 17.9725 265.015C17.9725 265.015 7.36578 258.4 0 270.747Z" fill="white"/>
</svg>
