<svg width="475" height="293" viewBox="0 0 475 293" fill="none" xmlns="http://www.w3.org/2000/svg">
<g clip-path="url(#clip0)">
<path d="M234.814 95.8782C231.623 95.8782 228.587 96.3447 225.785 97.2001C222.05 88.1799 212.866 81.8036 202.047 81.8036C190.061 81.8036 180.021 89.6574 177.297 100.31C175.196 99.5329 172.938 99.0663 170.604 99.0663C160.641 99.0663 152.547 106.765 152.547 116.251H179.009H188.738H209.363H225.163H260.342C260.342 105.054 248.901 95.8782 234.814 95.8782Z" fill="white"/>
<path d="M437.874 157.775C434.45 155.676 444.645 149.688 451.339 151.088C458.11 152.488 462.235 155.831 466.983 155.598C466.983 155.598 454.841 168.04 437.874 157.775Z" fill="#869135"/>
<path d="M453.829 112.908C453.829 112.908 465.037 125.971 450.171 144.089C435.383 162.285 437.718 171.85 437.718 171.85C437.718 171.85 416.86 140.512 453.829 112.908Z" fill="#97A43C"/>
<path d="M440.132 159.019C433.205 160.419 439.198 140.59 449.549 134.447C459.901 128.226 469.24 127.604 475 121.695C475 121.695 474.221 151.943 440.132 159.019Z" fill="#48753A"/>
<path d="M266.648 67.4958H230.846V228.77H266.648V67.4958Z" fill="#FFC654"/>
<path d="M266.648 128.771V230.403C249.836 234.058 238.317 237.557 230.846 240.979V128.771H266.648Z" fill="#4DA8F2"/>
<path d="M266.648 138.88V229.237C249.836 232.503 238.317 239.034 230.846 242.067V138.88H266.648Z" fill="#3A966C"/>
<path d="M310.232 23.6391V210.73C296.456 215.007 284.625 219.128 274.43 223.249V23.6391H310.232Z" fill="#FFC654"/>
<path d="M310.154 84.0587H274.352V215.473H310.154V84.0587Z" fill="#4DA8F2"/>
<path d="M310.232 215.162L274.352 223.171V94.634H310.232V215.162Z" fill="#3A966C"/>
<path d="M354.284 0V200.543C340.508 205.287 328.678 210.963 318.482 215.551V0H354.284Z" fill="#FFC654"/>
<path d="M354.284 198.21L318.404 204.431V42.3792H354.284V198.21Z" fill="#4DA8F2"/>
<path d="M354.284 197.744L318.404 206.453V64.4631H354.284V197.744Z" fill="#3A966C"/>
<path d="M222.984 121.15V258.086C220.026 261.041 219.092 263.918 219.715 266.795H187.182V121.15H222.984Z" fill="#FFC654"/>
<path d="M222.984 182.814H187.182V258.163H222.984V182.814Z" fill="#4DA8F2"/>
<path d="M222.984 257.308L187.182 260.419V193.156H222.984V257.308Z" fill="#3A966C"/>
<path d="M179.009 155.753V272.782C176.052 275.271 175.118 277.759 175.74 280.247H143.207V155.831H179.009V155.753Z" fill="#FFC654"/>
<path d="M179.009 212.518H143.207V287.868H179.009V212.518Z" fill="#4DA8F2"/>
<path d="M179.009 287.012L143.207 290.123V222.86H179.009V287.012Z" fill="#3A966C"/>
<path d="M445.813 179.315C445.813 226.049 434.995 263.918 421.608 263.918C408.221 263.918 397.402 226.049 397.402 179.315C397.402 132.581 408.221 94.7118 421.608 94.7118C434.995 94.7118 445.813 132.659 445.813 179.315Z" fill="#3A966C"/>
<path d="M432.738 179.315C432.738 206.453 426.434 228.459 418.728 228.459C410.945 228.459 404.719 206.453 404.719 179.315C404.719 152.177 411.023 130.17 418.728 130.17C426.434 130.248 432.738 152.254 432.738 179.315Z" fill="#58B58B"/>
<path d="M386.272 13.3747C384.015 13.3747 381.836 13.6858 379.89 14.3078C377.244 7.93152 370.784 3.42144 363.157 3.42144C354.673 3.42144 347.59 9.02017 345.645 16.4851C344.166 15.9408 342.609 15.6298 340.897 15.6298C333.814 15.6298 328.133 21.073 328.133 27.7603H346.812H353.661H368.293H379.423H404.251C404.251 19.8288 396.157 13.3747 386.272 13.3747Z" fill="white"/>
<path d="M279.955 40.4352C278.554 40.4352 277.231 40.6685 276.064 40.9796C274.429 37.0916 270.46 34.2922 265.79 34.2922C260.575 34.2922 256.217 37.7136 255.05 42.3015C254.116 41.9904 253.182 41.7572 252.17 41.7572C247.811 41.7572 244.387 45.1008 244.387 49.2221H255.828H260.031H268.981H275.83H291.085C291.007 44.401 286.026 40.4352 279.955 40.4352Z" fill="white"/>
<path d="M423.554 175.193L420.985 169.206L417.25 177.915L413.514 169.206L410.945 175.193L414.681 183.825L410.945 192.534L413.514 198.521L417.25 189.812L420.985 198.521L423.554 192.534L419.818 183.825L423.554 175.193Z" fill="white"/>
<path d="M392.188 205.986L384.094 208.008L385.184 210.03C370.007 222.472 363.002 240.667 363.002 240.667L367.594 246.733C367.594 246.733 371.797 224.649 386.351 212.129L387.752 214.773L392.188 205.986Z" fill="#3A966C"/>
<path d="M391.643 171.617L387.285 162.674L385.806 165.24C371.485 152.332 367.671 130.093 367.671 130.093L362.924 136.08C362.924 136.08 369.617 154.509 384.639 167.34L383.471 169.361L391.643 171.617Z" fill="#3A966C"/>
<path d="M417.248 181.492C417.248 181.492 370.238 164.774 307.118 196.966C243.997 229.081 261.898 258.786 76.1164 239.268L29.9629 289.19C29.9629 289.19 266.49 311.662 309.919 247.433C353.349 183.203 410.943 187.091 417.248 189.812C423.552 192.534 417.248 181.492 417.248 181.492Z" fill="#86D1AF"/>
<path d="M84.6797 193.7C84.6797 193.7 86.5476 191.99 86.859 191.756C87.1703 191.523 88.3377 191.368 89.583 191.601C90.7505 191.756 92.4627 191.834 92.6184 191.99C92.7741 192.145 92.9297 192.301 92.9297 192.845C92.9297 193.389 92.6184 193.856 92.6184 193.856C92.6184 193.856 92.9297 194.556 92.5406 195.1C92.5406 195.1 92.8519 195.722 92.2293 196.266C92.2293 196.266 92.4627 196.889 91.9958 197.277C91.9958 197.277 90.9061 197.433 90.517 197.588C90.1278 197.744 87.2481 197.744 85.0689 197.511C85.1467 197.511 83.7457 196.655 84.6797 193.7Z" fill="#EEA886"/>
<path d="M88.3378 193.934C88.3378 193.934 87.793 195.1 87.4817 195.333C87.1704 195.567 89.5053 197.2 89.5053 197.2C89.5053 197.2 89.7388 194.633 88.3378 193.934Z" fill="#CF8C6C"/>
<path d="M92.2281 191.912C92.2281 191.912 89.037 192.067 89.037 192.612C89.037 193.156 89.2705 193.312 89.2705 193.312L88.0252 194.011C88.0252 194.011 87.4026 194.945 88.5701 195.333C88.5701 195.333 87.9474 196.111 89.1149 196.344C89.1149 196.344 88.9592 197.044 89.4262 197.277C89.971 197.511 91.9946 197.277 91.9946 197.277C91.9946 197.277 92.4616 197.044 92.2281 196.266C92.2281 196.266 92.8507 195.8 92.5394 195.1C92.5394 195.1 93.0842 194.322 92.7729 193.545C92.7729 193.545 93.2399 192.689 92.6172 191.99C92.6172 191.912 92.3838 191.912 92.2281 191.912Z" fill="#DB9C7C"/>
<path d="M87.0137 191.679C87.0137 191.679 89.0373 192.534 89.8934 193.545C90.1269 193.778 90.2826 194.011 90.1269 194.245C89.9712 194.478 89.4264 194.633 88.5703 194.322C87.7142 194.011 86.391 193.934 86.391 193.934C86.391 193.934 85.5349 193.312 87.0137 191.679Z" fill="#EEA886"/>
<path d="M92.7732 193.467C92.7732 193.467 89.3487 193.234 89.0374 193.389C88.726 193.545 88.8039 192.301 89.0374 192.145C89.3487 191.99 92.1506 191.756 92.4619 191.756C92.7732 191.912 93.3959 192.845 92.7732 193.467Z" fill="#EEA886"/>
<path d="M91.9168 191.756C91.9168 191.756 97.5206 192.145 97.5206 192.845C97.5206 193.467 96.1974 193.934 91.9168 193.389C87.7139 192.923 91.9168 191.756 91.9168 191.756Z" fill="#EEA886"/>
<path d="M62.6534 274.182C62.6534 274.182 65.6888 275.893 67.0897 276.593C68.4907 277.215 73.7831 277.37 74.2501 277.837C74.7949 278.303 74.6393 279.936 73.7053 280.092C72.8492 280.247 66.3892 280.947 64.2878 280.481C62.1085 280.014 58.1392 280.947 57.2831 280.636C56.4269 280.325 56.8939 275.582 57.2052 274.493C57.5165 273.327 62.6534 274.182 62.6534 274.182Z" fill="#292C47"/>
<path d="M62.4976 272.16L62.6532 274.182C62.6532 274.182 58.6839 274.96 57.2051 274.415L57.5164 272.394L62.4976 272.16Z" fill="#3D416B"/>
<path d="M9.18293 285.691C9.18293 285.691 12.0627 287.635 13.3858 288.412C14.7089 289.19 19.9236 289.734 20.4684 290.201C20.9353 290.745 20.624 292.3 19.7679 292.378C18.9118 292.456 12.4518 292.611 10.3504 291.989C8.24897 291.367 4.20178 291.911 3.34564 291.6C2.4895 291.212 3.34564 286.546 3.81262 285.457C4.12395 284.369 9.18293 285.691 9.18293 285.691Z" fill="#292C47"/>
<path d="M9.57255 283.747L9.1834 285.691C9.1834 285.691 5.13621 286.157 3.96875 285.457L4.43573 283.436L9.57255 283.747Z" fill="#3D416B"/>
<path d="M42.4956 223.716C42.1064 225.038 41.0946 227.759 40.005 230.714C39.7715 231.336 39.538 232.036 39.3045 232.658C37.8257 236.546 36.5026 240.201 36.5026 240.201C34.4012 245.022 29.42 255.286 27.0851 257.075C23.894 259.485 9.57322 285.068 9.57322 285.068L3.11328 284.291C3.11328 284.291 10.118 265.162 12.9978 260.963C16.2666 256.22 21.3256 250.076 21.8705 244.867C22.1818 241.601 24.2832 231.336 24.2832 231.336C24.2832 231.336 26.6959 219.906 31.8328 212.363C33.1559 210.497 42.4956 223.716 42.4956 223.716Z" fill="#292C47"/>
<path d="M49.3432 222.627C49.3432 222.627 67.2443 236.002 69.2679 238.723C71.2915 241.445 70.0462 245.8 69.7349 247.199C69.4235 248.521 63.7419 270.527 63.5862 272.86C63.5862 272.86 58.0603 274.26 56.6593 272.471C56.6593 272.471 58.6051 251.554 59.8504 247.199C61.0957 242.845 55.0249 240.045 51.5225 238.49C48.0201 236.935 30.2748 228.381 30.5861 224.96C30.8196 222.549 31.1309 220.294 31.1309 220.294C31.1309 220.294 34.6333 217.417 49.3432 222.627Z" fill="#292C47"/>
<path d="M49.5774 188.568C49.5774 188.568 61.1742 190.745 66.6223 191.445C68.3346 191.679 84.2898 192.845 84.9125 193.001C85.5351 193.078 85.0681 198.288 85.0681 198.288C85.0681 198.288 67.2449 197.122 66.1553 197.2C65.0657 197.277 48.4878 196.111 47.009 195.022C45.4524 193.934 44.3628 192.067 45.2967 190.357C46.6198 187.791 49.5774 188.568 49.5774 188.568Z" fill="#292C47"/>
<path d="M48.9551 186.935C48.9551 186.935 50.9787 192.767 50.9787 196.189C50.9787 199.532 47.8655 209.563 47.632 211.43C47.0093 216.406 49.3443 222.627 49.3443 222.627L30.8984 226.204C30.8984 226.204 30.3536 220.916 30.4314 214.54C30.5093 208.164 32.3772 202.954 32.8442 199.299C34.4008 186.857 44.5966 184.136 44.5966 184.136L48.9551 186.935Z" fill="#CFBEB6"/>
<path d="M57.4375 172.394C57.4375 172.394 59.0719 175.505 58.2936 175.971C57.5932 176.36 59.0719 179.393 59.3054 179.859C59.4611 180.326 58.0601 180.714 57.7488 181.025C57.4375 181.337 56.5814 185.302 55.3361 185.38C54.1686 185.536 48.8761 183.669 47.3973 182.114C45.9186 180.637 44.7511 173.794 45.7629 170.994C46.7747 168.195 54.5578 167.029 57.4375 172.394Z" fill="#EEA886"/>
<path d="M51.8343 184.602C51.8343 184.602 51.6787 184.913 51.4452 185.38C51.3674 185.613 51.2895 185.847 51.1339 186.08C51.056 186.313 50.9782 186.469 50.9004 186.702C50.3556 188.024 49.7329 189.657 49.6551 190.512C49.4994 191.99 45.2188 184.058 45.2188 184.058C45.2188 184.058 47.2423 179.548 48.5655 174.26C50.0442 168.973 51.8343 184.602 51.8343 184.602Z" fill="#EEA886"/>
<path d="M57.8272 173.094C57.8272 173.094 59.5395 169.75 56.4262 167.262C53.313 164.774 47.6314 169.128 47.0087 169.284C46.3861 169.439 42.8059 169.673 44.596 176.127C46.1526 181.959 46.4639 181.492 46.4639 181.492C46.4639 181.492 47.6314 178.693 48.254 178.226C49.2658 177.449 51.6007 177.682 51.6007 177.682C51.6007 177.682 50.5111 174.805 52.2234 174.416C53.8578 173.872 56.1149 172.472 57.8272 173.094Z" fill="#D88A51"/>
<path d="M49.7343 175.971C49.5787 175.582 49.1117 173.872 47.6329 174.882C46.1541 175.893 48.5669 179.081 48.8004 179.159C49.0339 179.159 50.9796 179.315 49.7343 175.971Z" fill="#EEA886"/>
<path d="M45.6075 183.358C45.6075 183.358 48.4872 187.713 50.1995 189.579L49.6547 192.612L44.5957 184.058L45.6075 183.358Z" fill="#EDDAD3"/>
<path d="M51.8337 184.602C51.8337 184.602 51.6781 184.913 51.4446 185.38C51.3667 185.613 51.2889 185.847 51.1332 186.08C48.3313 183.98 47.6309 182.425 47.6309 182.425C48.954 183.358 51.8337 184.602 51.8337 184.602Z" fill="#A77860"/>
<path d="M50.1994 189.735C50.1994 189.735 50.7442 191.756 50.5886 192.456C50.5107 192.767 49.7324 192.378 49.7324 192.378L50.1994 189.735Z" fill="#FAA146"/>
<path d="M49.3437 222.627C49.3437 222.627 48.7989 220.994 48.721 220.605L30.7422 223.949L30.8978 226.126C30.8978 226.126 44.0512 223.794 49.3437 222.627Z" fill="#23263D"/>
<path d="M18.523 234.213L10.9734 233.28C10.1951 233.203 9.65027 232.503 9.7281 231.725L10.3507 226.982C10.4286 226.204 11.129 225.66 11.9074 225.738L19.4569 226.671C20.2352 226.748 20.78 227.448 20.7022 228.226L20.0796 232.969C20.0017 233.747 19.3013 234.291 18.523 234.213ZM11.8295 226.671C11.596 226.671 11.3625 226.826 11.2847 227.059L10.6621 231.803C10.6621 232.036 10.8177 232.269 11.0512 232.347L18.6786 233.28C18.9121 233.28 19.1456 233.125 19.2234 232.891L19.8461 228.148C19.8461 227.915 19.6904 227.682 19.4569 227.604L11.8295 226.671Z" fill="#6E4629"/>
<path d="M28.4186 231.642L2.08008 228.373L-0.021557 245.273L26.317 248.543L28.4186 231.642Z" fill="#D88A51"/>
<path d="M28.4616 231.611L2.12305 228.342L1.19219 235.827L27.5307 239.097L28.4616 231.611Z" fill="#B57343"/>
<path d="M16.388 235.931L12.7578 235.48L12.6331 236.484L16.2633 236.934L16.388 235.931Z" fill="#6E4629"/>
<path d="M11.9858 226.593C11.9858 226.593 11.9079 225.971 11.9858 225.66C11.9858 225.66 12.2193 225.115 12.3749 224.727C12.4527 224.571 12.4527 224.493 12.4527 224.416C12.5306 224.105 12.6084 223.405 12.9197 222.705C13.3089 222.005 14.8655 219.672 14.8655 219.672L17.0448 220.605L19.1462 220.839C19.1462 220.839 19.4575 225.582 19.224 226.282C19.224 226.36 19.1462 226.437 19.1462 226.437C18.8349 226.982 18.4457 227.293 18.2122 227.604C18.1344 227.682 17.4339 228.692 17.0448 228.692C16.5778 228.692 16.1886 228.537 15.9551 228.226C15.9551 228.226 14.9433 228.226 14.4763 227.759C14.4763 227.759 13.5424 227.759 13.0754 227.059C13.0754 227.215 12.1414 227.137 11.9858 226.593Z" fill="#EFAA88"/>
<path d="M43.6624 192.223C43.6624 192.223 32.9997 200.466 29.186 205.053C28.0185 206.453 20.7024 220.683 20.2354 221.227C19.7685 221.772 14.3203 220.061 14.3203 220.061C14.3203 220.061 22.9595 202.332 23.5043 201.243C24.0491 200.232 39.4596 185.924 41.3275 185.147C43.2733 184.369 43.5068 185.38 44.5964 187.324C46.153 189.968 43.6624 192.223 43.6624 192.223Z" fill="#323657"/>
<path d="M49.6554 198.521C49.2662 199.61 48.8771 200.777 48.4879 201.865C47.7096 204.353 47.0091 206.842 46.4643 209.33C46.2308 210.186 46.0752 211.041 45.9195 211.896C43.8181 222.083 38.3699 229.548 38.3699 229.548C38.3699 229.548 30.1977 228.926 28.252 227.526C28.252 227.526 28.7968 215.784 31.3652 204.509C31.5987 203.654 31.7543 202.798 31.9878 201.865C34.4006 192.767 38.2921 184.525 44.5185 183.903C44.752 184.136 51.7568 192.689 49.6554 198.521Z" fill="#323657"/>
<path d="M31.2881 205.442C31.2881 205.442 30.432 215.94 23.3494 226.204C22.4932 227.448 33.2339 229.081 33.2339 229.081L31.2881 205.442Z" fill="#323657"/>
<path d="M39.4599 195.567C36.9693 198.21 31.4434 204.587 31.4434 204.587C31.6769 203.731 31.8325 202.876 32.066 201.943C34.0118 200.077 39.3821 195.644 39.4599 195.567Z" fill="#1D2133"/>
<path d="M50.5884 192.456C50.5884 192.456 49.4987 199.766 43.1945 200.31C37.5128 200.777 29.3406 203.576 26.6165 205.753L23.3477 208.63L24.126 204.82C24.126 204.82 26.5387 198.755 43.1166 199.532C43.1166 199.532 48.1756 200.466 49.8879 191.679C49.8101 191.601 50.6662 192.067 50.5884 192.456Z" fill="#FAA146"/>
<path d="M356.776 116.562C356.776 116.562 355.53 117.262 354.752 117.495C353.974 117.729 354.752 114.929 354.752 114.929L356.776 116.562Z" fill="#EEA886"/>
<path d="M354.285 114.463C354.285 114.463 354.441 112.286 354.519 111.975C354.519 111.663 355.141 110.964 355.92 110.186C356.698 109.408 358.021 108.786 358.255 108.786C358.41 108.786 358.644 108.786 358.955 109.097C359.266 109.408 359.344 109.953 359.344 109.953C359.344 109.953 359.967 110.186 360.045 110.808C360.045 110.808 360.589 111.041 360.589 111.741C360.589 111.741 361.134 111.975 361.056 112.519C361.056 112.519 360.434 113.219 360.278 113.53C360.122 113.841 358.332 115.551 356.854 116.64C356.776 116.562 355.453 116.873 354.285 114.463Z" fill="#EEA886"/>
<path d="M356.775 112.519C356.775 112.519 357.087 113.53 357.087 113.919C357.009 114.23 359.499 114.23 359.499 114.23C359.499 114.23 358.021 112.13 356.775 112.519Z" fill="#CF8C6C"/>
<path d="M358.02 108.942C358.02 108.942 356.152 110.886 356.385 111.275C356.697 111.586 357.008 111.586 357.008 111.586L356.619 112.752C356.619 112.752 356.775 113.685 357.709 113.219C357.709 113.219 357.786 114.074 358.643 113.53C358.643 113.53 358.954 114.074 359.421 113.919C359.888 113.763 361.055 112.441 361.055 112.441C361.055 112.441 361.211 111.975 360.588 111.663C360.588 111.663 360.666 111.041 360.043 110.73C360.043 110.73 360.043 110.186 359.421 109.875C359.421 109.875 359.265 108.709 358.253 108.709C358.253 108.786 358.098 108.864 358.02 108.942Z" fill="#DB9C7C"/>
<path d="M354.596 111.897C354.596 111.897 356.386 111.275 357.475 111.352C357.709 111.352 357.942 111.43 358.02 111.664C358.098 111.897 357.865 112.286 357.086 112.597C356.308 112.908 355.53 113.607 355.53 113.607C355.53 113.607 354.596 113.763 354.596 111.897Z" fill="#EEA886"/>
<path d="M331.246 114.385C331.246 114.385 337.784 119.44 342.065 121.384C343.388 122.006 353.817 114.618 354.284 114.463C354.829 114.23 355.918 117.029 355.918 117.029C355.918 117.029 343.31 128.071 342.376 127.838C341.442 127.604 328.366 120.373 327.432 119.051C326.421 117.729 326.031 115.94 327.277 114.696C328.989 112.985 331.246 114.385 331.246 114.385Z" fill="#EEA886"/>
<path d="M334.826 124.261L337.006 118.118L333.815 115.474L331.791 122.628L334.826 124.261Z" fill="#323657"/>
<path d="M291.865 157.231L290.464 156.376L288.596 160.03L289.919 160.886L291.865 157.231Z" fill="#EEA886"/>
<path d="M353.428 188.879L354.206 190.201L357.475 188.024L356.774 186.702L353.428 188.879Z" fill="#EEA886"/>
<path d="M330.546 152.799C330.001 153.343 328.99 154.354 327.978 155.52C327.822 155.676 327.744 155.831 327.589 155.987C327.277 156.298 326.966 156.687 326.655 157.075C326.499 157.231 326.343 157.386 326.188 157.62C324.164 159.952 322.296 162.13 322.296 162.13C322.296 162.13 313.657 170.606 310.855 169.828C304.784 168.117 289.062 161.119 289.062 161.119L292.098 155.831C292.098 155.831 297.935 158.397 301.827 159.641C306.263 160.963 304.94 160.808 308.987 161.819C311.478 162.441 315.525 152.254 315.525 152.176C317.159 148.211 319.416 143.234 321.129 141.912C322.608 140.668 330.546 152.799 330.546 152.799Z" fill="#FFC654"/>
<path d="M348.059 164.618C347.747 162.596 344.4 157.231 341.988 154.121C338.252 149.066 335.761 145.023 335.761 145.023C335.761 145.023 318.716 146.656 319.028 148.366C319.65 151.554 327.122 155.52 328.601 156.687L332.181 158.942C332.181 158.942 335.372 161.119 337.629 163.063C340.665 165.629 340.12 166.562 341.988 170.45C343.7 173.949 352.028 190.123 352.028 190.123L357.087 187.169C357.243 187.169 348.603 167.806 348.059 164.618Z" fill="#FFC654"/>
<path d="M334.127 131.181C334.282 132.814 335.761 145.023 335.761 145.023L316.537 148.677C316.537 148.677 319.495 142.145 319.028 136.624C318.872 135.069 318.872 133.592 318.95 132.192C319.028 130.792 319.106 129.471 319.261 128.304C319.495 126.36 319.728 124.727 319.728 123.328C319.884 112.441 328.445 109.097 328.445 109.097L332.492 111.197C332.492 111.197 334.749 116.096 335.061 118.973C335.372 121.772 333.971 129.548 334.127 131.181Z" fill="#323657"/>
<path d="M338.407 97.8222C338.407 97.8222 340.119 100.311 339.496 100.855C338.952 101.244 340.508 103.732 340.742 104.121C340.975 104.51 339.73 104.976 339.496 105.287C339.263 105.598 338.874 109.02 337.862 109.253C336.85 109.486 332.102 108.398 330.702 107.231C329.301 106.065 327.666 100.311 328.211 97.7444C328.756 95.1784 335.371 93.3899 338.407 97.8222Z" fill="#EEA886"/>
<path d="M334.672 108.864C334.672 108.864 334.594 109.175 334.438 109.564C334.36 109.719 334.283 109.953 334.283 110.186C334.205 110.342 334.205 110.575 334.127 110.73C333.816 111.975 333.426 113.374 333.426 114.074C333.426 115.396 328.445 108.942 328.445 108.942C328.445 108.942 330.625 105.598 331.092 100.155C331.403 95.4894 334.672 108.864 334.672 108.864Z" fill="#EEA886"/>
<path d="M338.798 98.3665C338.798 98.3665 338.875 95.7227 337.397 94.7895C333.739 92.4567 329.847 95.9559 329.302 96.1115C328.757 96.3447 325.878 98.1332 327.59 102.177C328.991 105.365 329.769 105.909 329.769 105.909C329.769 105.909 330.548 103.654 331.092 103.188C331.949 102.41 333.349 101.866 333.349 101.866C333.349 101.866 333.038 100.311 333.894 99.9217C335.373 99.2996 337.241 97.9777 338.798 98.3665Z" fill="#16202E"/>
<path d="M332.025 101.555C331.869 101.244 331.246 99.7662 330.079 100.777C328.912 101.788 331.246 104.354 331.48 104.354C331.713 104.354 333.426 104.354 332.025 101.555Z" fill="#EEA886"/>
<path d="M295.055 141.834C295.055 141.834 295.133 141.29 295.21 140.979C295.21 140.979 295.522 140.59 295.677 140.279C295.755 140.201 295.755 140.124 295.833 140.046C295.911 139.813 296.144 139.191 296.533 138.724C297 138.18 298.713 136.469 298.713 136.469L300.425 137.635L302.137 138.257C302.137 138.257 301.592 142.379 301.203 142.923C301.203 143.001 301.125 143.001 301.125 143.079C300.814 143.467 300.347 143.701 300.191 143.856C300.114 143.934 299.335 144.634 299.024 144.556C298.557 144.478 298.324 144.245 298.168 144.012C298.168 144.012 297.312 143.856 297 143.39C297 143.39 296.222 143.234 295.911 142.534C295.911 142.534 295.133 142.301 295.055 141.834Z" fill="#EFAA88"/>
<path d="M334.671 108.864C334.671 108.864 334.594 109.175 334.438 109.564C334.36 109.719 334.282 109.953 334.282 110.186C331.636 108.631 330.936 107.387 330.936 107.309C332.103 108.009 334.671 108.864 334.671 108.864Z" fill="#A77860"/>
<path d="M290.464 156.376C290.464 156.376 289.53 158.32 289.14 159.175C288.751 160.03 289.14 160.652 288.596 160.497C287.973 160.341 285.638 160.341 284.782 160.808C283.926 161.274 278.789 164.696 277.777 163.685C276.765 162.752 278.556 160.497 281.435 157.62C284.315 154.82 283.692 153.965 286.105 152.643C286.806 152.332 290.464 156.376 290.464 156.376Z" fill="#343A5C"/>
<path d="M354.129 189.968C354.129 189.968 355.919 188.801 356.697 188.335C357.476 187.868 357.398 187.091 357.865 187.48C358.332 187.946 360.278 189.113 361.211 189.19C362.145 189.19 368.216 189.035 368.605 190.357C368.995 191.679 366.348 192.612 362.457 193.545C358.643 194.478 358.721 195.489 355.997 195.333C355.063 195.256 354.129 189.968 354.129 189.968Z" fill="#343A5C"/>
<path d="M338.796 98.3665C338.796 98.3665 340.275 96.5003 338.796 93.0011C338.796 93.0011 338.251 94.5563 334.904 94.012L338.796 98.3665Z" fill="#16202E"/>
<path d="M328.133 118.195C328.133 118.195 325.176 122.161 321.829 123.483L321.518 122.161L328.133 118.195Z" fill="#23344A"/>
<path d="M327.977 118.04C327.977 118.04 317.547 123.25 313.5 126.438C312.255 127.449 302.682 137.869 302.215 138.257C301.748 138.646 298.557 136.702 298.557 136.702C298.557 136.702 308.675 123.094 309.375 122.239C309.998 121.461 323.229 112.674 326.264 112.13C328.054 111.819 329.689 112.052 330.312 113.841C331.012 116.407 327.977 118.04 327.977 118.04Z" fill="#EEA886"/>
<path d="M330.313 112.363C330.313 112.363 328.367 107.309 319.494 114.929L321.596 122.161C321.596 122.161 332.881 117.418 330.313 112.363Z" fill="#323657"/>
<path d="M327.588 155.909C327.277 156.22 326.966 156.609 326.654 156.998C326.499 157.153 326.343 157.309 326.187 157.542C323.775 155.131 321.05 151.321 320.973 151.166C322.062 152.332 327.588 155.909 327.588 155.909Z" fill="#B0573A"/>
<path d="M129.898 189.268L118.613 200.699C118.613 200.699 116.9 201.943 118.379 205.364C120.014 209.097 125.617 214.773 125.617 214.773C125.617 214.773 127.719 214.229 127.874 213.296C128.03 212.363 122.815 204.12 123.049 203.343C123.282 202.565 129.664 195.955 129.664 195.955C129.664 195.955 131.455 190.046 129.898 189.268Z" fill="#E55353"/>
<path d="M137.293 184.836C137.293 184.836 136.748 187.946 136.981 189.112C137.215 190.279 132 185.924 132 185.924C132 185.924 132.856 182.036 132.467 180.015C132.156 177.993 137.293 184.836 137.293 184.836Z" fill="#EEA886"/>
<path d="M146.166 239.734C146.166 239.734 148.034 242.534 148.189 245.178C148.345 247.821 154.727 267.961 154.727 267.961L149.901 269.827C149.901 269.827 144.92 257.23 143.753 253.964C142.819 251.398 142.819 249.532 141.029 246.344C140.095 244.711 138.305 243 138.305 243L146.166 239.734Z" fill="#292C47"/>
<path d="M123.128 241.523C123.128 241.523 121.416 243.467 119.314 245.1C117.291 246.655 99.3899 258.786 99.1564 258.941L95.5762 255.053C95.5762 255.053 107.251 248.443 108.807 245.411C110.364 242.378 114.1 240.745 115.345 239.346C116.59 237.946 116.746 236.935 116.746 236.935L123.128 241.523Z" fill="#292C47"/>
<path d="M138.383 224.882C138.383 224.882 144.842 235.613 146.399 240.201L139.316 244.244C139.316 244.244 133.012 237.713 130.833 234.913C128.732 232.114 132.467 216.951 138.383 224.882Z" fill="#292C47"/>
<path d="M136.281 224.26C136.281 224.26 127.954 238.646 122.194 242.456C122.194 242.456 118.38 240.356 116.201 238.101C116.201 238.101 120.56 225.271 121.338 222.316C122.116 219.439 136.281 224.26 136.281 224.26Z" fill="#292C47"/>
<path d="M132 185.924C132 185.924 136.825 188.568 137.137 188.646C137.448 188.802 140.872 195.178 140.25 200.466C139.549 205.675 137.837 208.786 137.214 214.696C136.825 218.117 137.993 222.161 138.46 223.405C138.693 223.949 138.927 224.804 138.382 224.727L121.104 222.316C121.104 222.316 125.229 209.563 124.372 202.954C123.516 197.511 127.875 188.802 132 185.924Z" fill="#E55353"/>
<path d="M155.271 269.205C155.271 269.205 156.128 269.594 157.528 269.905C159.085 270.216 162.432 268.661 163.677 269.439C164.922 270.294 164.922 271.849 161.498 272.782C158.151 273.793 152.859 275.815 152.314 275.426C151.847 275.037 151.224 271.927 151.38 270.683C151.613 269.361 155.271 269.205 155.271 269.205Z" fill="#326691"/>
<path d="M154.728 268.039L155.272 269.205L151.459 270.683L151.381 269.516L154.728 268.039Z" fill="#343A57"/>
<path d="M98.3774 259.796C98.3774 259.796 98.2996 260.73 98.5331 262.207C98.7666 263.762 101.413 266.406 101.101 267.806C100.712 269.205 99.3114 269.75 97.21 266.95C95.1085 264.151 91.3727 259.874 91.6062 259.252C91.7618 258.63 94.4859 257.075 95.7312 256.764C96.9765 256.453 98.3774 259.796 98.3774 259.796Z" fill="#326691"/>
<path d="M99.3107 258.863L98.3767 259.796L95.7305 256.764L96.8201 256.219L99.3107 258.863Z" fill="#3D476E"/>
<path d="M150.679 207.075C150.679 207.075 151.846 206.609 152.313 205.909C152.858 205.131 154.415 205.131 155.115 205.52C155.816 205.909 156.75 205.675 156.983 206.22C157.139 206.764 156.205 207.308 156.205 207.775C156.205 208.242 156.438 210.497 154.648 210.73C152.858 210.963 151.457 210.03 150.445 210.185C149.589 210.263 150.679 207.075 150.679 207.075Z" fill="#EEA886"/>
<path d="M140.794 174.416C140.794 174.416 141.728 176.593 141.728 177.293C141.728 177.993 140.95 177.993 141.339 178.77C141.728 179.47 142.584 181.025 142.195 181.492C141.806 181.959 141.028 181.725 140.872 182.658C140.639 183.592 139.16 185.691 138.07 185.691C136.903 185.691 133.167 184.214 132.856 183.281C132.622 182.347 131.221 177.215 130.754 176.204C130.287 175.193 138.226 172.472 139.705 173.327C140.483 173.716 140.794 174.416 140.794 174.416Z" fill="#EEA886"/>
<path d="M129.354 196.888C129.354 196.888 128.031 191.834 130.988 191.679C134.49 191.523 134.179 195.8 134.179 195.8L129.354 196.888Z" fill="#E55353"/>
<path d="M140.874 174.727C140.874 174.727 140.018 169.984 133.558 171.383C127.02 172.783 132.157 180.87 132.157 180.87L140.874 174.727Z" fill="#EEA886"/>
<path d="M135.036 177.215C135.036 177.215 134.257 175.582 132.856 176.749C131.844 177.604 133.09 180.403 134.179 180.326C135.269 180.326 135.58 178.693 135.036 177.215Z" fill="#EEA886"/>
<path d="M140.639 174.027C140.639 174.027 138.771 175.582 135.969 175.582C133.167 175.582 132.078 175.582 130.832 178.382C130.832 178.382 127.019 172.161 134.568 170.761C134.646 170.683 140.483 168.195 140.639 174.027Z" fill="#323657"/>
<path d="M134.258 195.722L136.282 207.697C136.282 207.697 136.904 208.63 140.251 208.241C143.598 207.93 150.758 206.92 150.758 206.92C150.758 206.92 150.836 209.33 150.68 210.03C150.603 210.419 136.126 213.218 133.402 211.741C130.756 210.263 129.199 196.811 129.199 196.811L134.258 195.722Z" fill="#E55353"/>
<path d="M221.895 159.952C221.895 159.952 218.081 157.231 215.435 160.808C212.788 164.385 217.302 171.15 215.045 173.172C212.788 175.193 203.682 174.027 204.772 179.859C204.772 179.859 206.251 175.893 210.453 176.671C214.656 177.449 219.871 175.971 219.015 170.372C218.159 164.774 220.961 166.251 221.272 164.618C221.583 162.907 221.895 159.952 221.895 159.952Z" fill="#985E44"/>
<path d="M221.504 159.952C221.504 159.952 220.103 161.197 220.881 164.696C220.881 164.696 218.546 161.585 221.504 159.952Z" fill="#FAB46C"/>
<path d="M249.601 195.178C249.912 195.178 251.391 194.945 251.858 194.945C252.325 194.867 252.948 194.711 253.103 194.634C253.259 194.556 254.193 194.478 255.127 194.322C255.983 194.167 256.372 193.934 256.372 193.778C256.372 193.623 254.893 193.623 254.893 193.623C254.893 193.623 253.648 193.7 253.648 193.545C253.648 193.389 254.816 193.078 254.971 193.078C255.127 193.078 257.073 192.378 257.384 191.912C257.695 191.445 257.384 191.134 257.384 191.134C257.384 191.134 257.773 190.823 257.773 190.512C257.773 190.201 257.384 190.123 257.384 190.123C257.462 189.968 257.306 189.657 257.15 189.657C256.761 189.579 255.127 190.123 254.66 190.357C254.271 190.512 253.882 190.746 253.259 190.823C252.636 190.901 253.025 190.279 253.025 190.279C253.882 189.268 254.193 189.035 254.115 188.102C254.115 187.713 253.259 188.724 253.103 188.957C252.948 189.113 251.78 189.812 251.624 190.201C251.391 190.668 249.99 191.523 249.601 191.99C249.523 192.067 249.29 192.223 248.9 192.301L249.601 195.178Z" fill="#F9CDBA"/>
<path d="M211.386 247.199L210.686 247.899L208.195 245.489L208.896 244.789L211.386 247.199Z" fill="#F9CDBA"/>
<path d="M208.196 245.411C208.196 245.411 209.908 247.044 210.375 247.355C210.842 247.744 211.698 247.51 211.62 248.132C211.62 248.677 210.764 251.554 211.231 252.643C211.698 253.809 213.488 256.842 212.087 258.241C210.686 259.563 204.226 250.076 203.292 249.454C202.28 248.754 208.196 245.411 208.196 245.411Z" fill="#E55353"/>
<path d="M257.696 245.566L258.008 246.577L254.739 247.588L254.35 246.655L257.696 245.566Z" fill="#F9CDBA"/>
<path d="M232.79 225.349C232.79 225.349 229.132 232.658 227.809 233.902C226.486 235.147 211.698 247.744 211.698 247.744L207.34 244.244C207.34 244.244 211.932 239.579 215.045 235.147C216.29 233.436 218.08 231.881 219.092 229.548C219.948 227.526 219.948 227.604 220.649 224.96C220.805 224.493 232.79 225.349 232.79 225.349Z" fill="#4B5182"/>
<path d="M222.827 206.686C222.827 206.686 222.205 215.24 221.893 218.117C221.582 221.927 221.115 222.783 220.57 224.96L231.7 226.982C231.7 226.982 235.669 220.761 235.28 219.128C234.969 217.495 222.827 206.686 222.827 206.686Z" fill="#4B5182"/>
<path d="M229.444 184.836C229.444 184.836 221.194 194.011 221.816 195.022C222.595 196.5 229.833 201.554 229.833 201.554L227.654 203.887C227.654 203.887 213.566 197.899 215.434 193.778C217.302 189.657 224.073 180.637 224.073 180.637L229.444 184.836Z" fill="#E8734D"/>
<path d="M255.983 230.714C255.283 226.982 254.738 223.794 253.337 221.383C251.936 218.972 243.997 210.73 243.997 210.73C243.997 210.73 241.351 207.697 239.795 206.375C239.094 205.753 239.094 204.354 239.094 204.354C239.094 204.354 222.75 204.276 222.672 206.531C222.672 208.708 223.217 212.441 224.929 214.696C227.497 218.039 237.148 220.916 237.148 220.916C237.148 220.916 244.698 224.882 246.255 226.282C247.811 227.682 248.434 228.77 249.679 231.803C250.924 234.835 253.259 247.277 253.259 247.277L259.875 244.789C259.953 244.789 256.995 235.924 255.983 230.714Z" fill="#4B5182"/>
<path d="M224.385 169.672C224.385 169.672 225.474 173.483 224.774 174.882C224.073 176.282 230.923 176.749 230.923 176.749C230.923 176.749 229.522 173.56 230.144 172.005C230.689 170.683 224.385 169.672 224.385 169.672Z" fill="#F9CDBA"/>
<path d="M230.61 159.175C230.61 159.175 232.089 160.497 232.322 164.229C232.322 164.229 233.723 166.562 234.268 166.951C234.813 167.34 233.256 167.962 233.178 168.351C233.1 168.739 233.178 170.528 232.322 171.85C231.466 173.172 225.084 171.539 224.305 169.906C223.605 168.273 217.223 161.197 223.216 159.253C229.442 157.386 230.61 159.175 230.61 159.175Z" fill="#F9CDBA"/>
<path d="M224.462 174.727C224.462 174.727 223.84 177.06 222.984 179.548C222.128 182.036 221.349 184.991 222.205 190.046C223.062 195.022 224.385 201.243 222.439 206.531C222.439 206.531 233.491 207.308 239.562 205.831C239.562 205.831 240.418 199.766 239.639 197.2C237.227 189.268 240.184 190.279 238.316 186.702C236.448 183.047 232.323 178.226 231.545 176.982L224.462 174.727Z" fill="#E8734D"/>
<path d="M248.901 192.067L249.213 193.467L249.291 193.856L249.758 196.033C249.758 196.033 235.826 201.088 232.868 197.666C229.911 194.167 224.385 184.447 224.385 184.447L227.342 182.969L227.654 182.814L230.533 181.414C230.533 181.414 235.67 193.001 236.838 193.001C238.628 192.923 248.901 192.067 248.901 192.067Z" fill="#E8734D"/>
<path d="M231.545 176.904C231.545 176.904 231.233 175.271 231.467 174.727L224.229 172.938L224.462 174.805C224.462 174.805 229.054 176.671 231.545 176.904Z" fill="#E8734D"/>
<path d="M231.779 183.747L229.055 185.147L228.743 185.302L225.864 186.78C222.284 182.347 225.008 180.092 225.786 179.626C225.864 179.548 225.942 179.548 225.942 179.548C226.019 179.548 226.097 179.47 226.097 179.47C230.3 177.915 231.779 183.747 231.779 183.747Z" fill="#E8734D"/>
<path d="M254.582 247.588C254.582 247.588 256.761 246.811 257.306 246.577C257.851 246.344 258.084 245.489 258.551 245.8C259.096 246.111 261.12 248.132 262.365 248.288C263.61 248.366 267.191 248.21 267.735 250.076C268.28 251.943 256.917 253.187 255.827 253.809C254.816 254.353 254.582 247.588 254.582 247.588Z" fill="#E55353"/>
<path d="M231.467 160.497C231.467 160.497 231.311 162.208 225.629 164.929C225.629 164.929 224.462 167.806 223.45 168.351C223.45 168.351 218.236 163.763 221.193 159.952C224.151 156.22 229.832 156.142 231.467 160.497Z" fill="#985E44"/>
<path d="M225.63 164.929C225.085 164.229 223.684 164.851 224.073 165.94C224.385 167.029 225.708 167.962 226.019 167.417C226.33 166.795 226.408 165.94 225.63 164.929Z" fill="#F9CDBA"/>
<ellipse opacity="0.3" cx="424" cy="276" rx="28" ry="5" fill="#C4C4C4"/>
</g>
<defs>
<clipPath id="clip0">
<rect width="475" height="293" fill="white"/>
</clipPath>
</defs>
</svg>
