<svg width="297" height="272" viewBox="0 0 297 272" fill="none" xmlns="http://www.w3.org/2000/svg">
<g clip-path="url(#clip0)">
<path opacity="0.7" d="M296.999 258.341C296.914 256.402 283.418 254.8 261.15 253.704C257.86 253.535 257.607 251.68 260.812 251.259C265.62 250.753 268.235 250.162 268.235 249.657C268.151 247.296 217.54 245.862 155.205 246.621C92.8692 247.296 42.4273 249.825 42.5116 252.186C42.5116 252.776 45.8857 253.366 51.7902 253.788C53.7303 253.957 53.6459 255.053 51.6215 255.221C19.9055 256.992 -0.170024 259.353 -0.0856727 261.714C-0.00132167 264.074 19.7368 265.929 51.0311 267.025C53.3085 267.11 54.8269 267.953 54.7425 268.88C54.8269 271.241 105.437 272.675 167.773 271.916C230.108 271.241 280.55 268.712 280.466 266.351C280.466 266.014 279.285 265.676 277.176 265.339C273.718 264.833 274.14 262.81 277.682 262.472C290.082 261.123 297.083 259.69 296.999 258.341Z" fill="#9FCBFF"/>
<path opacity="0.7" d="M144.07 260.786L87.9766 263.147L107.209 253.619H138.587L144.07 260.786Z" fill="#9FCBFF"/>
<path d="M103.583 216.099C103.583 216.099 109.403 211.715 126.273 200.922C162.881 177.399 176.209 135.494 149.807 130.604C123.742 125.798 115.645 161.463 103.92 189.793C98.6902 202.271 93.123 207.752 93.123 207.752L103.583 216.099Z" fill="#39B5A9"/>
<path opacity="0.54" d="M153.518 131.616C147.613 145.612 138.081 166.185 128.971 177.652C120.452 188.36 106.871 201.597 96.918 210.872L103.497 216.183C103.497 216.183 109.318 211.799 126.188 201.007C161.025 178.495 174.858 139.626 153.518 131.616Z" fill="#39B5A9"/>
<path d="M153.519 131.616C152.085 135.494 150.483 139.204 148.88 142.998C147.277 146.792 145.506 150.502 143.734 154.212C140.107 161.632 136.227 168.883 131.419 175.628C126.442 182.289 120.791 188.191 114.971 194.093C112.018 196.96 109.066 199.826 106.114 202.693C103.077 205.475 100.041 208.258 97.0039 210.956C99.8718 208.005 102.824 205.138 105.692 202.272C108.56 199.405 111.428 196.454 114.296 193.418C117.079 190.467 119.863 187.432 122.562 184.397C125.262 181.361 127.961 178.242 130.323 174.953C135.131 168.377 139.011 161.126 142.807 153.875C144.662 150.249 146.518 146.539 148.289 142.914C150.061 139.035 151.832 135.325 153.519 131.616Z" fill="#10665A"/>
<path d="M159.254 152.104C158.664 152.947 158.073 153.79 157.399 154.549C156.724 155.308 156.049 156.067 155.29 156.826C153.771 158.259 152.169 159.608 150.397 160.62C148.626 161.716 146.686 162.559 144.662 162.981C144.155 163.065 143.649 163.149 143.143 163.234C142.637 163.234 142.131 163.318 141.541 163.318C140.528 163.318 139.432 163.234 138.504 162.896C139.516 162.981 140.528 162.896 141.541 162.728C142.553 162.559 143.481 162.306 144.408 161.969C146.264 161.379 148.036 160.451 149.723 159.44C151.41 158.428 153.012 157.247 154.615 155.983L156.892 154.043C157.736 153.453 158.411 152.779 159.254 152.104Z" fill="#10665A"/>
<path d="M158.242 143.673C157.82 144.263 157.398 144.769 156.976 145.359C156.555 145.865 156.049 146.371 155.542 146.877C154.53 147.804 153.434 148.732 152.168 149.49C150.987 150.249 149.638 150.839 148.204 151.177C146.854 151.514 145.336 151.598 143.986 151.092C144.661 151.177 145.336 151.092 146.011 150.924C146.686 150.839 147.36 150.586 147.951 150.418C149.216 149.996 150.481 149.406 151.578 148.647C152.759 147.973 153.855 147.13 154.952 146.286L156.555 144.937C157.229 144.6 157.736 144.094 158.242 143.673Z" fill="#10665A"/>
<path d="M128.889 191.985C128.298 192.407 127.792 192.828 127.202 193.25C126.611 193.587 126.021 193.924 125.346 194.262C124.081 194.852 122.731 195.442 121.382 195.779C120.032 196.117 118.598 196.285 117.164 196.201C115.73 196.117 114.296 195.695 113.115 194.852C113.79 195.105 114.465 195.273 115.14 195.358C115.814 195.442 116.489 195.442 117.164 195.442C118.514 195.442 119.863 195.189 121.213 194.852C122.563 194.599 123.828 194.093 125.093 193.587L127.033 192.828C127.624 192.575 128.298 192.238 128.889 191.985Z" fill="#10665A"/>
<path d="M152.675 166.1C152 167.028 151.325 167.871 150.651 168.714C149.891 169.473 149.132 170.316 148.289 171.075C146.602 172.593 144.746 173.773 142.637 174.785C140.613 175.712 138.42 176.387 136.142 176.64C133.865 176.893 131.587 176.724 129.479 175.965C131.672 176.218 133.865 176.05 135.974 175.628C138.082 175.206 140.107 174.532 142.047 173.604C142.975 173.099 143.987 172.677 144.915 172.087C145.843 171.581 146.686 170.906 147.614 170.316C148.036 170.063 148.457 169.642 148.879 169.304L150.145 168.293C150.988 167.534 151.832 166.775 152.675 166.1Z" fill="#10665A"/>
<path d="M144.745 180.097C144.071 180.94 143.48 181.783 142.721 182.457C141.962 183.132 141.203 183.891 140.275 184.481C138.504 185.746 136.479 186.589 134.455 187.095C133.442 187.348 132.346 187.516 131.249 187.601H129.647C129.141 187.601 128.55 187.516 128.044 187.516C125.935 187.263 123.826 186.673 121.971 185.746C123.995 186.252 126.02 186.505 128.128 186.505C130.153 186.505 132.177 186.336 134.117 185.83C136.057 185.324 137.997 184.65 139.684 183.638C140.612 183.216 141.371 182.542 142.299 182.036C143.143 181.446 143.902 180.687 144.745 180.097Z" fill="#10665A"/>
<path d="M117.67 189.709C116.911 188.191 116.32 186.589 115.983 184.987C115.646 183.301 115.477 181.614 115.393 179.928C115.393 178.242 115.477 176.555 115.646 174.869C115.899 173.183 116.236 171.581 116.827 169.979C116.742 173.351 116.658 176.64 116.742 179.928C116.742 181.53 116.911 183.216 116.995 184.818C117.164 186.42 117.417 188.107 117.67 189.709Z" fill="#10665A"/>
<path d="M127.621 179.254C126.272 177.23 125.175 175.038 124.5 172.677C123.826 170.316 123.488 167.871 123.319 165.426C123.235 162.981 123.319 160.536 123.657 158.09C123.994 155.645 124.5 153.285 125.26 151.008C124.753 155.814 124.5 160.62 124.669 165.342C124.753 167.702 125.091 170.063 125.513 172.424C126.019 174.701 126.778 176.977 127.621 179.254Z" fill="#10665A"/>
<path d="M137.155 166.1C135.637 164.498 134.625 162.391 134.119 160.198C133.528 158.006 133.359 155.73 133.359 153.537C133.359 151.345 133.612 149.069 134.034 146.877C134.456 144.684 134.962 142.577 135.806 140.469C135.552 142.661 135.299 144.853 135.131 147.045C134.962 149.237 134.793 151.43 134.793 153.537C134.793 155.73 134.878 157.838 135.215 159.945C135.468 162.138 136.059 164.161 137.155 166.1Z" fill="#10665A"/>
<path d="M142.975 154.381C142.384 153.032 141.962 151.598 141.794 150.165C141.541 148.732 141.625 147.214 141.709 145.696C141.878 144.263 142.215 142.745 142.722 141.396C143.228 140.047 143.987 138.698 144.915 137.602C144.409 138.951 143.987 140.3 143.565 141.733C143.228 143.082 142.975 144.516 142.806 145.865C142.637 147.298 142.553 148.647 142.637 150.081C142.722 151.514 142.89 152.947 142.975 154.381Z" fill="#10665A"/>
<path d="M108.389 200.248C107.967 198.983 107.63 197.634 107.546 196.285C107.461 194.936 107.461 193.587 107.63 192.238C107.967 189.54 108.727 186.926 110.076 184.65C109.739 185.914 109.401 187.263 109.148 188.528C108.895 189.793 108.642 191.142 108.474 192.407C108.305 193.671 108.22 195.02 108.22 196.285C108.136 197.634 108.22 198.899 108.389 200.248Z" fill="#10665A"/>
<path d="M99.5316 218.124C99.5316 218.124 102.99 207.163 114.377 177.905C139.008 114.501 122.981 44.8565 88.7347 60.1175C54.9942 75.1255 72.4549 131.701 80.1309 181.109C83.5049 202.947 81.1431 215.088 81.1431 215.088L99.5316 218.124Z" fill="#39B5A9"/>
<path opacity="0.54" d="M93.8788 58.4302C97.5903 82.8816 102.061 119.559 100.121 143.167C98.3494 165.173 92.5292 195.02 88.0586 216.268L99.6147 218.123C99.6147 218.123 103.073 207.162 114.46 177.904C137.826 117.704 124.583 51.938 93.8788 58.4302Z" fill="#39B5A9"/>
<path d="M93.8795 58.4302C95.0605 64.9225 96.0727 71.499 97.0849 78.0756C98.0127 84.6522 98.8562 91.2287 99.5311 97.8053C100.965 111.043 101.893 124.28 101.387 137.686C101.134 144.347 100.29 151.008 99.4467 157.585C98.5188 164.161 97.5066 170.738 96.2414 177.23C95.0605 183.722 93.7952 190.299 92.3612 196.791C90.9273 203.283 89.4933 209.776 87.8906 216.183C89.0715 209.607 90.2525 203.115 91.349 196.622C92.5299 190.13 93.6265 183.554 94.6387 176.977C95.6509 170.4 96.6631 163.908 97.4223 157.332C98.2658 150.755 99.0249 144.179 99.278 137.602C99.5311 131.025 99.4467 124.365 99.1937 117.788C98.9406 111.211 98.4345 104.55 97.9284 97.9739C97.4223 91.3974 96.7475 84.7365 95.9883 78.1599C95.3979 71.6677 94.6387 65.0911 93.8795 58.4302Z" fill="#10665A"/>
<path d="M115.895 82.3757C115.895 83.9777 115.811 85.4953 115.726 87.0973C115.558 88.6993 115.305 90.217 115.052 91.819C114.799 93.3366 114.377 94.9386 113.955 96.4563C113.702 97.2151 113.449 97.974 113.196 98.7328L112.858 99.8289L112.437 100.925C111.256 103.876 109.653 106.743 107.629 109.188C107.376 109.525 107.123 109.778 106.87 110.115L106.026 110.958C105.436 111.549 104.845 112.055 104.255 112.56C102.989 113.572 101.555 114.415 100.037 114.753C101.387 113.994 102.568 112.898 103.58 111.802C104.592 110.706 105.52 109.441 106.363 108.176C107.207 106.911 107.966 105.562 108.641 104.213L109.653 102.19C109.991 101.515 110.244 100.756 110.497 100.082L110.918 98.9857L111.34 97.8896C111.593 97.1308 111.846 96.4563 112.099 95.6974C112.605 94.2641 113.027 92.7464 113.449 91.3131C113.786 89.7954 114.292 88.3621 114.63 86.8444C115.136 85.411 115.473 83.8934 115.895 82.3757Z" fill="#10665A"/>
<path d="M108.387 71.3304C108.387 72.4265 108.303 73.5226 108.219 74.5344C108.134 75.6305 107.966 76.6423 107.797 77.7383C107.628 78.8344 107.291 79.8462 107.038 80.9423L106.532 82.46C106.363 82.9659 106.194 83.4718 105.941 83.9777C105.098 86.0012 104.086 87.9405 102.652 89.6268C101.977 90.4699 101.133 91.2287 100.29 91.9876C99.4463 92.6621 98.4341 93.2523 97.4219 93.5052C98.3497 92.9994 99.1089 92.2405 99.8681 91.4817C100.543 90.7228 101.218 89.8797 101.808 89.0365C102.905 87.2659 103.917 85.411 104.676 83.4718C105.098 82.5443 105.435 81.5325 105.773 80.5207L106.7 77.4854L107.544 74.3657C107.881 73.4383 108.134 72.4265 108.387 71.3304Z" fill="#10665A"/>
<path d="M110.834 163.402C110.581 164.414 110.243 165.342 109.906 166.353C109.568 167.281 109.062 168.293 108.641 169.22C108.219 170.148 107.628 171.075 107.122 171.918L106.194 173.183L105.773 173.857L105.267 174.448C104.001 176.05 102.399 177.567 100.627 178.663C100.205 179.001 99.6994 179.169 99.2776 179.422C98.7715 179.675 98.2654 179.844 97.8436 180.012C96.8314 180.35 95.7349 180.518 94.7227 180.434C95.7349 180.265 96.6627 179.844 97.5906 179.422C98.5184 179.001 99.2776 178.41 100.121 177.82C101.639 176.555 103.073 175.206 104.339 173.604C105.013 172.846 105.52 172.002 106.11 171.244L107.797 168.714L109.4 166.1C109.737 165.173 110.243 164.245 110.834 163.402Z" fill="#10665A"/>
<path d="M118.764 107.333C118.764 109.019 118.595 110.705 118.511 112.392C118.258 114.078 118.005 115.764 117.667 117.366C116.824 120.655 115.812 123.943 114.209 126.978C114.04 127.4 113.872 127.737 113.619 128.159L112.944 129.255C112.438 130.014 112.1 130.772 111.51 131.447C111.004 132.121 110.498 132.796 109.907 133.471C109.317 134.145 108.726 134.735 108.136 135.325C106.871 136.506 105.521 137.602 104.087 138.445C102.653 139.288 101.05 140.047 99.3633 140.384C100.882 139.626 102.231 138.698 103.496 137.602C104.762 136.59 105.943 135.41 107.039 134.145C109.148 131.7 111.004 128.918 112.438 126.051C112.775 125.292 113.197 124.617 113.534 123.859C113.872 123.1 114.125 122.341 114.462 121.582C114.631 121.245 114.8 120.823 114.968 120.486L115.39 119.306C115.643 118.547 115.896 117.788 116.233 116.945L117.667 112.139C117.92 110.537 118.342 108.935 118.764 107.333Z" fill="#10665A"/>
<path d="M120.198 133.555C120.113 135.072 120.029 136.674 119.776 138.192L119.27 140.469L119.017 141.649C118.932 142.071 118.764 142.408 118.679 142.745C118.426 143.504 118.173 144.263 117.836 145.022C117.498 145.781 117.161 146.455 116.824 147.13L116.233 148.226C116.064 148.563 115.811 148.9 115.558 149.237C115.137 149.912 114.715 150.586 114.209 151.177C112.269 153.706 109.822 155.898 107.039 157.5C104.34 159.102 101.219 160.283 98.0977 160.451C101.05 159.44 103.749 157.922 106.195 156.151C106.786 155.73 107.376 155.308 107.967 154.802C108.557 154.296 109.148 153.875 109.654 153.285C110.16 152.779 110.75 152.273 111.256 151.683L112.69 149.996C113.112 149.406 113.534 148.816 113.956 148.141C114.124 147.804 114.377 147.551 114.546 147.214L115.137 146.202C115.474 145.528 115.896 144.937 116.233 144.263C116.571 143.588 116.824 142.914 117.161 142.239C117.33 141.902 117.498 141.565 117.667 141.227L118.089 140.131L118.932 138.024C119.27 136.59 119.607 135.072 120.198 133.555Z" fill="#10665A"/>
<path d="M96.1584 169.557C93.9653 168.04 92.1095 166.1 90.4225 164.077C88.7355 161.969 87.3015 159.777 85.9519 157.5C84.6867 155.139 83.5057 152.779 82.5779 150.333C81.65 147.888 80.8065 145.359 80.3848 142.745C81.65 145.106 82.8309 147.382 84.0119 149.659C85.1928 151.935 86.458 154.212 87.7233 156.488C88.9886 158.765 90.3382 160.957 91.6878 163.149C93.0374 165.342 94.5557 167.449 96.1584 169.557Z" fill="#10665A"/>
<path d="M99.7838 146.708C96.4098 144.937 93.4575 142.408 90.8426 139.626C88.2277 136.759 86.0346 133.639 84.0945 130.351C82.1544 127.063 80.4674 123.606 79.1178 120.064C77.7682 116.523 76.5873 112.898 75.8281 109.188C77.3464 112.645 78.8648 116.102 80.5518 119.474C80.9735 120.317 81.3953 121.161 81.817 122.004C82.2388 122.847 82.6606 123.69 83.0823 124.449C83.5041 125.292 83.9258 126.135 84.4319 126.894L85.8659 129.339C86.8781 130.941 87.806 132.543 88.8182 134.061C89.8304 135.663 91.0113 137.096 92.1079 138.614C94.301 141.48 96.9159 144.179 99.7838 146.708Z" fill="#10665A"/>
<path d="M100.798 120.402C97.5083 119.306 94.7247 116.86 92.3629 114.247C91.182 112.898 90.1697 111.464 89.1575 110.031C88.2297 108.598 87.3018 106.996 86.5426 105.478C84.94 102.358 83.5904 99.1543 82.4938 95.8661C81.3972 92.5778 80.4694 89.2052 79.8789 85.7483C81.2285 88.9522 82.5781 92.0719 83.9278 95.2759C84.6026 96.7935 85.2774 98.3955 86.0365 99.9132C86.7957 101.431 87.4705 103.033 88.314 104.466C89.8323 107.502 91.6037 110.453 93.5438 113.151C95.6526 115.933 97.93 118.462 100.798 120.402Z" fill="#10665A"/>
<path d="M98.7711 99.1543C96.9997 97.6367 95.3971 95.9504 94.0474 93.9268C93.3726 92.9994 92.7822 91.9876 92.1917 90.9758C91.8543 90.4699 91.6856 89.8797 91.4326 89.3738C91.1795 88.8679 90.9265 88.2777 90.6734 87.7718C89.7455 85.5796 89.1551 83.3031 88.7333 81.0266C88.3116 78.7501 88.1429 76.3893 88.4803 74.0285C88.902 76.305 89.4081 78.4972 90.0829 80.6894C90.7578 82.8816 91.4326 84.9894 92.2761 87.0973C93.1196 89.2052 94.0474 91.2287 95.144 93.2523C96.3249 95.2759 97.5902 97.1308 98.7711 99.1543Z" fill="#10665A"/>
<path d="M93.2046 192.069C91.6863 190.636 90.2523 188.95 89.1558 187.095C87.9749 185.24 87.047 183.385 86.2035 181.361C85.4443 179.338 84.7695 177.314 84.2634 175.206C83.7573 173.099 83.5043 170.991 83.4199 168.883C84.6008 173.014 85.8661 176.977 87.3844 180.856C88.1436 182.795 89.0714 184.734 89.9993 186.589C91.0115 188.444 92.1081 190.214 93.2046 192.069Z" fill="#10665A"/>
<path d="M84.3498 217.448C84.3498 217.448 83.5906 208.595 83.0845 183.975C81.9036 130.688 50.1876 89.1209 30.5338 113.151C11.1331 136.843 39.9811 168.798 59.888 199.742C68.6605 213.401 70.6006 222.676 70.6006 222.676L84.3498 217.448Z" fill="#39B5A9"/>
<path opacity="0.54" d="M33.5703 110.031C43.355 125.376 57.1886 148.816 62.7558 165.763C67.9012 181.614 72.6248 204.379 75.6615 220.736L84.3496 217.448C84.3496 217.448 83.5905 208.595 83.0844 183.975C81.9035 133.302 53.3085 93.3366 33.5703 110.031Z" fill="#39B5A9"/>
<path d="M33.5703 110.031C36.3539 114.162 39.0531 118.378 41.7524 122.594C44.3672 126.81 46.8978 131.11 49.4283 135.494C54.3207 144.179 58.96 153.116 62.4184 162.475C65.7081 171.918 68.0699 181.699 70.263 191.395C71.2752 196.285 72.2874 201.175 73.2153 206.066C74.0588 210.956 74.9867 215.846 75.6615 220.821C74.5649 215.93 73.5527 211.04 72.4561 206.234C71.3596 201.344 70.263 196.538 69.0821 191.648C67.9012 186.842 66.7203 181.952 65.3707 177.23C64.021 172.424 62.6714 167.618 60.9844 162.981C59.2974 158.343 57.273 153.79 55.1642 149.322C53.0554 144.853 50.6936 140.384 48.4161 136C46.0543 131.616 43.6081 127.231 41.1619 122.931C38.6314 118.547 36.1008 114.331 33.5703 110.031Z" fill="#10665A"/>
<path d="M56.0917 117.704C56.5978 118.884 56.9352 120.064 57.357 121.161C57.6944 122.341 58.0318 123.521 58.2848 124.786C58.5379 126.051 58.7066 127.231 58.8753 128.496C58.9596 129.761 59.1283 131.025 59.044 132.29C59.044 133.555 58.9596 134.82 58.7909 136.084L58.4535 137.939C58.3692 138.529 58.1161 139.204 58.0318 139.794C57.8631 140.384 57.61 140.975 57.4413 141.565C57.1882 142.155 56.9352 142.745 56.5978 143.251C56.0073 144.347 55.2482 145.443 54.3203 146.286C54.9951 145.275 55.5012 144.094 55.8386 142.998C56.0917 142.408 56.176 141.818 56.3447 141.312C56.4291 140.722 56.5978 140.131 56.7665 139.541C57.1883 137.18 57.4413 134.735 57.357 132.374C57.4413 129.929 57.1039 127.568 56.9352 125.123C56.7665 123.943 56.5978 122.678 56.4291 121.498C56.4291 120.149 56.2604 118.968 56.0917 117.704Z" fill="#10665A"/>
<path d="M47.6575 113.066C47.9949 113.825 48.2479 114.668 48.501 115.427C48.754 116.27 48.9227 117.113 49.1758 117.872C49.3445 118.715 49.5132 119.559 49.5975 120.402C49.6819 121.245 49.7662 122.088 49.7662 123.015C49.7662 123.859 49.6819 124.702 49.5975 125.629L49.3445 126.894C49.2601 127.316 49.1758 127.737 49.0071 128.159C48.9227 128.58 48.754 129.002 48.5853 129.423C48.4166 129.845 48.2479 130.182 47.9949 130.604C47.5731 131.363 47.067 132.122 46.4766 132.627C46.8983 131.953 47.2357 131.11 47.5731 130.351C47.8262 129.592 48.0792 128.749 48.2479 127.99C48.5853 126.388 48.6697 124.702 48.6697 123.1C48.6697 121.414 48.501 119.812 48.4166 118.125L48.0792 115.596C47.8262 114.753 47.7418 113.909 47.6575 113.066Z" fill="#10665A"/>
<path d="M76.2521 175.375C76.3365 176.218 76.4208 177.061 76.4208 177.905C76.4208 178.748 76.4208 179.591 76.4208 180.434C76.3364 181.277 76.2521 182.12 76.1678 182.963C75.999 183.807 75.8303 184.65 75.5773 185.409C75.3242 186.252 75.0712 187.011 74.7338 187.854C74.3964 188.613 73.9746 189.371 73.5529 190.13C73.2998 190.467 73.0468 190.805 72.7937 191.142C72.5407 191.479 72.2876 191.816 71.9502 192.069C71.3597 192.66 70.6849 193.25 69.9258 193.503C70.6006 192.997 71.1067 192.322 71.6128 191.732C72.1189 191.058 72.5407 190.383 72.8781 189.624C73.6372 188.191 74.1433 186.673 74.5651 185.071C75.0712 183.554 75.3242 181.867 75.5773 180.265L75.9147 177.905C75.999 177.061 76.0834 176.218 76.2521 175.375Z" fill="#10665A"/>
<path d="M65.4547 133.723C65.9608 134.988 66.3826 136.253 66.8043 137.518C67.1417 138.867 67.4791 140.131 67.6479 141.48C68.0696 144.179 68.2383 146.877 67.9853 149.575C67.7322 152.273 67.1418 154.971 66.0452 157.5C64.9486 160.03 63.5147 162.391 61.4902 164.161C63.0086 161.969 64.1051 159.524 64.9486 157.079C65.7078 154.634 66.2139 152.02 66.4669 149.406L66.6356 147.467C66.6356 146.792 66.6356 146.202 66.6356 145.528C66.72 144.179 66.5513 142.914 66.4669 141.565C66.4669 140.89 66.2982 140.3 66.2982 139.626L66.1295 137.686C65.8765 136.337 65.6234 135.073 65.4547 133.723Z" fill="#10665A"/>
<path d="M74.1427 151.177C74.5645 152.357 74.9862 153.537 75.2393 154.802C75.408 156.067 75.7454 157.332 75.7454 158.596C75.9985 161.126 75.5767 163.74 74.9862 166.185C74.3114 168.63 73.2149 170.991 71.7809 173.099C70.3469 175.206 68.5756 177.061 66.4668 178.41C68.1538 176.555 69.5878 174.532 70.7687 172.424C71.3592 171.328 71.8653 170.232 72.3714 169.136L73.0462 167.449L73.5523 165.679C73.721 165.089 73.8053 164.498 73.974 163.908C74.0584 163.318 74.2271 162.728 74.3114 162.138L74.5645 160.367L74.6488 158.512L74.7332 157.585C74.7332 157.247 74.7332 156.994 74.7332 156.657L74.6488 154.802C74.3958 153.706 74.1427 152.441 74.1427 151.177Z" fill="#10665A"/>
<path d="M67.7325 185.493C65.7924 185.324 63.9367 184.734 62.1654 183.975C60.394 183.216 58.707 182.289 57.1043 181.193C55.5016 180.097 53.9833 178.916 52.6337 177.567C51.1997 176.218 49.9345 174.869 48.8379 173.267C51.9589 175.544 54.9112 177.82 58.0322 179.928C59.5505 181.024 61.1531 181.952 62.7558 182.879C64.2741 183.807 65.9612 184.65 67.7325 185.493Z" fill="#10665A"/>
<path d="M63.5999 168.293C60.8163 168.377 58.0327 167.871 55.3335 167.028C52.7186 166.1 50.1881 164.836 47.8262 163.318C45.4644 161.8 43.2713 160.114 41.2469 158.175C39.2224 156.32 37.2824 154.212 35.6797 151.935C37.7885 153.79 39.8972 155.477 42.006 157.163C44.1991 158.849 46.3923 160.451 48.6698 161.885C50.9472 163.318 53.3091 164.583 55.7552 165.763C58.2858 166.859 60.8163 167.702 63.5999 168.293Z" fill="#10665A"/>
<path d="M56.598 149.743C54.0675 150.249 51.4526 149.743 49.0064 148.816C47.8255 148.394 46.6446 147.804 45.548 147.13C44.4515 146.455 43.3549 145.78 42.3427 145.022C40.3183 143.504 38.3782 141.818 36.6068 140.047C34.8355 138.192 33.1484 136.253 31.7988 134.145C33.6546 135.831 35.5946 137.518 37.4503 139.12C39.3904 140.722 41.2461 142.324 43.2706 143.757C45.295 145.19 47.3194 146.539 49.5125 147.635C51.7057 148.816 54.0675 149.659 56.598 149.743Z" fill="#10665A"/>
<path d="M49.0068 136C47.3198 135.663 45.7171 135.073 44.1988 134.229C42.6805 133.471 41.2465 132.374 39.9812 131.278C38.716 130.098 37.5351 128.833 36.6072 127.4C35.6793 125.967 34.8358 124.449 34.4141 122.763C35.3419 124.196 36.3541 125.461 37.4507 126.725C38.5473 127.99 39.6438 129.17 40.9091 130.267C42.09 131.363 43.4396 132.374 44.7892 133.302C46.0545 134.314 47.4885 135.073 49.0068 136Z" fill="#10665A"/>
<path d="M72.2879 202.103C70.7696 201.681 69.3356 201.091 67.986 200.332C66.6364 199.489 65.3711 198.562 64.1902 197.55C63.0093 196.454 61.9971 195.358 61.0692 194.093C60.1414 192.828 59.2979 191.564 58.623 190.13C60.6475 192.491 62.6719 194.767 64.865 196.791C65.9616 197.803 67.1425 198.815 68.3234 199.658C69.5887 200.501 70.9383 201.26 72.2879 202.103Z" fill="#10665A"/>
<path d="M58.1172 212.474L63.2626 248.813C64.1061 254.547 68.7454 259.015 74.4813 259.606L85.1095 260.617C87.4714 260.87 89.8332 260.786 92.195 260.533L102.317 259.353C108.137 258.678 112.777 253.957 113.367 248.139L117.247 209.86L58.1172 212.474Z" fill="#FF6000"/>
<path opacity="0.22" d="M111.932 210.029L99.1105 244.851C96.9174 250.753 90.9285 254.378 84.6865 253.535L73.8052 252.102C71.2747 251.764 68.8285 251.174 66.4667 250.331L63.3457 249.235C64.2736 254.8 68.8285 259.1 74.5644 259.69L85.1926 260.702C87.5544 260.955 89.9163 260.87 92.2781 260.617L102.4 259.437C108.22 258.763 112.86 254.041 113.45 248.223L117.33 209.944L111.932 210.029Z" fill="#FF6000"/>
<path opacity="0.51" d="M116.235 221.495L117.247 209.776L106.197 210.281C97.5091 211.462 89.6645 211.715 82.7477 211.293L58.1172 212.474L59.2137 218.629C84.8565 223.519 105.438 223.772 116.235 221.495Z" fill="#FF6000"/>
<path d="M57.9466 205.138C67.8156 208.005 90.7591 212.727 119.776 205.476C122.138 204.885 124.5 206.656 124.5 209.185V212.811C124.5 214.582 123.403 216.099 121.716 216.521C113.534 218.797 88.6503 224.109 56.0065 217.195C54.1508 216.774 52.8011 215.172 52.8011 213.317L52.7168 209.101C52.7168 206.403 55.3317 204.379 57.9466 205.138Z" fill="#FF6000"/>
<path opacity="0.22" d="M124.501 209.185C124.501 206.993 122.645 205.391 120.621 205.391C120.874 205.897 121.042 206.487 121.042 207.077V210.703C121.042 212.474 119.946 213.991 118.259 214.413C110.161 216.605 85.615 221.917 53.3086 215.256C53.8991 216.183 54.8269 216.942 55.9235 217.195C88.6517 224.193 113.535 218.797 121.633 216.521C123.32 216.015 124.501 214.497 124.417 212.811L124.501 209.185Z" fill="#FF6000"/>
<path d="M197.717 114.331H203.959C203.959 114.331 208.092 130.941 215.346 136.59C222.601 142.324 206.489 146.118 206.489 146.118L199.235 147.13C199.235 147.13 195.608 135.073 192.825 131.784C190.125 128.496 197.717 114.331 197.717 114.331Z" fill="#F9BBC1"/>
<path opacity="0.38" d="M197.717 114.331H203.959C203.959 114.331 208.092 130.941 215.346 136.59C222.601 142.324 206.489 146.118 206.489 146.118L199.235 147.13C199.235 147.13 195.608 135.073 192.825 131.784C190.125 128.496 197.717 114.331 197.717 114.331Z" fill="#F9BBC1"/>
<path d="M203.946 120.734C205.317 109.314 199.191 99.1884 190.264 98.118C181.336 97.0477 172.989 105.438 171.618 116.858C170.248 128.278 176.374 138.404 185.301 139.474C194.228 140.544 202.576 132.154 203.946 120.734Z" fill="#F9BBC1"/>
<path opacity="0.38" d="M190.211 98.1426C188.271 97.8896 184.391 98.1426 182.619 98.6484C189.62 101.009 194.766 109.103 194.766 118.8C194.766 128.833 191.223 137.265 183.8 139.204C184.306 139.288 184.812 139.457 185.318 139.457C194.26 140.553 202.61 132.121 203.96 120.739C205.31 109.356 199.152 99.1543 190.211 98.1426Z" fill="#F9BBC1"/>
<path d="M212.985 209.776L145.42 216.352L115.307 158.596L182.534 154.043L212.985 209.776Z" fill="#2E78EC"/>
<path d="M215.852 209.523L148.287 216.099L118.174 158.343L185.402 153.79L215.852 209.523Z" fill="#9AC6FC"/>
<path opacity="0.71" d="M121.463 160.198L184.22 155.983L212.478 207.752L149.467 213.907L121.463 160.198Z" fill="#EAF7FF"/>
<path d="M231.036 212.642H146.01V220.146H231.036V212.642Z" fill="#2440E4"/>
<path d="M175.026 165.004L131.501 168.208L129.393 164.667L173.002 161.463L175.026 165.004Z" fill="#9AC6FC"/>
<path d="M188.524 171.244L135.298 175.038L133.189 171.581L186.499 167.787L188.524 171.244Z" fill="#9AC6FC"/>
<path d="M175.786 178.832L139.093 181.867L136.984 178.41L173.677 175.291L175.786 178.832Z" fill="#9AC6FC"/>
<path d="M196.115 184.987L142.89 188.781L140.865 185.24L194.091 181.446L196.115 184.987Z" fill="#9AC6FC"/>
<path d="M199.91 191.816L146.685 195.611L144.66 192.069L197.886 188.275L199.91 191.816Z" fill="#9AC6FC"/>
<path d="M203.707 198.646L150.481 202.44L148.457 198.899L201.683 195.105L203.707 198.646Z" fill="#9AC6FC"/>
<path d="M214.756 155.392C214.84 152.947 214.502 150.418 213.659 148.141C212.562 145.19 210.454 142.071 206.489 141.986C202.019 141.902 197.801 142.998 197.042 145.528C195.102 151.936 194.09 153.79 189.197 164.751C180.425 184.565 166.76 199.321 166.76 199.321L185.739 206.234C185.823 206.319 213.406 192.997 214.756 155.392Z" fill="#FF285A"/>
<path d="M100.291 234.648C100.291 234.648 87.8915 247.38 78.8659 250.162C69.8403 252.945 47.7404 259.521 55.6694 263.231C63.514 266.941 77.5163 264.159 92.2777 262.641C101.725 261.629 97.0857 255.474 103.328 247.127C104.171 245.947 100.291 234.648 100.291 234.648Z" fill="#F9BBC1"/>
<path d="M208.599 220.146H125.176V261.714H208.599V220.146Z" fill="#090083"/>
<path d="M163.472 183.301C161.194 182.626 158.664 183.216 156.892 184.818C151.409 189.793 140.95 200.838 148.963 205.56C180.257 224.362 189.199 234.648 208.178 234.648C239.472 234.648 253.137 224.362 255.245 208.848L163.472 183.301Z" fill="#FFCB00"/>
<path d="M166.76 209.776C166.76 209.776 158.747 207.33 154.698 217.701C149.131 231.866 142.13 233.805 124.585 241.9C106.281 250.331 100.713 253.619 100.713 253.619L87.5547 244.598C87.5547 244.598 145.757 180.434 159.844 182.879C180.51 186.505 166.76 209.776 166.76 209.776Z" fill="#FFCB00"/>
<path opacity="0.11" d="M240.484 204.801C235.423 211.883 225.807 217.448 208.683 220.146C193.163 222.591 179.076 215.509 156.47 205.644C152.843 204.042 151.325 206.066 150.397 209.944C150.397 209.944 152.337 223.013 121.633 238.611C107.04 246.031 102.148 252.186 100.461 253.451L100.714 253.619C100.714 253.619 106.281 250.331 124.585 241.9C142.13 233.805 149.131 231.866 154.699 217.701C155.795 214.75 157.314 212.895 158.747 211.63C182.366 226.554 191.307 234.648 208.177 234.648C239.471 234.648 253.136 224.362 255.245 208.848L240.484 204.801Z" fill="#DA1C5C"/>
<path d="M211.046 130.772C211.046 130.772 206.659 139.12 197.043 142.408C197.043 142.408 195.862 151.345 198.983 164.498C202.104 177.652 204.129 194.599 204.129 194.599C204.129 194.599 211.805 214.329 238.797 212.558C265.789 210.872 259.547 199.742 259.547 199.742C259.547 199.742 249.004 165.594 238.46 151.683C226.566 136.169 215.854 127.821 211.046 130.772Z" fill="#FF285A"/>
<path d="M196.283 110.705C194.934 110.284 193.415 110.284 192.066 110.705C187.426 112.139 176.376 115.09 167.604 112.645C156.216 109.525 154.951 105.309 154.951 105.309C154.951 105.309 159.59 107.502 162.88 107.502C162.88 107.502 156.132 103.876 154.951 99.9132C154.951 99.9132 160.518 103.117 166.676 102.611C166.676 102.611 161.699 102.358 160.603 99.9132C160.603 99.9132 167.013 101.262 175.28 98.9014C175.28 98.9014 166.254 98.7328 165.073 96.9622C165.073 96.9622 174.942 97.2994 181.016 94.8543C187.089 92.4091 200.248 91.7346 204.634 100.419C208.767 108.176 202.694 112.476 196.283 110.705Z" fill="#03004D"/>
<path opacity="0.22" d="M209.948 234.986C241.158 233.299 254.233 222.254 255.498 206.656C262.583 202.44 259.209 197.213 259.209 197.213C259.209 197.213 255.329 185.324 247.906 170.991C235.844 173.436 230.952 184.481 228.084 193.671C224.963 203.705 226.819 216.268 190.716 212.558C182.028 211.63 173.93 213.823 169.713 220.568C186.92 230.433 195.777 235.745 209.948 234.986Z" fill="#DA1C5C"/>
<path d="M193.753 103.286L186.836 108.429C186.836 108.429 199.067 108.429 199.573 116.439C199.91 121.666 202.694 128.327 212.394 128.749C212.394 128.749 209.189 125.629 208.852 124.533C208.852 124.533 211.888 126.557 214.84 125.714C214.84 125.714 209.526 122.678 208.43 119.727C208.43 119.727 210.454 121.835 212.732 121.835C212.732 121.835 207.586 117.535 207.249 115.68C207.249 115.68 209.105 116.945 211.045 116.017C211.045 116.017 209.105 115.511 207.924 113.404C206.743 111.296 206.996 105.984 205.224 101.768C203.453 97.4681 198.055 98.3955 198.055 98.3955L193.753 103.286Z" fill="#03004D"/>
<path d="M229.348 198.73C229.348 198.73 235.59 166.944 260.137 174.869C289.491 184.397 310.157 248.898 267.728 258.51C245.966 263.484 187.173 262.557 169.881 261.798C165.748 261.629 161.783 260.28 158.409 258.004C154.782 255.474 150.986 251.511 150.818 246.115C150.48 235.407 157.734 220.568 189.872 221.242C222.094 221.833 229.348 198.73 229.348 198.73Z" fill="#557FAF"/>
<path opacity="0.33" d="M278.104 188.528C276.333 186.252 273.887 184.65 271.019 184.059C271.019 184.059 271.019 184.059 270.934 184.059C245.713 178.916 243.014 211.209 243.014 211.209C243.014 211.209 238.375 235.07 206.321 237.937C179.245 240.382 171.063 251.933 170.135 261.882C187.848 262.641 245.966 263.484 267.645 258.51C300.626 251.006 295.649 210.787 278.104 188.528Z" fill="#245868"/>
<path opacity="0.57" d="M214.841 160.62C214.757 160.03 214.672 159.44 214.588 159.018C213.407 172.761 208.683 183.048 203.369 190.467C203.369 190.467 204.128 194.515 204.634 195.695C205.309 197.213 208.262 201.091 208.262 201.091C208.262 201.091 217.287 180.687 214.841 160.62Z" fill="#DA1C5C"/>
<path opacity="0.39" d="M208.428 119.727C208.428 119.727 210.453 121.835 212.73 121.835C212.73 121.835 207.585 117.535 207.247 115.68C207.247 115.68 209.103 116.945 211.043 116.017C211.043 116.017 209.103 115.511 207.922 113.404C206.741 111.38 206.994 106.321 205.392 102.19C205.223 101.599 204.97 101.009 204.632 100.419C202.271 95.6974 197.209 93.7582 192.148 93.3366C192.233 93.5896 192.57 93.8425 193.245 94.0954C198.728 96.2876 201.09 107.502 198.812 113.909C199.15 114.668 199.403 115.511 199.487 116.439C199.824 121.666 202.608 128.327 212.308 128.749C212.308 128.749 209.103 125.629 208.766 124.533C208.766 124.533 211.802 126.557 214.754 125.714C214.839 125.629 209.609 122.678 208.428 119.727Z" fill="#03004D"/>
<path d="M195.102 112.645C195.102 112.645 195.945 107.67 198.307 108.598C200.753 109.525 201.681 112.476 200.837 115.849C199.994 119.221 196.029 117.366 196.029 117.366" fill="#F9BBC1"/>
<path opacity="0.38" d="M195.102 112.645C195.102 112.645 195.945 107.67 198.307 108.598C200.753 109.525 201.681 112.476 200.837 115.849C199.994 119.221 196.029 117.366 196.029 117.366" fill="#F9BBC1"/>
<path d="M82.8311 248.392C63.5991 253.704 48.5002 259.943 55.5857 263.315C63.4304 267.025 77.4326 264.243 92.194 262.725C98.9421 262.051 98.5204 258.678 100.039 253.788C97.0021 254.041 90.0853 253.619 82.8311 248.392Z" fill="#03004D"/>
<path d="M187.056 65.0535C189.134 52.3697 180.531 40.4037 167.842 38.3268C155.153 36.2499 143.182 44.8485 141.104 57.5323C139.026 70.2161 147.628 82.1821 160.318 84.259C173.007 86.3359 184.978 77.7373 187.056 65.0535Z" fill="#FF7300"/>
<path d="M162.964 83.8934C175.822 83.8934 186.245 73.4746 186.245 60.6225C186.245 47.7703 175.822 37.3515 162.964 37.3515C150.107 37.3515 139.684 47.7703 139.684 60.6225C139.684 73.4746 150.107 83.8934 162.964 83.8934Z" fill="#FFB300"/>
<path opacity="0.42" d="M162.964 80.2678C173.819 80.2678 182.618 71.4723 182.618 60.6224C182.618 49.7726 173.819 40.9771 162.964 40.9771C152.11 40.9771 143.311 49.7726 143.311 60.6224C143.311 71.4723 152.11 80.2678 162.964 80.2678Z" fill="#FFB300"/>
<path d="M162.964 42.3261C173.002 42.3261 181.184 50.5046 181.184 60.5381C181.184 70.5716 173.002 78.7501 162.964 78.7501C152.927 78.7501 144.745 70.5716 144.745 60.5381C144.745 50.5046 152.927 42.3261 162.964 42.3261ZM162.964 40.9771C152.083 40.9771 143.311 49.7458 143.311 60.6224C143.311 71.4991 152.083 80.2678 162.964 80.2678C173.846 80.2678 182.618 71.4991 182.618 60.6224C182.618 49.7458 173.846 40.9771 162.964 40.9771Z" fill="#FFB300"/>
<g opacity="0.25">
<path opacity="0.25" d="M171.394 63.1261C171.394 64.5449 170.869 65.7535 169.817 66.7519C168.783 67.7328 167.276 68.3283 165.296 68.5385V71.4812H163.141V68.5648C161.844 68.4772 160.618 68.2407 159.461 67.8554C158.305 67.47 157.385 66.9796 156.701 66.3841L157.884 63.7304C158.532 64.2559 159.321 64.7025 160.25 65.0704C161.178 65.4207 162.142 65.6396 163.141 65.7272V60.4725C161.897 60.1747 160.854 59.8507 160.013 59.5003C159.189 59.1325 158.497 58.607 157.937 57.9239C157.376 57.2233 157.095 56.3037 157.095 55.1652C157.095 53.7464 157.612 52.5378 158.646 51.5394C159.68 50.541 161.178 49.9455 163.141 49.7528V46.7839H165.296V49.7003C166.278 49.7528 167.233 49.9192 168.161 50.1995C169.108 50.4797 169.931 50.8475 170.632 51.303L169.555 53.9566C168.223 53.1859 166.803 52.713 165.296 52.5378V57.8451C166.558 58.1429 167.601 58.4669 168.424 58.8172C169.265 59.1675 169.966 59.693 170.527 60.3937C171.105 61.0768 171.394 61.9876 171.394 63.1261ZM160.486 55.0075C160.486 55.5856 160.714 56.0497 161.17 56.4001C161.625 56.7504 162.282 57.0481 163.141 57.2934V52.6166C162.247 52.7568 161.581 53.037 161.143 53.4574C160.705 53.8778 160.486 54.3945 160.486 55.0075ZM165.296 65.6747C166.225 65.5345 166.908 65.263 167.347 64.8602C167.802 64.4573 168.03 63.9581 168.03 63.3626C168.03 62.767 167.793 62.2941 167.32 61.9438C166.847 61.576 166.173 61.2694 165.296 61.0242V65.6747Z" fill="#F95706"/>
</g>
<path d="M170.703 62.4348C170.703 63.8536 170.177 65.0622 169.126 66.0606C168.092 67.0415 166.585 67.637 164.605 67.8472V70.7899H162.45V67.8735C161.153 67.7859 159.926 67.5494 158.77 67.1641C157.613 66.7788 156.693 66.2883 156.01 65.6928L157.193 63.0391C157.841 63.5646 158.629 64.0113 159.558 64.3791C160.487 64.7294 161.451 64.9484 162.45 65.0359V59.7812C161.205 59.4834 160.163 59.1594 159.322 58.8091C158.498 58.4412 157.806 57.9158 157.245 57.2326C156.684 56.532 156.404 55.6124 156.404 54.4739C156.404 53.0551 156.921 51.8465 157.955 50.8481C158.989 49.8497 160.487 49.2542 162.45 49.0615V46.0926H164.605V49.009C165.586 49.0615 166.541 49.2279 167.47 49.5082C168.416 49.7884 169.24 50.1562 169.941 50.6117L168.863 53.2653C167.531 52.4946 166.112 52.0217 164.605 51.8465V57.1538C165.867 57.4516 166.909 57.7756 167.733 58.1259C168.574 58.4763 169.275 59.0017 169.836 59.7024C170.414 60.3855 170.703 61.2963 170.703 62.4348ZM159.795 54.3163C159.795 54.8943 160.023 55.3584 160.478 55.7088C160.934 56.0591 161.591 56.3568 162.45 56.6021V51.9253C161.556 52.0655 160.89 52.3457 160.452 52.7661C160.014 53.1865 159.795 53.7032 159.795 54.3163ZM164.605 64.9834C165.534 64.8433 166.217 64.5718 166.655 64.1689C167.111 63.766 167.339 63.2668 167.339 62.6713C167.339 62.0758 167.102 61.6028 166.629 61.2525C166.156 60.8847 165.481 60.5782 164.605 60.3329V64.9834Z" fill="#FFCB00"/>
<path d="M102.063 52.9498C110.588 52.9498 117.499 46.0417 117.499 37.5201C117.499 28.9986 110.588 22.0905 102.063 22.0905C93.538 22.0905 86.627 28.9986 86.627 37.5201C86.627 46.0417 93.538 52.9498 102.063 52.9498Z" fill="#FF7300"/>
<path d="M101.305 52.4439C109.831 52.4439 116.742 45.5358 116.742 37.0143C116.742 28.4927 109.831 21.5846 101.305 21.5846C92.7802 21.5846 85.8691 28.4927 85.8691 37.0143C85.8691 45.5358 92.7802 52.4439 101.305 52.4439Z" fill="#FFB300"/>
<path opacity="0.42" d="M106.317 49.0011C112.934 46.2308 116.052 38.6229 113.281 32.0082C110.51 25.3936 102.898 22.277 96.2809 25.0473C89.6634 27.8175 86.5455 35.4254 89.3169 42.0401C92.0883 48.6547 99.6995 51.7713 106.317 49.0011Z" fill="#FFB300"/>
<path d="M101.305 24.9572C107.968 24.9572 113.367 30.3534 113.367 37.0143C113.367 43.6751 107.968 49.0713 101.305 49.0713C94.6408 49.0713 89.2423 43.6751 89.2423 37.0143C89.2423 30.3534 94.6408 24.9572 101.305 24.9572ZM101.305 24.0298C94.1347 24.0298 88.3145 29.8475 88.3145 37.0143C88.3145 44.181 94.1347 49.9988 101.305 49.9988C108.474 49.9988 114.295 44.181 114.295 37.0143C114.295 29.8475 108.474 24.0298 101.305 24.0298Z" fill="#FFB300"/>
<g opacity="0.25">
<path opacity="0.25" d="M106.908 38.8171C106.908 39.757 106.559 40.5576 105.863 41.219C105.178 41.8688 104.18 42.2634 102.868 42.4026V44.352H101.44V42.42C100.581 42.362 99.7683 42.2053 99.0022 41.9501C98.236 41.6948 97.6266 41.3699 97.1738 40.9754L97.9574 39.2174C98.3869 39.5655 98.9093 39.8614 99.5245 40.1051C100.14 40.3372 100.778 40.4822 101.44 40.5402V37.0592C100.616 36.8619 99.925 36.6472 99.3678 36.4152C98.8222 36.1715 98.3637 35.8234 97.9922 35.3709C97.6208 34.9067 97.435 34.2975 97.435 33.5433C97.435 32.6034 97.7775 31.8028 98.4624 31.1414C99.1473 30.48 100.14 30.0855 101.44 29.9578V27.991H102.868V29.923C103.518 29.9578 104.151 30.068 104.766 30.2537C105.393 30.4394 105.938 30.683 106.403 30.9847L105.689 32.7427C104.806 32.2321 103.866 31.9188 102.868 31.8028V35.3186C103.704 35.5159 104.394 35.7306 104.94 35.9626C105.497 36.1947 105.961 36.5428 106.333 37.007C106.716 37.4595 106.908 38.0629 106.908 38.8171ZM99.6813 33.4389C99.6813 33.8218 99.8322 34.1293 100.134 34.3614C100.436 34.5934 100.871 34.7907 101.44 34.9531V31.855C100.848 31.9478 100.407 32.1335 100.117 32.412C99.8264 32.6904 99.6813 33.0327 99.6813 33.4389ZM102.868 40.5054C103.483 40.4126 103.936 40.2327 104.226 39.9659C104.528 39.699 104.679 39.3683 104.679 38.9738C104.679 38.5792 104.522 38.2659 104.209 38.0339C103.895 37.7902 103.448 37.5871 102.868 37.4247V40.5054Z" fill="#F95706"/>
</g>
<path d="M106.449 38.3591C106.449 39.299 106.1 40.0996 105.404 40.761C104.719 41.4108 103.721 41.8054 102.409 41.9446V43.894H100.981V41.962C100.122 41.904 99.3093 41.7473 98.5432 41.4921C97.777 41.2368 97.1676 40.9119 96.7148 40.5174L97.4984 38.7594C97.9279 39.1075 98.4503 39.4034 99.0656 39.6471C99.6808 39.8792 100.319 40.0242 100.981 40.0822V36.6012C100.157 36.4039 99.4661 36.1893 98.9088 35.9572C98.3632 35.7135 97.9047 35.3654 97.5332 34.9129C97.1618 34.4487 96.976 33.8395 96.976 33.0853C96.976 32.1454 97.3185 31.3448 98.0034 30.6834C98.6883 30.022 99.6808 29.6275 100.981 29.4998V27.533H102.409V29.465C103.059 29.4998 103.692 29.6101 104.307 29.7957C104.934 29.9814 105.479 30.225 105.944 30.5267L105.23 32.2847C104.347 31.7741 103.407 31.4608 102.409 31.3448V34.8607C103.245 35.0579 103.935 35.2726 104.481 35.5046C105.038 35.7367 105.502 36.0848 105.874 36.549C106.257 37.0015 106.449 37.6049 106.449 38.3591ZM99.2223 32.9809C99.2223 33.3638 99.3732 33.6713 99.675 33.9034C99.9768 34.1354 100.412 34.3327 100.981 34.4951V31.397C100.389 31.4898 99.9478 31.6755 99.6576 31.954C99.3674 32.2325 99.2223 32.5748 99.2223 32.9809ZM102.409 40.0474C103.024 39.9546 103.477 39.7747 103.767 39.5079C104.069 39.241 104.22 38.9103 104.22 38.5158C104.22 38.1212 104.063 37.8079 103.75 37.5759C103.436 37.3322 102.989 37.1291 102.409 36.9667V40.0474Z" fill="#FFCB00"/>
<path d="M152.677 24.8304C159.217 22.5053 162.634 15.321 160.307 8.78374C157.981 2.24646 150.794 -1.16824 144.254 1.15679C137.714 3.48182 134.298 10.6661 136.624 17.2034C138.95 23.7407 146.137 27.1554 152.677 24.8304Z" fill="#FF7300"/>
<path d="M147.865 25.1259C154.806 25.1259 160.433 19.5012 160.433 12.5629C160.433 5.62461 154.806 0 147.865 0C140.924 0 135.297 5.62461 135.297 12.5629C135.297 19.5012 140.924 25.1259 147.865 25.1259Z" fill="#FFB300"/>
<path opacity="0.42" d="M147.867 23.1866C153.736 23.1866 158.495 18.4302 158.495 12.5629C158.495 6.69562 153.736 1.93924 147.867 1.93924C141.997 1.93924 137.238 6.69562 137.238 12.5629C137.238 18.4302 141.997 23.1866 147.867 23.1866Z" fill="#FFB300"/>
<path d="M147.867 2.69807C153.349 2.69807 157.736 7.16677 157.736 12.5629C157.736 17.9591 153.265 22.4278 147.867 22.4278C142.384 22.4278 137.997 17.9591 137.997 12.5629C137.997 7.16677 142.468 2.69807 147.867 2.69807ZM147.867 1.93924C141.962 1.93924 137.238 6.74519 137.238 12.5629C137.238 18.465 142.046 23.1866 147.867 23.1866C153.771 23.1866 158.495 18.3807 158.495 12.5629C158.579 6.74519 153.771 1.93924 147.867 1.93924Z" fill="#FFB300"/>
<g opacity="0.25">
<path opacity="0.25" d="M152.464 14.5836C152.464 15.3528 152.179 16.008 151.609 16.5493C151.048 17.0811 150.231 17.4039 149.158 17.5179V19.1132H147.989V17.5321C147.286 17.4847 146.621 17.3565 145.994 17.1475C145.367 16.9386 144.869 16.6728 144.498 16.3499L145.139 14.9112C145.491 15.1961 145.918 15.4383 146.422 15.6377C146.925 15.8276 147.448 15.9463 147.989 15.9938V13.145C147.315 12.9836 146.75 12.8079 146.294 12.618C145.847 12.4185 145.472 12.1337 145.168 11.7633C144.864 11.3835 144.712 10.8849 144.712 10.2677C144.712 9.49852 144.992 8.8433 145.553 8.30203C146.113 7.76075 146.925 7.43789 147.989 7.33343V5.72386H149.158V7.30495C149.69 7.33343 150.208 7.42365 150.711 7.57558C151.224 7.72752 151.671 7.92693 152.051 8.17383L151.466 9.61247C150.744 9.19465 149.975 8.93826 149.158 8.8433V11.7206C149.842 11.882 150.407 12.0577 150.854 12.2476C151.31 12.4375 151.69 12.7224 151.994 13.1023C152.307 13.4726 152.464 13.9664 152.464 14.5836ZM146.55 10.1822C146.55 10.4956 146.674 10.7472 146.921 10.9372C147.168 11.1271 147.524 11.2885 147.989 11.4215V8.88603C147.505 8.962 147.144 9.11393 146.906 9.34184C146.669 9.56974 146.55 9.84987 146.55 10.1822ZM149.158 15.9653C149.661 15.8893 150.032 15.7421 150.269 15.5237C150.516 15.3053 150.64 15.0347 150.64 14.7118C150.64 14.389 150.512 14.1326 150.255 13.9426C149.999 13.7432 149.633 13.5771 149.158 13.4441V15.9653Z" fill="#F95706"/>
</g>
<path d="M152.089 14.2088C152.089 14.9779 151.804 15.6332 151.234 16.1744C150.673 16.7062 149.856 17.0291 148.783 17.143V18.7383H147.614V17.1573C146.911 17.1098 146.246 16.9816 145.619 16.7727C144.992 16.5638 144.494 16.2979 144.123 15.975L144.764 14.5364C145.116 14.8212 145.543 15.0634 146.047 15.2628C146.55 15.4527 147.073 15.5714 147.614 15.6189V12.7701C146.94 12.6087 146.375 12.433 145.919 12.2431C145.472 12.0437 145.097 11.7588 144.793 11.3884C144.489 11.0086 144.337 10.5101 144.337 9.89282C144.337 9.12364 144.617 8.46842 145.178 7.92715C145.738 7.38588 146.55 7.06301 147.614 6.95856V5.34898H148.783V6.93007C149.315 6.95856 149.833 7.04877 150.336 7.2007C150.849 7.35264 151.296 7.55206 151.676 7.79895L151.091 9.23759C150.369 8.81977 149.6 8.56338 148.783 8.46842V11.3457C149.467 11.5071 150.032 11.6828 150.479 11.8727C150.935 12.0627 151.315 12.3475 151.619 12.7274C151.932 13.0977 152.089 13.5915 152.089 14.2088ZM146.175 9.80736C146.175 10.1207 146.299 10.3724 146.546 10.5623C146.793 10.7522 147.149 10.9136 147.614 11.0466V8.51115C147.13 8.58712 146.769 8.73906 146.531 8.96696C146.294 9.19486 146.175 9.475 146.175 9.80736ZM148.783 15.5904C149.286 15.5145 149.657 15.3673 149.894 15.1489C150.141 14.9304 150.265 14.6598 150.265 14.3369C150.265 14.0141 150.137 13.7577 149.88 13.5678C149.624 13.3684 149.258 13.2022 148.783 13.0692V15.5904Z" fill="#FFCB00"/>
<path d="M131.755 130.397C142.626 119.531 142.626 101.914 131.755 91.0482C120.885 80.1824 103.26 80.1824 92.3897 91.0482C81.5193 101.914 81.5193 119.531 92.3898 130.397C103.26 141.263 120.885 141.263 131.755 130.397Z" fill="#FF7300"/>
<path d="M137.92 116.267C141.404 101.3 132.09 86.3434 117.116 82.8613C102.142 79.3792 87.1799 88.6897 83.6963 103.657C80.2127 118.624 89.5272 133.58 104.501 137.062C119.474 140.544 134.437 131.234 137.92 116.267Z" fill="#FFB300"/>
<path opacity="0.42" d="M110.751 133.471C123.748 133.471 134.285 122.939 134.285 109.947C134.285 96.9548 123.748 86.4228 110.751 86.4228C97.7533 86.4228 87.2168 96.9548 87.2168 109.947C87.2168 122.939 97.7533 133.471 110.751 133.471Z" fill="#FFB300"/>
<path d="M110.751 88.1091C122.813 88.1091 132.598 97.8896 132.598 109.947C132.598 122.004 122.813 131.784 110.751 131.784C98.6885 131.784 88.9038 122.004 88.9038 109.947C88.9038 97.8896 98.7729 88.1091 110.751 88.1091ZM110.751 86.4228C97.7607 86.4228 87.2168 96.9622 87.2168 109.947C87.2168 122.931 97.7607 133.471 110.751 133.471C123.741 133.471 134.285 122.931 134.285 109.947C134.285 96.9622 123.741 86.4228 110.751 86.4228Z" fill="#FFB300"/>
<g opacity="0.25">
<path opacity="0.25" d="M120.877 113.024C120.877 114.722 120.248 116.168 118.989 117.363C117.752 118.537 115.949 119.25 113.579 119.501V123.023H111V119.533C109.448 119.428 107.98 119.145 106.596 118.684C105.212 118.223 104.111 117.636 103.293 116.923L104.708 113.747C105.484 114.376 106.428 114.911 107.54 115.351C108.651 115.77 109.804 116.032 111 116.137V109.849C109.511 109.492 108.263 109.104 107.256 108.685C106.271 108.245 105.442 107.616 104.771 106.799C104.1 105.96 103.765 104.86 103.765 103.497C103.765 101.799 104.383 100.353 105.621 99.1581C106.858 97.9633 108.651 97.2506 111 97.02V93.4671H113.579V96.9572C114.753 97.02 115.896 97.2192 117.008 97.5546C118.14 97.89 119.126 98.3301 119.965 98.8751L118.675 102.051C117.081 101.129 115.383 100.563 113.579 100.353V106.704C115.089 107.061 116.337 107.448 117.322 107.868C118.329 108.287 119.168 108.916 119.839 109.754C120.531 110.572 120.877 111.662 120.877 113.024ZM107.823 103.309C107.823 104 108.095 104.556 108.64 104.975C109.186 105.394 109.972 105.751 111 106.044V100.447C109.93 100.615 109.133 100.95 108.609 101.453C108.085 101.957 107.823 102.575 107.823 103.309ZM113.579 116.074C114.69 115.906 115.508 115.582 116.033 115.099C116.578 114.617 116.85 114.02 116.85 113.307C116.85 112.595 116.567 112.029 116.001 111.609C115.435 111.169 114.628 110.802 113.579 110.509V116.074Z" fill="#F95706"/>
</g>
<path d="M120.049 112.197C120.049 113.895 119.42 115.341 118.161 116.536C116.924 117.71 115.121 118.423 112.751 118.674V122.196H110.172V118.706C108.62 118.601 107.152 118.318 105.768 117.857C104.384 117.395 103.283 116.808 102.465 116.096L103.88 112.92C104.656 113.549 105.6 114.083 106.711 114.524C107.823 114.943 108.976 115.205 110.172 115.31V109.021C108.683 108.665 107.435 108.277 106.428 107.858C105.443 107.418 104.614 106.789 103.943 105.971C103.272 105.133 102.937 104.032 102.937 102.67C102.937 100.972 103.555 99.5256 104.793 98.3308C106.03 97.136 107.823 96.4233 110.172 96.1927V92.6398H112.751V96.1299C113.925 96.1927 115.068 96.3919 116.18 96.7273C117.312 97.0627 118.298 97.5028 119.136 98.0479L117.847 101.224C116.253 100.301 114.554 99.7353 112.751 99.5256V105.877C114.261 106.233 115.509 106.621 116.494 107.04C117.501 107.46 118.34 108.088 119.011 108.927C119.703 109.744 120.049 110.834 120.049 112.197ZM106.994 102.481C106.994 103.173 107.267 103.728 107.812 104.148C108.358 104.567 109.144 104.923 110.172 105.217V99.62C109.102 99.7877 108.305 100.123 107.781 100.626C107.257 101.129 106.994 101.748 106.994 102.481ZM112.751 115.247C113.862 115.079 114.68 114.754 115.204 114.272C115.75 113.79 116.022 113.193 116.022 112.48C116.022 111.767 115.739 111.201 115.173 110.782C114.607 110.342 113.799 109.975 112.751 109.682V115.247Z" fill="#FFCB00"/>
</g>
<defs>
<clipPath id="clip0">
<rect width="297" height="272" fill="white"/>
</clipPath>
</defs>
</svg>
