<svg width="453" height="477" viewBox="0 0 453 477" fill="none" xmlns="http://www.w3.org/2000/svg">
<path opacity="0.2" d="M281.651 29.6275C270.356 26.1428 226.642 12.8728 179.603 32.9501C169.609 37.2109 122.583 57.3935 110.375 99.5644C94.3628 155.367 156.551 190.132 149.491 249.396C143.497 300.293 72.4645 296.474 58.8607 351.971C51.78 380.877 60.4167 417.09 80.3001 436.269C142.234 495.868 377.824 451.448 421.446 299.567C453.277 188.949 372.971 57.4911 281.651 29.6275Z" fill="#58B58B"/>
<path d="M204.727 449.459C231.783 449.456 253.716 446.734 253.716 443.377C253.716 440.021 231.782 437.302 204.726 437.305C177.67 437.307 155.737 440.03 155.737 443.387C155.737 446.743 177.671 449.462 204.727 449.459Z" fill="#E0E0E2"/>
<g opacity="0.34">
<path d="M312.95 142.812L190.262 114.153C186.515 113.288 182.798 115.674 181.91 119.232L129.844 342.538C128.98 346.285 131.365 350.003 134.923 350.892L257.611 379.551C261.358 380.416 265.075 378.03 265.963 374.472L318.029 151.165C318.893 147.419 316.696 143.677 312.95 142.812Z" fill="#58B58B"/>
</g>
<path opacity="0.35" d="M279.14 405.918C277.256 406.157 275.561 406.372 273.842 406.399C240.473 408.909 213.256 401.066 196.927 383.994C179.488 365.723 179.967 343.839 180.466 320.612C180.923 300.07 181.473 278.752 168.319 259.554C156.582 242.473 138.257 241.352 118.941 239.973C99.0611 238.666 78.5918 237.242 62.9204 219.321C46.1638 200.389 39.0663 170.086 46.3048 148.684C56.8693 117.289 103.424 87.455 161.88 74.4889C237.828 57.5813 308.232 73.9205 350.353 117.776C417.251 187.97 406.367 314.931 350.507 369.491L349.846 368.809L350.507 369.491C324.835 394.954 298.354 403.481 279.14 405.918ZM187.783 71.9692C179.495 73.0204 170.877 74.4963 162.308 76.349C104.417 89.2434 58.5436 118.417 48.0957 149.223C41.1623 170.011 47.9759 199.585 64.2841 218C79.7193 235.568 99.788 236.851 119.292 238.206C139.172 239.513 157.898 240.775 170.107 258.561C183.521 278.3 182.995 299.808 182.586 320.726C182.015 343.387 181.489 364.895 198.479 382.649C214.383 399.392 241.2 407.093 273.791 404.491C292.936 403.02 321.468 395.572 349.398 368.292L350.058 368.974L349.398 368.292C404.552 314.204 415.415 188.586 349.177 119.074C312.342 80.6737 253.337 63.6544 187.783 71.9692Z" fill="#AAAAE8"/>
<path opacity="0.09" d="M256.548 260.998C253.534 261.38 250.52 261.762 247.482 261.956C201.585 265.289 161.895 249.648 141.139 220.312C108.034 173.59 125.352 100.371 162.868 73.215C181.802 59.5189 199.345 57.4852 210.934 58.3125C230.626 59.6434 245.877 66.7064 253.835 78.1401C262.454 90.2558 260.239 102.98 257.932 116.481C255.811 128.428 253.761 140.94 259.743 153.39C265.156 164.381 275.782 166.67 286.998 169.076C298.425 171.647 310.229 174.17 318.047 186.004C326.148 198.568 327.689 216.75 321.54 228.633C313.396 244.407 287.818 257.031 256.548 260.998ZM198.077 59.5604C188.093 60.8267 175.947 64.6645 163.34 73.9209C126.365 100.817 109.164 173.446 141.821 219.651C162.341 248.635 201.819 264.111 247.339 260.826C282.427 258.289 311.772 245.187 320.502 227.999C326.511 216.517 324.806 198.547 316.94 186.336C309.548 174.83 297.932 172.284 286.528 169.901C275.101 167.331 264.286 165.065 258.613 153.533C252.419 140.918 254.657 128.383 256.731 116.059C259.061 102.746 261.111 90.2347 252.729 78.4719C244.818 67.4149 229.78 60.5165 210.464 59.1378C207.19 58.9787 202.974 58.9392 198.077 59.5604Z" fill="#AAAAE8"/>
<path d="M353.174 252.039L259.311 279.452L274.8 332.498L368.664 305.085L353.174 252.039Z" fill="#FF3131"/>
<path d="M314.094 292.177L353.211 251.991L259.453 279.39L314.094 292.177Z" fill="#FF7373"/>
<path d="M214.705 189.157C218.067 185.477 219.262 169.245 211.475 174.252C203.688 179.26 211.527 189.752 211.527 189.752L214.705 189.157Z" fill="#010080"/>
<path d="M221.314 223.16C229.088 224.088 233.908 219.839 235.577 217.905C237.057 215.994 232.202 213.93 230.244 212.073C229.559 211.202 229.203 209.907 229.177 208.188C229.078 205.903 229.638 202.769 230.362 199.423L214.695 196.624C214.695 196.624 215.297 204.397 215.303 207.459C215.375 208.024 215.234 208.425 215.094 208.825C214.555 210.617 212.743 211.421 209.615 213.923C205.922 216.497 213.516 222.043 221.314 223.16Z" fill="#F8B7B0"/>
<path d="M215.092 207.294C215.115 207.483 215.139 207.671 214.975 207.883C216.721 209.576 218.772 210.656 220.303 210.653C222.799 210.72 225.882 209.371 228.986 206.681C229.1 204.56 229.543 202.016 230.15 199.258L214.483 196.46C214.671 196.436 215.086 204.232 215.092 207.294Z" fill="#E49F98"/>
<path d="M234.441 189.334C233.677 196.897 233.19 200.596 229.945 203.687C226.7 206.779 223.241 208.175 220.58 208.321C217.141 208.374 212.044 202.895 211.261 199.74C210.266 196.42 209.19 187.942 210.235 179.578C210.839 175.29 215.941 170.24 221.311 170.324C226.469 170.245 236.291 170.722 234.441 189.334Z" fill="#F8B7B0"/>
<path d="M208.584 190.699C209.131 193.501 210.901 195.383 212.408 195.192C213.891 194.812 214.546 192.432 213.999 189.63C213.452 186.827 211.682 184.946 210.175 185.137C208.668 185.328 207.849 187.921 208.584 190.699Z" fill="#F8B7B0"/>
<path d="M287.999 253.945L254.485 267.385L241.933 242.368C241.933 242.368 240.319 286.985 239.457 292.263C238.76 297.329 237.489 297.873 235.369 297.759L199.756 296.15C197.259 296.084 195.77 293.401 196.327 288.736C196.815 285.037 200.598 254.502 200.361 240.558C200.361 240.558 197.342 251.469 191.875 262.692L157.521 254.414L159.834 243.975L183.415 247.301C183.415 247.301 189.108 230.308 196.578 219.788C198.857 216.628 205.749 212.116 209.986 210.813C211.281 210.458 212.387 210.126 213.329 210.006C214.043 214.127 218.169 216.476 221.255 216.658C224.34 216.841 230.437 215.111 230.784 211.812C231.962 212.046 233.188 212.656 234.602 213.243C239.294 215.519 242.262 216.291 244.624 219.82C248.615 225.631 261.523 251.943 261.523 251.943L286.777 242.806L287.999 253.945Z" fill="#557FAF"/>
<path d="M231.446 431.302C232.39 432.714 236.259 436.052 241.868 438.021C247.289 440.013 258.336 441.101 252.123 443.42C245.909 445.74 241.741 446.077 231.54 444.117C227.44 443.488 227.793 443.252 223.485 443.99C219.176 444.728 216.117 446.264 217.138 437.712C217.946 428.995 228.54 426.502 231.446 431.302Z" fill="#557FAF"/>
<path d="M152.383 405.533C152.221 407.276 148.367 411.594 144.324 415.935C140.281 420.277 135.433 422.806 139.252 424.236C145.686 426.674 148.341 423.466 156.361 417.28C159.866 414.73 159.773 415.507 163.538 413.498C166.22 412.009 168.313 410.404 166.466 404.895C163.507 396.656 152.656 400.138 152.383 405.533Z" fill="#557FAF"/>
<path d="M239.651 295.301C239.651 295.301 239.031 329.646 238.386 350.212C238.296 352.52 238.182 354.64 238.044 356.572C238.002 359.258 237.888 361.378 237.655 362.556C237.376 364.889 237.149 369.129 236.687 374.548C236.55 376.479 236.436 378.6 236.134 380.744C234.777 398.719 233.079 423.055 233.273 426.093C233.467 429.132 233.777 431.581 234.157 433.064C234.205 433.441 233.876 433.866 233.287 433.749L228.29 432.085C228.102 432.109 227.914 432.133 227.914 432.133C226.478 432.89 217.867 437.428 216.928 439.078C215.636 440.965 216.967 434.862 216.743 428.573C216.523 423.815 218.613 395.026 219.97 377.051C220.06 374.742 220.362 372.598 220.524 370.855C220.823 367.18 221.054 364.47 221.075 363.128C221.213 361.196 221.088 357.191 220.679 352.458C220.604 350.361 220.341 348.289 220.055 346.028C218.926 334.111 217.181 320.357 216.847 317.72C216.823 317.531 216.587 317.179 216.398 317.202L208.412 316.11C208.224 316.134 208.224 316.134 208.036 316.157C206.083 317.362 189.311 328.487 181.766 336.91C179.909 338.868 178.641 340.943 178.078 342.546C178.102 342.735 177.938 342.947 177.962 343.135C177.151 350.321 176.148 356 175.167 360.336C174.793 361.915 174.584 363.281 174.138 364.295C174.021 364.884 173.716 365.497 173.623 366.275C171.401 374.405 166.821 394.13 165.956 397.877C165.489 400.233 166.458 401.833 166.673 403.529C167.008 406.166 162.842 408.035 160.438 407.191C158.648 406.652 154.946 404.633 152.946 405.461C152.569 405.509 151.98 405.392 152.097 404.803C152.746 399.361 154.994 379.358 157.059 362.441C157.362 360.297 157.664 358.153 157.802 356.221C159.035 347.833 160.082 341 160.902 338.408C161.299 337.017 162.403 335.154 164 332.655C172.807 319.094 195.534 293.048 195.534 293.048C195.534 293.048 196.118 290.103 197.649 290.1C201.111 290.235 201.371 290.776 218.943 291.993C237.693 293.444 239.715 291.273 239.651 295.301Z" fill="#F0A744"/>
<path d="M231.711 176.854C221.395 177.014 214.022 176.226 210.058 172.135C206.07 167.855 209.2 166.883 211.864 168.268C211.864 168.268 213.01 163.72 217.3 165.856C217.3 165.856 221.956 161.82 226.581 166.593C226.581 166.593 233.288 163.637 234.546 169.029C234.358 169.053 240.684 176.673 231.711 176.854Z" fill="#010080"/>
<path d="M236.133 173.996C239.46 177.594 240.762 193.892 232.863 188.96C225.152 184.003 232.036 174.898 232.036 174.898L236.133 173.996Z" fill="#010080"/>
<path d="M232.296 189.031C231.288 191.648 231.434 194.309 232.825 194.707C234.239 195.294 236.12 193.524 237.316 190.883C238.324 188.267 238.178 185.605 236.788 185.207C235.209 184.833 233.304 186.415 232.296 189.031Z" fill="#F8B7B0"/>
<path d="M239.415 294.948L195.675 292.647C195.298 292.695 195.25 292.318 195.226 292.13L196.184 287.606C196.16 287.417 196.513 287.181 196.701 287.157L239.64 289.177C239.828 289.153 240.065 289.506 240.088 289.694L239.909 294.311C239.98 294.877 239.816 295.089 239.415 294.948Z" fill="#A2A2A2"/>
<path d="M234.58 213.054C231.879 217.417 227.244 220.11 222.227 219.79C216.833 219.517 212.163 215.897 209.987 210.813C211.282 210.458 212.388 210.126 213.33 210.006C214.044 214.127 218.17 216.476 221.256 216.658C224.341 216.841 230.438 215.111 230.786 211.812C232.128 211.834 233.354 212.444 234.58 213.054Z" fill="#EEFAFF"/>
<path d="M238.58 173.685C239.002 172.483 238.458 171.212 237.256 170.791L235.685 175.01C236.887 175.432 238.158 174.888 238.58 173.685Z" fill="#010080"/>
<path d="M214.517 177.121C218.141 175.512 219.687 171.105 217.914 167.692L204.901 173.746C206.674 177.158 210.892 178.729 214.517 177.121Z" fill="#010080"/>
<path d="M220.336 177.723C222.004 175.788 221.81 172.75 219.876 171.081L213.695 178.182C215.653 180.039 218.691 179.846 220.336 177.723Z" fill="#010080"/>
<path d="M238.562 176.559C239.668 176.228 240.443 174.789 239.922 173.707L235.709 175.198C236.041 176.305 237.267 176.915 238.562 176.559Z" fill="#010080"/>
<path d="M312.951 142.812L310.194 142.205L292.452 138.138L283.168 135.869L232.887 124.252L190.074 114.177C186.328 113.312 182.611 115.698 181.722 119.256L167.375 181.186L151.157 251.01L148.214 264.018L142.512 288.479L129.845 342.538C129.729 343.128 129.636 343.905 129.707 344.47C129.901 347.509 131.955 350.12 134.9 350.703L157.779 356.033L174.932 359.983L220.289 370.502L236.853 374.335L257.612 379.551C261.359 380.416 265.076 378.03 265.964 374.472L317.189 155.101L318.194 150.953C318.894 147.418 316.697 143.677 312.951 142.812ZM303.509 157.41L302.387 162.147L258.408 351.118C257.894 353.098 255.941 354.302 253.962 353.788L238.576 350.188L220.032 345.84L181.579 336.934L164.025 332.843L150.029 329.641C148.451 329.267 147.53 328.044 147.15 326.56C147.103 326.183 147.031 325.618 147.148 325.029L159.09 274.316L164.58 249.691L167.523 236.683L183.765 167.047L192.084 131.534C192.599 129.554 194.551 128.349 196.507 128.675L220.964 134.379L271.246 145.996L280.529 148.264L298.271 152.331L300.628 152.798C302.631 153.501 304.024 155.43 303.509 157.41Z" fill="#EEEDF3"/>
<path d="M191.954 356.867C188.396 355.978 186.246 352.613 187.135 349.055C188.023 345.496 191.387 343.347 194.945 344.236C198.503 345.124 200.652 348.489 199.764 352.047C198.852 355.418 195.299 357.591 191.954 356.867Z" fill="#C8C7D9"/>
<path d="M151.554 249.62C153.297 249.782 155.863 248.882 157.11 248.149C158.333 247.229 158.985 243.317 159.004 240.443C159.022 237.569 155.491 238.4 155.491 238.4C155.491 238.4 156.737 237.668 158.95 237.004C161.163 236.341 161.794 233.772 158.403 234.202C155.201 234.608 152.214 236.71 149.8 243.334C149.8 243.334 147.338 249.58 150.851 251.623L151.554 249.62Z" fill="#F8B7B0"/>
<path d="M301.393 235.783C301.106 233.523 296.908 230.609 295.945 232.071C294.982 233.534 292.802 238.979 293.702 241.545C294.578 243.922 295.947 245.663 295.947 245.663L295.432 247.643C295.432 247.643 302.423 245.416 301.393 235.783Z" fill="#F8B7B0"/>
<path opacity="0.1" d="M221.856 81.0478L80.7635 111.004C77.4206 111.811 75.1657 115.16 75.9726 118.503L84.6445 159.71C85.4514 163.054 88.7999 165.309 92.1428 164.502L106.127 161.58L112.837 160.154C114.347 161.494 118.216 164.832 119.89 165.96C121.352 166.923 123.424 166.66 124.363 165.01C125.302 163.359 127.578 158.668 128.493 156.829L162.795 149.606L233.259 134.734C236.602 133.927 238.857 130.578 238.05 127.235L229.379 86.0281C228.736 82.4724 225.388 80.217 221.856 81.0478Z" fill="#3F3F3F"/>
<path opacity="0.1" d="M321.759 65.8875L276.234 66.1104C274.326 66.1609 272.798 67.6948 272.66 69.6266L272.885 115.159C272.935 117.067 274.469 118.595 276.401 118.733L321.926 118.51C323.834 118.46 325.362 116.926 325.5 114.994L325.275 69.4617C325.201 67.3654 323.667 65.837 321.759 65.8875Z" fill="#3F3F3F"/>
<path opacity="0.1" d="M137.612 184.961C135.744 180.795 130.748 179.132 126.771 180.976L76.5062 204.198C72.3409 206.066 70.6779 211.063 72.5222 215.04L87.5847 247.779C89.453 251.945 94.4491 253.609 98.426 251.764L103.297 249.424C103.297 249.424 113.74 254.799 117.206 256.465C119.846 257.662 122.905 256.125 123.724 253.533C124.777 249.762 127.535 238.309 127.535 238.309L148.691 228.543C152.856 226.674 154.519 221.678 152.675 217.7L137.612 184.961Z" fill="#3F3F3F"/>
<path opacity="0.1" d="M315.511 178.094C314.659 175.905 311.786 175.887 310.895 177.914L307.165 186.236L303.118 175.455C302.266 173.265 299.838 172.233 297.626 172.897L267.853 184.139C265.664 184.991 264.632 187.419 265.296 189.632L276.537 219.41C277.389 221.599 279.817 222.631 282.03 221.968L311.802 210.725C313.991 209.873 315.023 207.445 314.36 205.232L310.312 194.451L318.633 198.181C320.66 199.073 322.894 197.067 322.066 195.066L315.511 178.094Z" fill="#3F3F3F"/>
<path opacity="0.1" d="M32.2692 161.759C30.3321 158.559 25.4822 159.557 24.5937 163.116L18.1706 192.454C17.306 196.201 21.4797 198.926 24.467 196.824L42.3455 185.367C44.2982 184.163 44.9294 181.594 43.5363 179.665L32.2692 161.759Z" fill="#3F3F3F"/>
<path opacity="0.1" d="M32.3609 84.0254C26.2191 86.9102 23.5003 94.1466 26.3849 100.289C29.2694 106.432 36.5049 109.152 42.6467 106.267C48.7885 103.382 51.5073 96.1458 48.6228 90.003C45.9265 83.8362 38.715 81.3051 32.3609 84.0254Z" fill="#3F3F3F"/>
<path opacity="0.1" d="M406.856 350.475C402.942 348.292 397.928 349.502 395.58 353.628C393.397 357.543 394.607 362.558 398.733 364.906C402.647 367.09 407.661 365.879 410.009 361.753C412.192 357.839 410.793 352.847 406.856 350.475Z" fill="#3F3F3F"/>
<path opacity="0.1" d="M374.137 139.79C378.971 132.677 377.125 122.991 370.013 118.156C362.901 113.321 353.217 115.167 348.382 122.279C343.548 129.392 345.394 139.078 352.506 143.913C359.618 148.749 369.302 146.903 374.137 139.79Z" fill="#3F3F3F"/>
<path opacity="0.1" d="M124.517 274.873C113.834 279.674 109.311 292.308 114.112 302.993C118.912 313.679 131.545 318.203 142.228 313.402C152.912 308.601 157.435 295.967 152.634 285.281C147.645 274.619 135.177 269.884 124.517 274.873Z" fill="#3F3F3F"/>
<path d="M223.203 70.5394L71.8448 102.563C68.1251 103.418 65.8942 106.955 66.5366 110.511L75.9676 154.685C76.8222 158.405 80.3591 160.636 83.9143 159.994L98.8169 156.764L106.092 155.267C107.79 156.583 111.895 160.274 113.569 161.401C115.055 162.553 117.48 162.054 118.419 160.403C119.522 158.54 121.963 153.637 122.878 151.798L159.605 144.076L235.272 127.97C238.992 127.115 241.223 123.578 240.58 120.022L231.149 75.8488C230.295 72.1285 226.734 69.7086 223.203 70.5394Z" fill="#557FAF"/>
<path d="M106.486 126.693C107.614 125.019 108.293 122.827 107.842 120.778L107.011 117.246C106.132 113.338 102.311 110.376 98.3795 111.067C94.2592 111.781 91.5109 115.766 92.4134 119.864L93.292 123.772C93.7671 126.009 95.1363 127.75 96.7867 128.689C92.1518 131.383 89.3108 136.146 89.038 141.541C88.9241 143.661 90.8345 145.142 92.8827 144.69L116.567 139.772C118.615 139.321 119.671 137.081 118.867 135.269C116.338 130.421 111.716 127.178 106.486 126.693Z" fill="white"/>
<path d="M165.478 96.8131L135.272 103.133C132.847 103.632 131.25 106.132 131.749 108.557L134.956 123.274C135.455 125.699 137.954 127.296 140.379 126.797L143.369 126.227C143.369 126.227 148.299 130.387 149.997 131.703C151.271 132.69 153.131 132.263 153.905 130.825C155.009 128.962 157.895 123.044 157.895 123.044L170.561 120.289C172.986 119.79 174.583 117.29 174.084 114.865L170.877 100.148C170.214 97.9353 167.903 96.3141 165.478 96.8131Z" fill="white"/>
<path d="M139.642 110.427C138.7 110.547 137.663 109.913 137.543 108.971C137.4 107.84 138.058 106.991 138.976 106.683L163.39 101.481C164.332 101.361 165.369 101.996 165.677 102.914C165.82 104.044 165.162 104.893 164.244 105.201L139.642 110.427Z" fill="#E2E2E2"/>
<path d="M141.018 116.761C140.076 116.881 139.039 116.247 138.919 115.305C138.776 114.174 139.434 113.325 140.352 113.017L164.766 107.815C165.684 107.507 166.745 108.33 167.053 109.248C167.196 110.378 166.539 111.227 165.621 111.535L141.018 116.761Z" fill="#E2E2E2"/>
<path d="M142.21 123.119C141.268 123.239 140.23 122.605 140.111 121.663C139.967 120.532 140.625 119.683 141.543 119.375L152.538 117.023C153.48 116.904 154.517 117.538 154.825 118.456C154.968 119.587 154.311 120.436 153.393 120.744L142.21 123.119C142.398 123.095 142.398 123.095 142.21 123.119Z" fill="#E2E2E2"/>
<path d="M225.183 110.298C224.612 107.307 222.935 104.648 220.788 102.815L220.194 99.636C219.124 94.2201 214.266 90.6247 208.92 90.7285L208.8 89.7865C208.657 88.6561 207.619 88.022 206.513 88.3538C205.383 88.4971 204.749 89.5347 205.08 90.6412L205.2 91.5832C200.281 93.5472 197.323 98.8996 198.393 104.315L198.988 107.494C197.791 110.135 197.396 113.056 197.991 116.235L198.347 117.53C198.442 118.284 199.267 118.753 199.809 118.493L205.224 117.424C205.271 117.801 205.508 118.153 205.932 118.482C207.959 119.374 210.504 119.817 212.929 119.318C215.354 118.819 217.495 117.59 218.999 115.868C219.328 115.443 219.28 115.067 219.232 114.69L224.647 113.62C225.401 113.524 225.87 112.699 225.61 112.158L225.183 110.298Z" fill="white"/>
<path d="M202.231 116.463C202.825 119.642 200.923 122.755 197.745 123.35C194.566 123.944 191.454 122.042 190.859 118.863C190.265 115.684 192.167 112.571 195.345 111.976C198.311 111.217 201.424 113.12 202.231 116.463Z" fill="#FF3131"/>
<path d="M330.51 110.722L281.546 110.998C279.45 111.072 277.704 109.379 277.818 107.259L277.54 58.2875C277.465 56.1912 279.158 54.445 281.278 54.559L330.242 54.2829C332.338 54.2084 334.084 55.9013 333.97 58.0215L334.248 106.993C334.322 109.089 332.63 110.836 330.51 110.722Z" fill="#F8AA00"/>
<path d="M283.086 103.528L282.798 62.0234C282.819 60.6807 283.854 59.7837 284.984 59.6404L326.482 59.354C327.825 59.3752 328.721 60.4101 328.865 61.5405L329.153 103.045C329.132 104.388 328.097 105.285 326.967 105.428L285.469 105.714C284.15 105.882 283.065 104.871 283.086 103.528Z" fill="#FFBB33"/>
<path d="M307.501 86.265L302.917 90.8666C302.07 91.7396 300.728 91.7185 299.855 90.872C298.982 90.0256 297.639 90.0045 296.793 90.8775L290.187 97.6498C288.824 98.9714 289.888 101.325 291.796 101.275L292.761 101.343L310.543 101.194L320.482 101.082C322.389 101.031 323.257 98.8155 321.935 97.4516L310.563 86.2595C309.69 85.4131 308.159 85.4158 307.501 86.265Z" fill="#ED9E00"/>
<path d="M297.385 78.9338C297.459 81.0301 295.767 82.7762 293.647 82.6622C291.527 82.5483 289.805 81.0438 289.919 78.9236C289.844 76.8273 291.537 75.0811 293.657 75.1951C295.588 75.3329 297.31 76.8374 297.385 78.9338Z" fill="#ED9E00"/>
<path d="M116.725 174.21L62.8599 199.228C58.5301 201.309 56.5142 206.542 58.5947 210.872L74.9098 245.941C76.9903 250.272 82.2226 252.288 86.5523 250.207L91.8001 247.819C91.8001 247.819 102.88 253.688 106.722 255.306C109.551 256.479 112.798 254.919 113.782 252.114C114.999 248.131 117.85 235.9 117.85 235.9L140.441 225.377C144.771 223.297 146.787 218.064 144.706 213.733L128.391 178.665C126.475 174.122 121.243 172.105 116.725 174.21Z" fill="#D85243"/>
<path d="M119.327 193.215L75.5811 213.504C74.1219 214.072 72.5193 213.509 71.763 212.074C71.0068 210.638 71.7574 209.011 73.1927 208.255L116.939 187.966C118.398 187.398 120.001 187.961 120.757 189.396C121.325 190.856 120.786 192.647 119.327 193.215Z" fill="#FFB6EA"/>
<path d="M125.097 205.5L81.3506 225.789C79.8914 226.357 78.2889 225.795 77.5326 224.359C76.7763 222.924 77.527 221.297 78.9623 220.541L122.708 200.252C124.168 199.684 125.77 200.246 126.526 201.682C127.094 203.141 126.368 204.956 125.097 205.5Z" fill="#FFB6EA"/>
<path d="M106.651 229.089L86.955 238.287C85.4958 238.855 83.8932 238.293 83.1369 236.857C82.569 235.398 83.1313 233.795 84.5666 233.039L104.263 223.84C105.722 223.272 107.325 223.835 108.081 225.27C108.837 226.706 108.087 228.333 106.651 229.089Z" fill="#FFB6EA"/>
<path d="M313.424 169.17L309.389 178.105L305.058 166.594C304.183 164.216 301.543 163.02 299.165 163.896L267.204 175.99C264.827 176.866 263.63 179.506 264.506 181.884L276.6 213.85C277.475 216.228 280.115 217.425 282.493 216.549L314.454 204.455C316.831 203.579 318.028 200.938 317.152 198.561L312.821 187.05L321.754 191.085C323.994 192.141 326.204 189.947 325.352 187.758L318.465 169.679C317.565 167.113 314.291 166.954 313.424 169.17Z" fill="#FF3158"/>
<path d="M283.842 181.92L296.83 187.738L290.824 200.752" fill="white"/>
<path d="M31.7992 176.176L19.423 157.071C17.2736 153.706 12.023 154.564 11.1823 158.499L4.43304 189.793C3.59237 193.728 7.97834 196.618 11.3424 194.468L30.444 182.091C32.6089 181.05 33.2162 178.293 31.7992 176.176Z" fill="#FF7D43"/>
<path d="M25.1525 173.573L22.4141 170.092L22.5546 169.691C22.6713 169.102 22.4113 168.561 21.8222 168.444C21.2332 168.327 20.692 168.587 20.5753 169.176L18.5439 178.814C17.9071 178.321 16.8936 177.875 15.9039 177.618C13.3356 176.986 10.7701 177.886 10.42 179.653C10.07 181.421 11.8159 183.113 14.5726 183.721C17.1409 184.352 19.5181 183.476 19.8681 181.709L21.3161 175.017L22.9215 177.11C23.5822 177.792 24.7124 177.649 24.9697 176.659L25.4603 174.491C25.4364 174.303 25.3886 173.926 25.1525 173.573Z" fill="white"/>
<path d="M41.2385 83.0907C44.3832 89.7749 41.3593 97.6243 34.8407 100.557C28.1577 103.702 20.3093 100.677 17.3769 94.1575C14.2323 87.4733 17.2561 79.6239 23.7747 76.6913C30.2694 73.5704 38.0939 76.4066 41.2385 83.0907Z" fill="#FF3131"/>
<path d="M33.6066 81.7618C31.1788 80.7297 28.2843 82.054 27.4409 84.4581C24.8486 83.6383 22.1425 84.9388 21.3229 87.5313C20.4794 89.9355 21.9682 92.6182 24.372 93.4619L31.3952 96.0169C32.3849 96.2742 33.4912 95.9424 33.7485 94.9526L36.3028 87.9285C36.934 85.3598 35.8221 82.6293 33.6066 81.7618Z" fill="white"/>
<path d="M418.497 366.802C416.173 371.117 410.618 372.587 406.468 370.051C402.154 367.726 400.683 362.17 403.219 358.019C405.543 353.705 411.099 352.234 415.249 354.771C419.374 357.119 420.821 362.487 418.497 366.802Z" fill="#FF3131"/>
<path d="M416.155 361.93C415.728 360.07 413.889 359.155 412.218 359.558C411.814 357.886 409.952 356.782 408.116 357.398C406.468 357.99 405.529 359.641 406.121 361.288L407.496 366.091C407.78 366.821 408.392 367.126 408.958 367.055L413.76 365.68C415.62 365.252 416.559 363.602 416.155 361.93Z" fill="white"/>
<path d="M373.208 136.509C382.364 135.348 388.844 126.984 387.682 117.827C386.521 108.671 378.158 102.189 369.003 103.35C359.847 104.512 353.367 112.876 354.529 122.032C355.69 131.189 364.053 137.67 373.208 136.509Z" fill="#557FAF"/>
<path d="M376.035 110.499C375.374 109.817 374.22 109.772 373.374 110.645C373.374 110.645 371.564 112.98 368.978 115.222L367.399 114.848C367.211 114.872 367.211 114.872 367.046 115.085L364.707 123.804C364.731 123.993 364.731 123.993 364.943 124.157L366.145 124.579C366.549 126.251 367.846 127.426 369.425 127.8L370.202 127.893L374.962 129.204L375.952 129.461C376.941 129.718 378.024 129.198 378.281 128.208C378.422 127.808 378.35 127.243 378.114 126.89L378.915 127.171C379.905 127.428 380.987 126.908 381.244 125.918C381.361 125.329 381.289 124.764 380.865 124.435C381.618 124.339 382.324 123.867 382.417 123.09C382.674 122.1 382.154 121.017 381.164 120.76C381.517 120.524 381.846 120.099 381.987 119.698C382.244 118.708 381.724 117.626 380.734 117.369L373.995 115.543C375.311 113.845 377.332 111.674 376.035 110.499Z" fill="white"/>
<path d="M360.82 123.34L363.011 124.019C363.412 124.16 363.765 123.924 363.905 123.523L366.221 114.615C366.361 114.214 366.125 113.861 365.725 113.721L363.533 113.042C363.132 112.901 362.78 113.137 362.639 113.538L360.324 122.446C360.207 123.035 360.443 123.388 360.82 123.34Z" fill="white"/>
<path d="M127.264 322.191C139.748 320.607 148.585 309.202 147.001 296.716C145.417 284.229 134.013 275.391 121.529 276.974C109.044 278.558 100.208 289.964 101.791 302.45C103.375 314.936 114.78 323.774 127.264 322.191Z" fill="#F0A744"/>
<path d="M121.448 285.407C120.105 285.386 118.882 286.307 118.885 287.838C118.885 287.838 119.01 291.842 118.265 296.531L116.1 297.572C115.912 297.596 115.747 297.808 115.96 297.972L121.02 309.199C121.044 309.388 121.257 309.552 121.421 309.34L123.045 308.56C124.931 309.852 127.263 310.13 129.264 309.302L130.158 308.806L136.3 305.921L137.759 305.353C139.03 304.809 139.616 303.395 139.072 302.124C138.812 301.583 138.175 301.089 137.562 300.784L138.456 300.288C139.727 299.744 140.313 298.329 139.769 297.058C139.485 296.329 138.848 295.835 138.071 295.742C138.753 295.081 138.986 293.903 138.678 292.985C138.134 291.714 136.72 291.128 135.449 291.672C135.754 291.059 135.659 290.305 135.399 289.764C134.855 288.493 133.441 287.906 132.17 288.45L123.486 292.423C123.505 289.55 123.945 285.474 121.448 285.407Z" fill="white"/>
<path d="M116.624 312.246L119.519 310.922C119.872 310.685 120.201 310.261 119.94 309.72L114.668 298.328C114.431 297.975 114.007 297.646 113.466 297.906L110.571 299.231C110.218 299.467 109.889 299.891 110.149 300.433L115.422 311.824C115.659 312.177 116.247 312.294 116.624 312.246Z" fill="white"/>
</svg>
