<svg width="507" height="457" viewBox="0 0 507 457" fill="none" xmlns="http://www.w3.org/2000/svg">
<path opacity="0.2" d="M391.973 446.278H115.028C53.3873 403.742 12.9959 333.434 12.9959 253.987C12.9959 124.093 120.648 0 253.413 0C386.353 0 494.005 124.093 494.005 253.987C494.005 333.434 453.613 403.742 391.973 446.278Z" fill="#58B58B"/>
<path opacity="0.43" d="M0 446.981C0 441.532 113.447 436.962 253.588 436.962C393.728 436.962 507 441.532 507 446.981C507 452.43 393.553 457 253.412 457C113.272 457 0 452.43 0 446.981Z" fill="#D3E3EB"/>
<path d="M336.127 326.579H347.718V436.962H336.127V326.579Z" fill="#B0C4CB"/>
<path d="M336.127 326.579H347.718V342.047H336.127V326.579Z" fill="#91ADB7"/>
<path d="M291.872 437.138H388.46C392.148 437.138 395.134 440.126 395.134 443.817V447.333H285.023V443.817C285.199 440.126 288.184 437.138 291.872 437.138Z" fill="#B0C4CB"/>
<path d="M369.319 326.755H289.414C318.566 316.385 307.327 217.778 301.883 180.515C300.829 172.957 306.625 166.278 314.176 166.278H367.387C378.276 166.278 387.583 174.363 388.988 185.085C393.73 219.008 401.105 289.316 386.354 316.56C383.193 322.888 376.519 326.755 369.319 326.755Z" fill="#B0C4CB"/>
<path d="M94.4809 104.758H190.015C194.933 104.758 198.972 108.801 198.972 113.723V156.786C198.972 161.708 194.933 165.75 190.015 165.75H183.342V176.121C183.342 177.527 181.586 178.406 180.532 177.351L167.537 165.75H94.3052C89.388 165.75 85.3489 161.708 85.3489 156.786V113.547C85.7001 108.625 89.5637 104.758 94.4809 104.758Z" fill="#58B58B"/>
<path d="M161.742 135.694C161.742 137.803 163.498 139.561 165.605 139.561C167.713 139.561 169.469 137.803 169.469 135.694C169.469 133.585 167.713 131.827 165.605 131.827C163.498 131.827 161.742 133.585 161.742 135.694Z" fill="#3A966C"/>
<path d="M137.682 135.694C137.682 137.803 139.438 139.561 141.546 139.561C143.653 139.561 145.409 137.803 145.409 135.694C145.409 133.585 143.653 131.827 141.546 131.827C139.438 131.827 137.682 133.585 137.682 135.694Z" fill="#3A966C"/>
<path d="M119.067 139.561C116.933 139.561 115.204 137.829 115.204 135.694C115.204 133.558 116.933 131.827 119.067 131.827C121.201 131.827 122.931 133.558 122.931 135.694C122.931 137.829 121.201 139.561 119.067 139.561Z" fill="#3A966C"/>
<path d="M407.602 220.59C407.602 210.044 414.978 199.497 424.285 199.497C433.417 199.497 440.969 210.044 440.969 220.59C440.969 231.136 433.593 239.749 424.285 239.749C415.153 239.573 407.602 231.136 407.602 220.59Z" fill="#58B58B"/>
<path opacity="0.25" d="M424.285 199.322C425.69 199.322 427.271 199.674 428.5 200.201C421.3 202.838 416.207 211.626 416.207 220.59C416.207 229.379 421.475 236.937 428.5 239.046C427.095 239.398 425.69 239.749 424.285 239.749C415.153 239.749 407.602 231.137 407.602 220.59C407.602 210.044 415.153 199.322 424.285 199.322Z" fill="#476488"/>
<path d="M443.252 233.07L440.266 260.138C439.915 263.478 437.105 266.115 433.593 266.115H416.383C413.046 266.115 410.061 263.478 409.709 260.138L406.724 233.07C406.548 231.664 407.778 230.258 409.182 230.258H440.793C442.198 230.258 443.427 231.488 443.252 233.07Z" fill="#D3E3EB"/>
<path d="M440.793 234.3H409.358C408.304 234.3 407.602 234.828 407.251 235.706L406.9 233.07C406.724 231.664 407.953 230.258 409.358 230.258H440.793C442.198 230.258 443.427 231.488 443.252 233.07L442.901 235.706C442.549 234.828 441.671 234.3 440.793 234.3Z" fill="#B0C4CB"/>
<path d="M409.358 230.258H420.246C418.841 230.258 417.612 231.488 417.787 233.07L420.773 260.138C421.124 263.478 423.934 266.115 427.446 266.115H416.558C413.221 266.115 410.236 263.478 409.885 260.138L406.899 233.07C406.724 231.488 407.777 230.258 409.358 230.258Z" fill="#B0C4CB"/>
<path d="M271.501 420.792L272.555 428.525L266.584 436.083L251.657 428.701L249.9 421.67L268.691 418.858L271.501 420.792Z" fill="#E3BD78"/>
<path d="M259.383 445.926L257.803 443.993C257.452 443.642 256.925 443.642 256.749 443.993L255.169 445.751C254.466 446.454 253.588 446.981 252.71 446.981L217.763 446.454C217.06 445.751 216.885 444.52 217.763 443.817C222.856 438.72 250.427 429.756 251.832 428.877C253.237 428.174 261.666 434.677 272.73 428.701C272.73 428.701 274.486 437.49 274.838 443.114C275.013 445.399 273.081 447.333 270.798 447.333L261.842 447.157C260.788 446.981 259.91 446.63 259.383 445.926Z" fill="#2C3C4D"/>
<path d="M335.6 288.789C335.6 288.789 350.176 304.784 323.483 322.361C304.868 334.665 290.116 330.798 278.35 338.356C275.54 340.113 273.433 342.75 273.257 345.914L272.73 420.967L271.325 421.67C264.301 425.186 256.047 425.186 248.847 421.846L238.31 336.071C237.958 330.095 241.12 325.173 244.807 320.603C265.179 294.765 301.18 285.977 310.312 284.395C322.254 282.637 335.6 288.789 335.6 288.789Z" fill="#2C3C4D"/>
<path d="M329.278 420.792L330.507 428.525L324.712 436.259L309.609 429.053L307.853 421.846L326.468 418.858L329.278 420.792Z" fill="#E3BD78"/>
<path d="M317.512 445.927L315.932 443.993C315.58 443.642 315.054 443.642 314.878 443.993L313.297 445.927C312.595 446.63 311.717 447.157 310.839 447.157L275.891 446.981C275.189 446.278 275.013 445.223 275.716 444.345C280.809 439.072 308.205 429.756 309.609 429.053C311.014 428.35 319.444 434.677 330.508 428.525C330.508 428.525 332.439 437.314 332.791 442.938C332.966 445.223 331.21 447.157 328.751 447.157H319.795C318.917 447.157 318.039 446.805 317.512 445.927Z" fill="#2C3C4D"/>
<path d="M379.855 274.727C379.855 274.727 397.417 294.413 371.952 316.56C354.04 332.028 338.059 325.525 326.819 335.016C324.185 337.301 322.429 340.289 322.605 343.629L330.683 420.088L330.156 420.44C323.131 425.01 314.351 425.537 306.624 422.022L286.779 341.52C285.55 335.368 288.184 329.743 291.345 324.294C309.082 294.238 336.654 276.133 346.137 273.321C358.254 269.63 379.855 274.727 379.855 274.727Z" fill="#2C3C4D"/>
<path d="M282.74 336.071C284.145 335.543 285.374 335.016 286.779 334.665C287.481 331.149 289.237 327.634 291.169 324.294C299.95 309.354 311.189 297.402 321.375 288.789C315.053 287.734 311.716 286.328 309.96 284.57C306.448 285.098 299.423 286.68 290.818 289.668C282.389 304.257 282.389 327.81 282.74 336.071Z" fill="#1F2E40"/>
<path d="M332.438 171.023C332.438 171.023 357.727 167.684 368.439 187.37C378.976 207.232 394.782 284.746 380.908 287.031C374.762 288.086 358.605 292.128 340.517 290.898C315.755 289.14 310.311 286.855 308.555 282.11L292.75 209.868C292.398 199.85 296.789 190.358 304.691 184.382C317.336 174.715 332.438 171.023 332.438 171.023Z" fill="#D3E3EB"/>
<path d="M292.925 203.365C292.925 203.365 292.574 246.956 278.876 249.592C265.178 252.229 228.826 251.35 228.826 251.35V265.236H306.799L292.925 203.365Z" fill="#B0C4CB"/>
<path d="M311.716 183.679L308.555 168.211L328.575 152.919L332.438 171.023C332.438 171.199 326.116 198.971 311.716 183.679Z" fill="#D4904F"/>
<path d="M286.252 138.858C286.252 138.858 296.614 143.955 312.068 134.639C312.068 134.639 315.58 140.967 325.941 146.767C325.941 146.767 331.21 137.803 334.371 144.482C335.249 146.592 335.776 148.349 335.776 149.931C345.259 137.627 338.41 121.281 329.454 112.492C321.024 104.055 302.585 107.395 291.17 112.141C279.052 117.062 276.769 108.45 276.769 108.45C261.491 130.069 286.252 138.858 286.252 138.858Z" fill="#2C3C4D"/>
<path d="M325.941 146.767C325.941 146.767 331.209 137.803 334.37 144.482C338.058 152.568 333.844 157.665 328.926 157.665C328.926 157.665 324.887 178.757 305.57 177.351C286.252 175.945 283.442 144.658 286.603 138.858C286.603 138.858 296.965 143.955 312.419 134.639C312.067 134.639 315.58 141.143 325.941 146.767Z" fill="#E3BD78"/>
<path d="M157.702 196.158H238.661C242.7 196.158 246.036 198.971 246.914 202.838L257.627 255.744H159.458L149.448 206.177C148.394 201.08 152.434 196.158 157.702 196.158Z" fill="#D3E3EB"/>
<path d="M159.985 255.744H293.804C296.087 255.744 297.843 257.502 297.843 259.787V261.017C297.843 263.302 296.087 265.06 293.804 265.06H159.985C157.702 265.06 155.946 263.302 155.946 261.017V259.787C155.946 257.502 157.702 255.744 159.985 255.744Z" fill="#8BA6AF"/>
<path d="M159.985 255.744H258.856C256.573 255.744 254.817 257.502 254.817 259.787V261.017C254.817 263.302 256.573 265.06 258.856 265.06H159.985C157.702 265.06 155.946 263.302 155.946 261.017V259.787C155.946 257.502 157.702 255.744 159.985 255.744Z" fill="#B0C4CB"/>
<path d="M289.413 252.932C305.219 251.174 349.473 246.604 357.025 245.725C366.508 244.671 345.786 206.177 343.503 192.995C341.22 179.812 351.23 179.285 351.23 179.285C356.849 178.582 363.171 179.285 368.44 187.194C379.152 203.541 391.27 251.35 384.948 263.127C384.245 264.533 382.665 265.412 381.26 265.412H289.589V252.932H289.413Z" fill="#D3E3EB"/>
<path d="M289.413 252.932C289.413 252.932 346.313 249.065 358.606 247.307C368.089 246.077 348.244 206.529 345.961 193.346C343.678 180.163 353.864 180.691 353.864 180.691C356.498 180.339 360.186 180.691 362.82 181.57C358.957 179.109 355.093 178.933 351.23 179.285C351.23 179.285 341.22 179.812 343.503 192.995C345.786 206.177 363.523 243.968 357.552 245.374C350.176 247.307 305.219 251.174 289.413 252.932Z" fill="#B0C4CB"/>
<path d="M289.413 265.763H268.164C266.583 265.763 265.529 264.005 266.408 262.599C268.339 259.611 271.5 255.217 273.783 254.514C275.188 254.162 285.55 254.514 289.237 254.865V265.763H289.413Z" fill="#E3BD78"/>
<path opacity="0.67" d="M286.252 138.858C286.252 138.858 288.008 139.737 290.993 140.088C291.169 141.494 291.696 144.307 292.047 146.943C292.398 150.634 290.467 162.235 291.696 162.411C292.925 162.587 295.208 162.235 295.208 162.235C295.208 162.235 296.964 178.933 313.648 176.297C313.823 176.297 313.999 176.297 313.999 176.297C311.54 177.175 308.555 177.703 305.043 177.351C285.901 175.945 283.091 144.658 286.252 138.858Z" fill="#D4904F"/>
<path d="M42.8505 382.122C42.8505 382.122 16.1571 368.94 23.3573 348.726C30.5575 328.688 35.1235 327.81 21.2499 316.56C7.37634 305.311 -12.6437 276.837 12.6448 274.727C38.1089 272.618 36.704 306.366 57.9534 311.112C79.2027 315.682 90.6177 404.093 42.8505 382.122Z" fill="#58B58B"/>
<path opacity="0.25" d="M63.9238 384.056C58.831 386.517 51.9821 386.165 42.8501 382.122C42.8501 382.122 16.1567 368.94 23.3569 348.726C30.5571 328.688 35.1231 327.81 21.2495 316.56C7.37597 305.311 -12.6441 276.837 12.6444 274.727C15.103 274.552 17.386 274.727 19.4934 275.079C12.2932 278.067 5.26861 283.867 14.4006 294.765C29.679 312.869 37.9329 319.373 36.1767 331.149C34.4206 342.574 35.4743 368.588 63.9238 384.056Z" fill="#476488"/>
<path d="M88.1589 381.418C88.1589 381.418 111.691 380.539 110.286 363.665C109.057 346.791 108.355 346.088 123.106 340.815C149.097 331.499 128.55 281.405 107.301 312.868C92.5492 334.663 86.2271 329.742 76.5683 331.499C67.0851 333.257 46.1869 388.976 88.1589 381.418Z" fill="#58B58B"/>
<path opacity="0.29" d="M76.5686 331.501C86.2274 329.743 92.5495 334.665 107.301 312.869C118.365 296.347 129.253 302.323 133.468 312.869C127.146 310.936 117.662 309.881 116.609 319.9C115.028 333.083 84.2957 354.702 84.8225 381.771C84.4713 381.771 83.9444 381.771 83.5932 381.947C79.0272 370.17 73.2319 354.702 68.1391 341.695C70.9489 336.071 74.11 332.028 76.5686 331.501Z" fill="#476488"/>
<path d="M82.7145 380.716C82.7145 380.716 111.867 352.241 101.857 347.32C92.0221 342.574 72.3532 358.217 83.2414 341.168C94.1295 324.118 106.774 297.753 91.6709 301.971C76.568 306.19 75.5143 310.76 77.4461 290.898C79.9047 265.235 65.6799 252.053 52.1575 260.49C38.6352 268.751 63.7481 325.173 54.4405 319.197C45.1329 313.045 37.4059 307.947 35.4741 315.33C33.5424 322.712 61.992 351.538 51.4551 346.792C38.284 340.64 36.3522 351.538 40.567 358.393C44.9573 365.072 62.1676 404.972 82.7145 380.716Z" fill="#3A966C"/>
<path opacity="0.48" d="M40.7426 358.218C36.5278 351.539 38.4596 340.641 51.6307 346.617C62.1676 351.538 33.718 322.537 35.6498 315.154C37.5815 307.772 45.3086 312.869 54.6162 319.021C63.9238 325.173 38.9865 268.751 52.3332 260.314C58.6553 256.447 64.9775 257.326 69.8947 261.72C62.8701 263.478 57.426 269.103 61.2895 284.219C69.5434 316.209 74.4606 342.926 59.5334 335.192C45.4842 327.81 75.8656 361.733 76.2168 386.341C58.4797 396.535 44.4305 364.194 40.7426 358.218Z" fill="#2C3C4D"/>
<path d="M102.91 384.056L97.2908 435.205C96.5883 441.532 91.1443 446.454 84.8221 446.454H52.1578C45.66 446.454 40.3916 441.708 39.6891 435.205L34.0695 384.056C33.7182 381.243 36.0012 378.783 38.811 378.783H98.3445C100.979 378.783 103.262 381.243 102.91 384.056Z" fill="#D3E3EB"/>
<path d="M38.6356 378.783H59.1826C56.3727 378.783 54.2653 381.243 54.4409 384.056L60.0606 435.205C60.7631 441.532 66.2072 446.454 72.5293 446.454H52.158C45.6602 446.454 40.3918 441.708 39.6893 435.205L34.0697 384.056C33.7184 381.243 35.8258 378.783 38.6356 378.783Z" fill="#B0C4CB"/>
<path d="M102.033 265.587H450.804C454.667 265.587 457.828 268.751 457.828 272.618V274.903C457.828 278.77 454.667 281.934 450.804 281.934H102.033C98.169 281.934 95.0079 278.77 95.0079 274.903V272.618C94.8323 268.751 97.9934 265.587 102.033 265.587Z" fill="#5D8AC8"/>
<path d="M102.033 265.587H450.804C454.667 265.587 457.828 268.751 457.828 272.618V274.903C457.828 275.606 457.653 276.309 457.477 277.012C456.599 274.2 453.965 272.091 450.804 272.091H102.033C98.8715 272.091 96.2373 274.2 95.3592 277.012C95.1836 276.309 95.0079 275.606 95.0079 274.903V272.618C94.8323 268.751 97.9934 265.587 102.033 265.587Z" fill="#4772A6"/>
<path d="M340.518 446.63H352.108L433.242 282.11H421.652L340.518 446.63Z" fill="#476488"/>
<path d="M468.892 446.63H457.301L376.167 282.11H387.758L468.892 446.63Z" fill="#476488"/>
<path d="M89.3877 446.63H101.154L182.112 282.11H170.522L89.3877 446.63Z" fill="#476488"/>
<path d="M217.763 446.63H206.172L125.038 282.11H136.629L217.763 446.63Z" fill="#476488"/>
<path d="M418.491 288.613L421.652 282.11H433.242L430.081 288.613H418.491Z" fill="#293951"/>
<path d="M379.328 288.613L376.167 282.11H387.758L390.919 288.613H379.328Z" fill="#293951"/>
<path d="M167.361 288.613L170.522 282.11H182.112L178.951 288.613H167.361Z" fill="#293951"/>
<path d="M128.199 288.613L125.038 282.11H136.628L139.965 288.613H128.199Z" fill="#293951"/>
</svg>
